STARTFONT 2.1
COMMENT This font was automatically resized by bdfresize-1.5
COMMENT   mag_x = 16/24, mag_y = 16/24, blackness = 4
FONT -dynalab-ming-medium-r-normal-fantizi-16-160-75-75-c-160-ISO10646-1
SIZE 16 75 75
FONTBOUNDINGBOX 16 16 0 -1
COMMENT "Generated by fontforge, http://fontforge.sourceforge.net"
COMMENT "著作權為中華民國行政院研考會、中文電腦推廣基金會所共有"
COMMENT "字形設計為華康科技 Dynalab Inc."
COMMENT "http://www.cmex.org.tw/"
COMMENT "-dynalab-ming-medium-r-normal-fantizi-24-240-75-75-c-240-big5p-0"
COMMENT "Modified by 趙惟倫 wchao@hrz.uni-bielefeld.de, 1998.1. 無新增權利宣告"
COMMENT "-dynalab-ming-medium-r-normal-fantizi-24-240-75-75-c-240-ISO10646-1"
COMMENT "Modified by 趙惟倫 bluebat@member.fsf.org, 2009.7. 無新增權利宣告"
STARTPROPERTIES 19
FONTNAME_REGISTRY ""
FOUNDRY "dynalab"
FAMILY_NAME "ming"
WEIGHT_NAME "medium"
SLANT "r"
SETWIDTH_NAME "normal"
ADD_STYLE_NAME "fantizi"
PIXEL_SIZE 16
POINT_SIZE 160
RESOLUTION_X 75
RESOLUTION_Y 75
SPACING "c"
AVERAGE_WIDTH 160
CHARSET_REGISTRY "ISO10646"
CHARSET_ENCODING "1"
FONT_ASCENT 15
FONT_DESCENT 1
DEFAULT_CHAR 41280
COPYRIGHT "Public Domain"
ENDPROPERTIES
CHARS 21585
STARTCHAR char33088
ENCODING 33928
SWIDTH 640 0
DWIDTH 16 0
BBX 16 16 0 -1
BITMAP
0410
0C30
7F7F
7F7F
2040
20C4
3FFE
20C0
3F7F
3D3E
1FF8
1FF8
1FF8
1FF8
1FF8
1FF8
ENDCHAR
STARTCHAR char33089
ENCODING 34576
SWIDTH 640 0
DWIDTH 16 0
BBX 16 16 0 -1
BITMAP
1084
308C
308C
30CC
FFFF
FC9F
FC8F
FCAF
FFEF
F90B
314B
3B4B
3FFB
3F33
642E
0044
ENDCHAR
STARTCHAR char33090
ENCODING 34591
SWIDTH 640 0
DWIDTH 16 0
BBX 16 16 0 -1
BITMAP
0000
1030
11FF
11FF
7CC4
7DFE
5482
54FE
54C2
7EF2
509A
149E
14F2
1F82
610E
010C
ENDCHAR
STARTCHAR char33091
ENCODING 34575
SWIDTH 640 0
DWIDTH 16 0
BBX 16 16 0 -1
BITMAP
1000
300E
31F8
3032
FDFF
FC78
F4F6
F5B3
F7FC
FDFC
3048
30CF
3C83
3D83
631E
060C
ENDCHAR
STARTCHAR char33092
ENCODING 35027
SWIDTH 640 0
DWIDTH 16 0
BBX 16 16 0 -1
BITMAP
0000
2014
1016
0812
7BFF
1808
15EA
3D4A
3BFE
7FFC
354C
314C
335D
3233
30E3
3181
ENDCHAR
STARTCHAR char33093
ENCODING 35975
SWIDTH 640 0
DWIDTH 16 0
BBX 16 16 0 -1
BITMAP
0400
0E82
38FE
6882
27FE
34FE
1C82
74FE
0E82
1AB2
6696
0E8C
3A8C
62BC
0EE7
0CC3
ENDCHAR
STARTCHAR char33094
ENCODING 36038
SWIDTH 640 0
DWIDTH 16 0
BBX 16 16 0 -1
BITMAP
0000
7C8C
4CCC
4C48
7DFF
4DFF
4CC8
7CC8
4FFF
4FFF
7CC8
7CC8
2888
6D88
4708
4608
ENDCHAR
STARTCHAR char33095
ENCODING 37068
SWIDTH 640 0
DWIDTH 16 0
BBX 16 16 0 -1
BITMAP
0800
08FE
08C4
7EC4
08FC
0A7C
7EFF
08FF
0893
0A93
7EFF
0880
0B83
0F83
78FF
607E
ENDCHAR
STARTCHAR char33096
ENCODING 37229
SWIDTH 640 0
DWIDTH 16 0
BBX 16 16 0 -1
BITMAP
0000
7F30
1C30
1CFF
7F30
7F20
5F7F
5F63
7FBF
673F
4323
473F
5F23
4343
7FCF
7F8E
ENDCHAR
STARTCHAR char33097
ENCODING 37464
SWIDTH 640 0
DWIDTH 16 0
BBX 16 16 0 -1
BITMAP
0008
1048
3C48
37FE
224A
7D4A
11FE
1548
7F48
15FF
564B
744B
34CE
1C88
7188
0108
ENDCHAR
STARTCHAR char33098
ENCODING 37442
SWIDTH 640 0
DWIDTH 16 0
BBX 16 16 0 -1
BITMAP
0800
1810
1410
3690
22FF
7E93
1093
1293
7EFF
12FF
5290
74F0
3670
1E78
70CF
0303
ENDCHAR
STARTCHAR char33099
ENCODING 37480
SWIDTH 640 0
DWIDTH 16 0
BBX 16 16 0 -1
BITMAP
0800
1860
1440
32C0
20FF
7EFF
109A
1250
7E74
1256
52D2
7493
3493
1C10
7070
0070
ENDCHAR
STARTCHAR char33100
ENCODING 37481
SWIDTH 640 0
DWIDTH 16 0
BBX 16 16 0 -1
BITMAP
0000
1070
1830
3C70
2648
40CC
3CB7
1133
7C30
7CB8
56B4
75B6
3532
1F33
72F0
40E0
ENDCHAR
STARTCHAR char33101
ENCODING 37443
SWIDTH 640 0
DWIDTH 16 0
BBX 16 16 0 -1
BITMAP
0800
1860
1440
32C2
20FE
7E90
1090
1410
7FFF
1230
5238
7424
3666
1EC3
7181
0300
ENDCHAR
STARTCHAR char33102
ENCODING 37447
SWIDTH 640 0
DWIDTH 16 0
BBX 16 16 0 -1
BITMAP
0800
1860
1CC2
36FF
2280
7F10
10D0
14DE
7EF2
14D2
56D6
7CD4
34D3
1CC3
707F
003E
ENDCHAR
STARTCHAR char33103
ENCODING 38301
SWIDTH 640 0
DWIDTH 16 0
BBX 16 16 0 -1
BITMAP
0000
7E3F
4223
7E3F
4223
7E3F
40C3
4123
4213
4FEB
5003
4FF3
4223
43C3
40CF
404E
ENDCHAR
STARTCHAR char33104
ENCODING 38607
SWIDTH 640 0
DWIDTH 16 0
BBX 16 16 0 -1
BITMAP
0000
30D0
30D8
3E8A
25FF
4D88
4888
7EFE
0288
0288
7EFE
7EFE
0288
0288
7EFF
00FF
ENDCHAR
STARTCHAR char33105
ENCODING 38900
SWIDTH 640 0
DWIDTH 16 0
BBX 16 16 0 -1
BITMAP
0000
1802
7FFF
7F10
2610
2CFF
7F93
7F93
7E93
7E93
4293
7E93
4297
4296
7E10
0010
ENDCHAR
STARTCHAR char33106
ENCODING 38921
SWIDTH 640 0
DWIDTH 16 0
BBX 16 16 0 -1
BITMAP
0000
09FF
0830
08A2
28FE
2882
2EFE
2EFE
2882
28FE
2882
2E82
3CFE
70CC
0087
0101
ENDCHAR
STARTCHAR char33107
ENCODING 39083
SWIDTH 640 0
DWIDTH 16 0
BBX 16 16 0 -1
BITMAP
0008
7F88
4088
428A
5EBE
4C88
7FBF
7FBF
7F88
7F9C
7EB6
4CE3
4F40
5F21
C11D
000F
ENDCHAR
STARTCHAR char33108
ENCODING 39163
SWIDTH 640 0
DWIDTH 16 0
BBX 16 16 0 -1
BITMAP
0810
1830
1430
3268
3CC4
449B
7F30
4464
7C8E
4418
7C33
45E7
440C
4E18
7AE0
23C0
ENDCHAR
STARTCHAR char33109
ENCODING 39596
SWIDTH 640 0
DWIDTH 16 0
BBX 16 16 0 -1
BITMAP
0000
3E02
24FE
3C10
3410
FF10
C012
3FFF
3410
3C10
2410
3C10
3410
6410
4C30
4C30
ENDCHAR
STARTCHAR char33110
ENCODING 39598
SWIDTH 640 0
DWIDTH 16 0
BBX 16 16 0 -1
BITMAP
0010
3E30
2234
2E32
2A30
FFB7
C17C
3E30
3430
3C30
2410
3C18
340B
640F
4C07
4C03
ENDCHAR
STARTCHAR char33111
ENCODING 39594
SWIDTH 640 0
DWIDTH 16 0
BBX 16 16 0 -1
BITMAP
0000
3E44
227E
2E44
2A44
FFC4
C144
3E64
3254
3E54
22C4
2EC5
3AC5
2285
6F87
4F03
ENDCHAR
STARTCHAR char33112
ENCODING 39772
SWIDTH 640 0
DWIDTH 16 0
BBX 16 16 0 -1
BITMAP
0000
1810
3E10
3E10
2410
7F10
2F10
3F10
2F38
2F38
3F2C
002C
5764
5F46
CA83
0103
ENDCHAR
STARTCHAR char33113
ENCODING 20703
SWIDTH 640 0
DWIDTH 16 0
BBX 16 16 0 -1
BITMAP
0000
1A48
1248
35D6
2F7C
2F4C
675C
6FFE
204C
2FFF
222C
223C
2798
243B
29C7
3103
ENDCHAR
STARTCHAR char33114
ENCODING 22041
SWIDTH 640 0
DWIDTH 16 0
BBX 16 16 0 -1
BITMAP
0008
0208
F9FF
FEFF
CAFE
C9FE
CB9C
CE9E
CD62
C848
FBFF
F3FF
00D8
00F0
00FC
0386
ENDCHAR
STARTCHAR char33115
ENCODING 22026
SWIDTH 640 0
DWIDTH 16 0
BBX 16 16 0 -1
BITMAP
0010
0132
FB32
FB32
C9FE
CA00
CBFF
CA00
CAFC
CAFC
FAFE
FAFE
06FC
04FC
09FF
01FF
ENDCHAR
STARTCHAR char33116
ENCODING 22682
SWIDTH 640 0
DWIDTH 16 0
BBX 16 16 0 -1
BITMAP
0000
137E
3112
3252
3032
30B3
7FA3
335C
30A0
3022
37FF
3928
71A4
6322
0620
0020
ENDCHAR
STARTCHAR char33117
ENCODING 23941
SWIDTH 640 0
DWIDTH 16 0
BBX 16 16 0 -1
BITMAP
0400
0DB0
7FA2
3F3F
0864
7FE4
102C
1F38
3338
3BEE
6687
1086
3084
3084
3FFC
1FFC
ENDCHAR
STARTCHAR char33118
ENCODING 24150
SWIDTH 640 0
DWIDTH 16 0
BBX 16 16 0 -1
BITMAP
0000
13FF
1048
15FE
FF4A
D54A
D5FE
D400
D4FC
D4FC
DDFF
DDFF
10F4
11F2
1331
1030
ENDCHAR
STARTCHAR char33119
ENCODING 24145
SWIDTH 640 0
DWIDTH 16 0
BBX 16 16 0 -1
BITMAP
0000
3768
3548
2550
77DF
53DF
37F2
27E2
6FD2
6FDE
2D4C
2D4C
2DCC
2DDC
2137
2163
ENDCHAR
STARTCHAR char33120
ENCODING 24497
SWIDTH 640 0
DWIDTH 16 0
BBX 16 16 0 -1
BITMAP
0000
0802
1BFF
304A
6FFE
0F4A
0BFE
13FE
38FC
50FC
13FF
13FF
1134
1332
1230
1030
ENDCHAR
STARTCHAR char33121
ENCODING 25690
SWIDTH 640 0
DWIDTH 16 0
BBX 16 16 0 -1
BITMAP
0010
1132
10B6
14F4
7FFF
13FF
12FC
10FC
1E84
78FE
5030
1032
11FE
1030
33FF
33FF
ENDCHAR
STARTCHAR char33122
ENCODING 25699
SWIDTH 640 0
DWIDTH 16 0
BBX 16 16 0 -1
BITMAP
0000
1040
107C
13FF
7F62
13FC
1340
177E
3B7C
73FC
53FC
13FC
12FC
16FC
37FF
33FF
ENDCHAR
STARTCHAR char33123
ENCODING 26267
SWIDTH 640 0
DWIDTH 16 0
BBX 16 16 0 -1
BITMAP
0000
008C
78C8
7BFE
4820
49FE
4820
7820
4FFF
4980
49FE
4BFE
7A30
0C30
0FFF
03FF
ENDCHAR
STARTCHAR char33124
ENCODING 26275
SWIDTH 640 0
DWIDTH 16 0
BBX 16 16 0 -1
BITMAP
0000
0102
F9FE
FB00
CBFC
CCFC
CBFC
FBFC
CBDC
C9F4
CBF4
FBF5
CBF5
02DB
04CB
00C1
ENDCHAR
STARTCHAR char33125
ENCODING 26270
SWIDTH 640 0
DWIDTH 16 0
BBX 16 16 0 -1
BITMAP
0000
0060
7DFE
7DFE
4DFE
4DFE
4DFE
7DFE
4DFE
4DFE
4FFF
7FFF
40B4
01B2
0631
0430
ENDCHAR
STARTCHAR char33126
ENCODING 27064
SWIDTH 640 0
DWIDTH 16 0
BBX 16 16 0 -1
BITMAP
1100
3322
333E
332A
7F3E
7F3E
37EA
3B2A
3F3E
7308
7308
F33E
3388
3608
347F
307F
ENDCHAR
STARTCHAR char33127
ENCODING 27066
SWIDTH 640 0
DWIDTH 16 0
BBX 16 16 0 -1
BITMAP
0000
7D36
4DAC
4C22
4DFE
7C40
4FFF
4FFF
4DA4
7F27
4DFC
4CA8
4CAC
4D26
DE23
D820
ENDCHAR
STARTCHAR char33128
ENCODING 27079
SWIDTH 640 0
DWIDTH 16 0
BBX 16 16 0 -1
BITMAP
0000
1102
11FE
1180
7CFE
7C02
33FE
3BFE
3FFE
77FE
53FE
537E
13FF
1000
10C7
1303
ENDCHAR
STARTCHAR char33129
ENCODING 27095
SWIDTH 640 0
DWIDTH 16 0
BBX 16 16 0 -1
BITMAP
0020
1022
13FE
1040
7CFC
7FFC
34FC
38FC
3FFF
53FF
52FB
12FB
12FB
12FB
1207
1206
ENDCHAR
STARTCHAR char33130
ENCODING 27504
SWIDTH 640 0
DWIDTH 16 0
BBX 16 16 0 -1
BITMAP
0000
7F7F
0D13
4D13
3973
1133
3F6E
6ECC
0508
0C08
2F6F
2F4F
2C48
2F48
7FFF
71FF
ENDCHAR
STARTCHAR char33131
ENCODING 27549
SWIDTH 640 0
DWIDTH 16 0
BBX 16 16 0 -1
BITMAP
0020
0020
7DFE
31FE
21FE
3CC0
6FFF
4D9C
FBFF
1EE3
13FE
13FE
30A8
21AE
6623
4420
ENDCHAR
STARTCHAR char33132
ENCODING 28438
SWIDTH 640 0
DWIDTH 16 0
BBX 16 16 0 -1
BITMAP
0100
2308
1368
07D8
03DF
6FFF
3132
0332
07D2
0D94
31EC
23CC
6F0C
411C
4337
0363
ENDCHAR
STARTCHAR char33133
ENCODING 28452
SWIDTH 640 0
DWIDTH 16 0
BBX 16 16 0 -1
BITMAP
0004
210C
110C
0FDF
018C
03DE
672D
354C
01C8
08C8
17FF
3198
21D0
61F8
41CE
0703
ENDCHAR
STARTCHAR char33134
ENCODING 28485
SWIDTH 640 0
DWIDTH 16 0
BBX 16 16 0 -1
BITMAP
0000
2180
13FE
03FE
04C2
67FF
30B0
0112
03FE
1732
13FE
3332
23FE
6330
43FF
03FF
ENDCHAR
STARTCHAR char33135
ENCODING 29049
SWIDTH 640 0
DWIDTH 16 0
BBX 16 16 0 -1
BITMAP
1048
30C8
33FE
37FE
FFFE
F8C8
73FF
7132
31FE
3132
31FE
3932
23FF
6102
410E
010C
ENDCHAR
STARTCHAR char33136
ENCODING 29050
SWIDTH 640 0
DWIDTH 16 0
BBX 16 16 0 -1
BITMAP
1000
3242
317E
3042
FC7E
F7C2
717E
73FE
33D3
30CC
39C6
3D53
2361
4780
44FF
007E
ENDCHAR
STARTCHAR char33137
ENCODING 29268
SWIDTH 640 0
DWIDTH 16 0
BBX 16 16 0 -1
BITMAP
0420
4C2C
4FFF
4FFF
4FFE
4FFE
7F22
43FE
7F26
7F2C
4FFF
4FFF
4C8C
CCCC
CC3C
0C38
ENDCHAR
STARTCHAR char33138
ENCODING 30076
SWIDTH 640 0
DWIDTH 16 0
BBX 16 16 0 -1
BITMAP
0000
04FE
FE84
D4FC
D484
D4FC
FC84
FFFF
D4C0
D5FF
D72F
D64F
FC9A
0332
00EE
008C
ENDCHAR
STARTCHAR char33139
ENCODING 30075
SWIDTH 640 0
DWIDTH 16 0
BBX 16 16 0 -1
BITMAP
0010
0134
FCF8
FC24
D5FE
D440
D7FF
FFFF
D5A4
D523
D7FC
D5FC
FC20
FC20
07FF
07FF
ENDCHAR
STARTCHAR char33140
ENCODING 30226
SWIDTH 640 0
DWIDTH 16 0
BBX 16 16 0 -1
BITMAP
0000
00C0
1FFF
1FFF
53FF
77FE
37FF
17FF
73FE
5222
13FE
13FE
3222
37FF
2020
4020
ENDCHAR
STARTCHAR char33141
ENCODING 30390
SWIDTH 640 0
DWIDTH 16 0
BBX 16 16 0 -1
BITMAP
0800
0810
7F10
7FFF
1ED2
3BD4
69D0
7EFF
22C3
3EE2
22F6
3EF4
239C
2F9C
79B7
01C3
ENDCHAR
STARTCHAR char33142
ENCODING 30432
SWIDTH 640 0
DWIDTH 16 0
BBX 16 16 0 -1
BITMAP
0200
0200
07E0
07E0
3FFE
3FFE
3FE0
1FE0
2FDC
7CCE
0182
3FFC
3224
3224
7FFF
7FFF
ENDCHAR
STARTCHAR char33143
ENCODING 30579
SWIDTH 640 0
DWIDTH 16 0
BBX 16 16 0 -1
BITMAP
0020
4020
7FFF
4FFF
4CE8
7DAC
4FFF
4EFB
7C20
7FFE
4C20
4C24
7DFE
7C20
03FF
03FF
ENDCHAR
STARTCHAR char33144
ENCODING 30578
SWIDTH 640 0
DWIDTH 16 0
BBX 16 16 0 -1
BITMAP
0000
4002
7FFE
4F02
4FFE
7F02
4DFE
4D10
4DB0
7DFE
4E30
4C34
7DFE
7C30
43FF
03FF
ENDCHAR
STARTCHAR char33145
ENCODING 30576
SWIDTH 640 0
DWIDTH 16 0
BBX 16 16 0 -1
BITMAP
0084
408C
7FCF
4FCF
4CAC
7C20
4C62
4FFF
7C40
7CC2
4CFE
4DC2
7EC2
7CC2
00FE
00FE
ENDCHAR
STARTCHAR char33146
ENCODING 30877
SWIDTH 640 0
DWIDTH 16 0
BBX 16 16 0 -1
BITMAP
0000
01FF
7C30
3022
33FE
3352
2352
3F52
6F56
6C10
2FFF
2FFF
2C3C
2C46
3C83
3F01
ENDCHAR
STARTCHAR char33147
ENCODING 31271
SWIDTH 640 0
DWIDTH 16 0
BBX 16 16 0 -1
BITMAP
0080
1C80
73FF
138F
13EF
7FEF
13FB
3B9E
3CA4
7420
53FF
53FF
1058
10CC
1186
1703
ENDCHAR
STARTCHAR char33148
ENCODING 31285
SWIDTH 640 0
DWIDTH 16 0
BBX 16 16 0 -1
BITMAP
0000
1E8C
70C8
1000
11FF
7E8C
1088
397A
3F52
73DC
5094
508C
11CA
1153
13DF
1001
ENDCHAR
STARTCHAR char33149
ENCODING 31650
SWIDTH 640 0
DWIDTH 16 0
BBX 16 16 0 -1
BITMAP
0020
1120
3FFF
38D0
6518
2180
3FFF
7FFF
4F7E
1FFC
33CC
7ACC
0EFB
0CC3
387F
603E
ENDCHAR
STARTCHAR char33150
ENCODING 31625
SWIDTH 640 0
DWIDTH 16 0
BBX 16 16 0 -1
BITMAP
0020
1120
3FBF
3458
668C
1084
10FE
7E84
10FC
12FC
7CFE
70FE
1062
1042
319E
370C
ENDCHAR
STARTCHAR char33152
ENCODING 20008
SWIDTH 640 0
DWIDTH 16 0
BBX 16 16 0 -1
BITMAP
0080
0080
0080
0080
0080
0080
0080
0080
0080
0080
0080
0080
0080
0080
0080
0080
ENDCHAR
STARTCHAR char33153
ENCODING 19973
SWIDTH 640 0
DWIDTH 16 0
BBX 16 16 0 -1
BITMAP
0000
0002
7FFF
0100
0100
0100
0100
0100
0100
0100
0100
0100
0100
0100
0100
0100
ENDCHAR
STARTCHAR char33154
ENCODING 19972
SWIDTH 640 0
DWIDTH 16 0
BBX 16 16 0 -1
BITMAP
0080
0080
0080
0080
0080
0080
0080
0080
0080
0080
0080
0080
0080
0080
7FFF
7FFF
ENDCHAR
STARTCHAR char33155
ENCODING 20010
SWIDTH 640 0
DWIDTH 16 0
BBX 16 16 0 -1
BITMAP
0080
0080
01C0
0360
0630
0D98
190C
3107
4102
0100
0100
0100
0100
0100
0100
0100
ENDCHAR
STARTCHAR char33156
ENCODING 20103
SWIDTH 640 0
DWIDTH 16 0
BBX 16 16 0 -1
BITMAP
0800
0800
0800
1002
3FFF
30C0
20C0
40C0
00C0
00C0
00C0
00C0
00C0
00C0
03C0
0380
ENDCHAR
STARTCHAR char33157
ENCODING 20041
SWIDTH 640 0
DWIDTH 16 0
BBX 16 16 0 -1
BITMAP
0000
0100
1084
18C4
080C
0808
0C18
0410
0630
0260
01C0
01C0
0360
0438
380F
7003
ENDCHAR
STARTCHAR char33158
ENCODING 20962
SWIDTH 640 0
DWIDTH 16 0
BBX 16 16 0 -1
BITMAP
0000
0180
0300
0200
0FF0
0C30
0C30
0C30
0C30
0C30
0C30
0C33
0833
1033
201F
400E
ENDCHAR
STARTCHAR char33159
ENCODING 20038
SWIDTH 640 0
DWIDTH 16 0
BBX 16 16 0 -1
BITMAP
0000
0010
0C30
0C30
0C20
0820
1860
11C0
3EE0
00A0
01B0
0318
060C
1C06
7003
4000
ENDCHAR
STARTCHAR char33160
ENCODING 20111
SWIDTH 640 0
DWIDTH 16 0
BBX 16 16 0 -1
BITMAP
0000
0004
3FFE
0000
0002
7FFF
0400
0400
0FFC
0FFC
000C
000C
0008
0018
07F0
00E0
ENDCHAR
STARTCHAR char33161
ENCODING 20156
SWIDTH 640 0
DWIDTH 16 0
BBX 16 16 0 -1
BITMAP
0000
0080
0080
0180
03C0
0340
0260
0430
0818
100C
2007
4002
0000
0006
3FFE
0000
ENDCHAR
STARTCHAR char33162
ENCODING 20158
SWIDTH 640 0
DWIDTH 16 0
BBX 16 16 0 -1
BITMAP
0000
0040
60C0
40C0
40C0
40C0
40C0
41E0
4120
4330
4618
4C0E
5006
4000
7FFF
3FFE
ENDCHAR
STARTCHAR char33163
ENCODING 20838
SWIDTH 640 0
DWIDTH 16 0
BBX 16 16 0 -1
BITMAP
0000
0000
61C0
40C0
40C0
40C0
40E0
4120
4330
4310
4618
4C0C
5806
4000
7FFF
3FFE
ENDCHAR
STARTCHAR char33164
ENCODING 20963
SWIDTH 640 0
DWIDTH 16 0
BBX 16 16 0 -1
BITMAP
0080
0080
0080
0480
07F0
0430
0430
0430
0430
0430
0C30
0C33
0833
1833
301F
600E
ENDCHAR
STARTCHAR char33165
ENCODING 20996
SWIDTH 640 0
DWIDTH 16 0
BBX 16 16 0 -1
BITMAP
0000
0000
1FFC
010C
010C
010C
110C
090C
070C
030C
038C
04EC
0C3F
180F
30F8
0030
ENDCHAR
STARTCHAR char33166
ENCODING 21148
SWIDTH 640 0
DWIDTH 16 0
BBX 16 16 0 -1
BITMAP
0800
0840
0840
0840
3F40
3F40
0940
0940
1940
1140
1140
3143
3143
2343
6E7F
403E
ENDCHAR
STARTCHAR char33167
ENCODING 21316
SWIDTH 640 0
DWIDTH 16 0
BBX 16 16 0 -1
BITMAP
0410
0C30
0C30
0C30
0C30
0C30
0C30
0C32
7FFF
0C30
0C30
0C30
0C30
0C30
0C30
0C30
ENDCHAR
STARTCHAR char33168
ENCODING 24401
SWIDTH 640 0
DWIDTH 16 0
BBX 16 16 0 -1
BITMAP
0200
0200
0200
0200
03F0
07F0
0410
0410
0C30
0C30
0FE0
0020
0020
0020
7FFF
7FFF
ENDCHAR
STARTCHAR char33169
ENCODING 38429
SWIDTH 640 0
DWIDTH 16 0
BBX 16 16 0 -1
BITMAP
0000
07E0
0460
0440
04C0
0480
0480
0440
0420
0430
0430
0430
05E0
0440
0400
0400
ENDCHAR
STARTCHAR char33170
ENCODING 20067
SWIDTH 640 0
DWIDTH 16 0
BBX 16 16 0 -1
BITMAP
0000
0840
0840
1840
1140
3340
2240
4640
7C40
0C40
0A40
1340
23C3
7FC3
40FF
003E
ENDCHAR
STARTCHAR char33171
ENCODING 20066
SWIDTH 640 0
DWIDTH 16 0
BBX 16 16 0 -1
BITMAP
0040
18C0
10C0
10C0
10C0
52C0
52C0
52C0
52C0
52C0
52C0
52C0
52C3
7EC3
027F
003E
ENDCHAR
STARTCHAR char33172
ENCODING 20131
SWIDTH 640 0
DWIDTH 16 0
BBX 16 16 0 -1
BITMAP
0000
0100
0182
7FFF
0430
0430
0430
0430
0430
0430
0430
0C30
0830
1830
3030
6030
ENDCHAR
STARTCHAR char33173
ENCODING 20869
SWIDTH 640 0
DWIDTH 16 0
BBX 16 16 0 -1
BITMAP
0080
0080
0080
2082
3FFE
2082
2182
2142
2362
2232
2612
2C1A
300A
2002
201E
200C
ENDCHAR
STARTCHAR char33174
ENCODING 20165
SWIDTH 640 0
DWIDTH 16 0
BBX 16 16 0 -1
BITMAP
0000
0800
0800
13FE
3304
3304
310C
718C
3088
30D0
3070
3020
3070
30D8
338F
3603
ENDCHAR
STARTCHAR char33175
ENCODING 20175
SWIDTH 640 0
DWIDTH 16 0
BBX 16 16 0 -1
BITMAP
0000
0C20
0C20
0860
1840
1040
30C0
50C0
1080
1188
1104
1302
121F
17FF
1201
1000
ENDCHAR
STARTCHAR char33176
ENCODING 20174
SWIDTH 640 0
DWIDTH 16 0
BBX 16 16 0 -1
BITMAP
0820
0820
0820
0820
0820
0820
0820
0820
0C20
1E70
1250
33D8
2088
618C
4307
0603
ENDCHAR
STARTCHAR char33177
ENCODING 20172
SWIDTH 640 0
DWIDTH 16 0
BBX 16 16 0 -1
BITMAP
0000
0100
0100
0180
03C0
0660
0C38
380F
6182
0100
0100
0180
0240
0430
381F
7007
ENDCHAR
STARTCHAR char33178
ENCODING 20868
SWIDTH 640 0
DWIDTH 16 0
BBX 16 16 0 -1
BITMAP
0000
1008
1FF8
1008
1008
7FFF
1008
1008
1008
7FFF
1008
1008
1008
1008
1078
1030
ENDCHAR
STARTCHAR char33179
ENCODING 20870
SWIDTH 640 0
DWIDTH 16 0
BBX 16 16 0 -1
BITMAP
0000
0004
3FFE
3084
3084
3084
3084
3084
3FFC
3004
3004
3004
3004
3004
303C
300C
ENDCHAR
STARTCHAR char33180
ENCODING 20964
SWIDTH 640 0
DWIDTH 16 0
BBX 16 16 0 -1
BITMAP
0000
3FFC
300C
300C
3FEC
3FEC
342C
344C
36CC
32CC
218C
2185
2245
4C3B
5813
C001
ENDCHAR
STARTCHAR char33181
ENCODING 20997
SWIDTH 640 0
DWIDTH 16 0
BBX 16 16 0 -1
BITMAP
0000
0008
3FF8
0308
0308
0308
1B0C
0F0A
0609
0608
0408
0C08
0818
1010
21E0
40C0
ENDCHAR
STARTCHAR char33182
ENCODING 21150
SWIDTH 640 0
DWIDTH 16 0
BBX 16 16 0 -1
BITMAP
0100
0300
0300
0300
3FF8
3FF8
0308
0B08
1A0E
120B
2609
0408
0C08
1808
31F8
6030
ENDCHAR
STARTCHAR char33183
ENCODING 21149
SWIDTH 640 0
DWIDTH 16 0
BBX 16 16 0 -1
BITMAP
0020
0220
7E20
6220
22FF
32FF
1623
1C23
0C23
0C63
0C43
1C43
36C2
6382
031E
060C
ENDCHAR
STARTCHAR char33184
ENCODING 21245
SWIDTH 640 0
DWIDTH 16 0
BBX 16 16 0 -1
BITMAP
0000
0800
0800
1FFF
1103
3303
2303
4303
0303
0383
0683
04C3
0872
1032
607E
001C
ENDCHAR
STARTCHAR char33185
ENCODING 31653
SWIDTH 640 0
DWIDTH 16 0
BBX 16 16 0 -1
BITMAP
0020
1120
3FFF
28D8
450C
2020
1BFE
03FE
7224
3224
03FE
168C
34D8
7C70
6BDF
1F0F
ENDCHAR
STARTCHAR char33186
ENCODING 31926
SWIDTH 640 0
DWIDTH 16 0
BBX 16 16 0 -1
BITMAP
0000
1040
547C
54FC
7C88
10F8
7C10
7DFF
5132
5CB6
5438
D478
D0B6
1333
1071
1060
ENDCHAR
STARTCHAR char33187
ENCODING 32165
SWIDTH 640 0
DWIDTH 16 0
BBX 16 16 0 -1
BITMAP
0000
19FE
3132
3132
6DFE
4932
79FE
11FE
2C02
7DFF
E44C
044C
56CC
6ACC
298C
070C
ENDCHAR
STARTCHAR char33188
ENCODING 32195
SWIDTH 640 0
DWIDTH 16 0
BBX 16 16 0 -1
BITMAP
0000
18C6
30C4
30C4
2CEA
4D13
7A01
1018
24B0
5EB2
62BE
0CB0
16F0
4930
6B1F
020F
ENDCHAR
STARTCHAR char33189
ENCODING 32683
SWIDTH 640 0
DWIDTH 16 0
BBX 16 16 0 -1
BITMAP
0000
2220
3610
06FF
7FAF
092E
3E6C
3E4C
0887
0A02
7EFE
1010
1010
3010
21FF
41FF
ENDCHAR
STARTCHAR char33190
ENCODING 32805
SWIDTH 640 0
DWIDTH 16 0
BBX 16 16 0 -1
BITMAP
0000
1110
1C93
7CD2
1052
7E90
10FF
1283
7EBF
18BF
34AF
32AF
70BF
5083
1087
1086
ENDCHAR
STARTCHAR char33191
ENCODING 32857
SWIDTH 640 0
DWIDTH 16 0
BBX 16 16 0 -1
BITMAP
0010
7E32
2DFE
2C34
3DFE
3C30
2FFF
2C84
3CFE
2C84
2CFC
3C84
ECFC
0C84
0D8C
0D0C
ENDCHAR
STARTCHAR char33192
ENCODING 33157
SWIDTH 640 0
DWIDTH 16 0
BBX 16 16 0 -1
BITMAP
0000
7C20
4FFF
4FFF
4FFE
7FFE
5FFF
4FFF
5FFE
7FFE
4F30
4FFE
4F82
4F82
DEFE
DCFE
ENDCHAR
STARTCHAR char33193
ENCODING 33166
SWIDTH 640 0
DWIDTH 16 0
BBX 16 16 0 -1
BITMAP
0000
3E1C
25E2
2726
2520
3C48
2DF8
25F0
2C8E
35FF
3420
27FF
6428
444E
5C83
DF01
ENDCHAR
STARTCHAR char33194
ENCODING 33982
SWIDTH 640 0
DWIDTH 16 0
BBX 16 16 0 -1
BITMAP
0410
0C30
7F7F
7F7F
0000
2024
1126
08AC
7BFF
13FF
3CAC
39A6
1A23
3020
7FFF
0FFF
ENDCHAR
STARTCHAR char33195
ENCODING 33958
SWIDTH 640 0
DWIDTH 16 0
BBX 16 16 0 -1
BITMAP
0410
0C30
7F7F
0CB0
08C0
1FFE
30C0
7FFC
1FFC
1FFE
1FFE
0008
1FF8
0670
0FFF
7F3F
ENDCHAR
STARTCHAR char33196
ENCODING 34607
SWIDTH 640 0
DWIDTH 16 0
BBX 16 16 0 -1
BITMAP
0000
1030
11FF
11FF
FCFE
FCFE
D5FF
D5FF
D4B4
FD37
12FC
1C30
1CFE
3EFE
E030
0030
ENDCHAR
STARTCHAR char33197
ENCODING 35232
SWIDTH 640 0
DWIDTH 16 0
BBX 16 16 0 -1
BITMAP
0000
02FE
7EC2
12C2
7FFE
7FC2
7EC2
7EFE
30C2
3FFE
733A
7338
3328
334B
3F8F
030F
ENDCHAR
STARTCHAR char33198
ENCODING 35479
SWIDTH 640 0
DWIDTH 16 0
BBX 16 16 0 -1
BITMAP
0001
2063
33CB
338B
7C8B
0BEB
788B
09CB
79EB
03BB
FA8B
FC8B
C88B
C883
F88F
008E
ENDCHAR
STARTCHAR char33199
ENCODING 35979
SWIDTH 640 0
DWIDTH 16 0
BBX 16 16 0 -1
BITMAP
0000
06FE
3882
3A82
6EFE
3C82
38FE
6C00
0CFE
16FE
6E10
5BFF
3210
6210
1E10
0C10
ENDCHAR
STARTCHAR char33200
ENCODING 36623
SWIDTH 640 0
DWIDTH 16 0
BBX 16 16 0 -1
BITMAP
0000
1002
7FFF
7E28
11FF
FFFF
D52B
FD2B
D56F
D5CF
FD83
137F
7F03
1103
11FF
1103
ENDCHAR
STARTCHAR char33201
ENCODING 37493
SWIDTH 640 0
DWIDTH 16 0
BBX 16 16 0 -1
BITMAP
0810
1830
1430
3230
20FE
44FE
3EB2
08B2
7EB2
7EB2
4AFE
6E34
2C32
0A36
7CF9
71E1
ENDCHAR
STARTCHAR char33202
ENCODING 37535
SWIDTH 640 0
DWIDTH 16 0
BBX 16 16 0 -1
BITMAP
0010
11B2
3D32
3732
2332
41FE
3C32
1030
7DFF
7DFF
1533
7533
3133
1737
7932
7030
ENDCHAR
STARTCHAR char33203
ENCODING 38310
SWIDTH 640 0
DWIDTH 16 0
BBX 16 16 0 -1
BITMAP
0000
7E3F
4223
7E3F
4223
7E3F
4083
4183
4263
4433
4A13
4633
4633
4F7B
588F
4006
ENDCHAR
STARTCHAR char33204
ENCODING 38554
SWIDTH 640 0
DWIDTH 16 0
BBX 16 16 0 -1
BITMAP
0020
7C24
4D26
4EAC
4BFF
57FF
55FE
49FC
4D0C
45FC
4520
5C24
4BFE
4020
43FF
43FF
ENDCHAR
STARTCHAR char33205
ENCODING 38743
SWIDTH 640 0
DWIDTH 16 0
BBX 16 16 0 -1
BITMAP
0800
0810
7E12
7E92
7ED6
0854
7F50
22FF
3E28
2228
3E28
2228
3E6B
224B
6E8F
4F06
ENDCHAR
STARTCHAR char33206
ENCODING 38903
SWIDTH 640 0
DWIDTH 16 0
BBX 16 16 0 -1
BITMAP
0000
1810
7F52
7FD2
26D2
24D2
7FD2
7FFE
7E12
7E91
4293
7E93
4293
4293
7EFF
7EFF
ENDCHAR
STARTCHAR char33207
ENCODING 39088
SWIDTH 640 0
DWIDTH 16 0
BBX 16 16 0 -1
BITMAP
0000
7F9C
4096
4292
5EFF
4CB6
7FB4
7FB4
7FBC
7FAC
7ECC
4CD2
4F61
5F21
C11F
000F
ENDCHAR
STARTCHAR char33208
ENCODING 39366
SWIDTH 640 0
DWIDTH 16 0
BBX 16 16 0 -1
BITMAP
0000
7E02
48FF
4AC6
7EC4
48E4
7EDC
7EDC
48C8
7FDC
43D4
5FF2
7FE2
F3C0
1E7F
0C3E
ENDCHAR
STARTCHAR char33209
ENCODING 20730
SWIDTH 640 0
DWIDTH 16 0
BBX 16 16 0 -1
BITMAP
0000
19F8
1108
3108
31F8
379E
34F2
74F2
379E
3020
37FF
37FF
31AC
3322
3420
3020
ENDCHAR
STARTCHAR char33210
ENCODING 21125
SWIDTH 640 0
DWIDTH 16 0
BBX 16 16 0 -1
BITMAP
0001
3FC3
2AC3
2AD3
3FD3
3F93
3FD3
7FD3
3F53
3F53
3F53
3F53
0E43
7FC3
078F
010E
ENDCHAR
STARTCHAR char33211
ENCODING 22083
SWIDTH 640 0
DWIDTH 16 0
BBX 16 16 0 -1
BITMAP
0004
003E
FFE4
F9AC
C8AA
CBFF
C8FC
C9A6
CB21
CBFE
FB24
FB24
03FC
0324
03FC
03FC
ENDCHAR
STARTCHAR char33212
ENCODING 22076
SWIDTH 640 0
DWIDTH 16 0
BBX 16 16 0 -1
BITMAP
0000
7F7E
4342
7F7E
4040
3FFE
3FFC
3FFC
3FFC
3FFE
7FFF
0000
3FFC
300C
3FFC
3FFC
ENDCHAR
STARTCHAR char33213
ENCODING 23533
SWIDTH 640 0
DWIDTH 16 0
BBX 16 16 0 -1
BITMAP
0000
0180
3FFF
7FFF
7FFE
3FFE
3FFC
3084
3FFC
3FFC
00F8
3FFE
0582
2CCA
6FF9
47F8
ENDCHAR
STARTCHAR char33214
ENCODING 23605
SWIDTH 640 0
DWIDTH 16 0
BBX 16 16 0 -1
BITMAP
0010
10B2
10FE
12B2
7EFE
15FF
1CFC
1CFC
1CFC
1C84
3CFC
3CFC
2C78
6DCF
4FFF
47FF
ENDCHAR
STARTCHAR char33215
ENCODING 24391
SWIDTH 640 0
DWIDTH 16 0
BBX 16 16 0 -1
BITMAP
0020
7824
09FE
0824
0BFF
79FE
42AA
42AA
7BAE
3B2E
0BFE
0BFE
0BAE
0BAE
7EAA
34AA
ENDCHAR
STARTCHAR char33216
ENCODING 24941
SWIDTH 640 0
DWIDTH 16 0
BBX 16 16 0 -1
BITMAP
0400
0D1C
7F96
2D12
3EFF
7F90
0C38
1E24
2D66
4C43
0400
0C84
3CCA
6C0B
E7F9
43F0
ENDCHAR
STARTCHAR char33217
ENCODING 27125
SWIDTH 640 0
DWIDTH 16 0
BBX 16 16 0 -1
BITMAP
0020
1022
13FE
1322
7FFE
7FFE
33FE
3BFE
3622
53FE
52A0
12E2
12B3
1685
1CFF
107C
ENDCHAR
STARTCHAR char33218
ENCODING 27139
SWIDTH 640 0
DWIDTH 16 0
BBX 16 16 0 -1
BITMAP
1100
319F
33D3
33D3
7E53
7FDF
3253
3A53
3FDF
73DF
F213
F293
32D3
33F3
3327
3026
ENDCHAR
STARTCHAR char33219
ENCODING 27237
SWIDTH 640 0
DWIDTH 16 0
BBX 16 16 0 -1
BITMAP
0020
2420
16FF
0CFC
35FF
05FF
1FFC
76FC
24C4
3CFC
0082
7FFF
04B0
1CBC
7087
4082
ENDCHAR
STARTCHAR char33220
ENCODING 27509
SWIDTH 640 0
DWIDTH 16 0
BBX 16 16 0 -1
BITMAP
0010
1030
11FF
1032
71FE
5030
5FFF
5DFE
51FE
51FE
51FE
55FE
79FE
70FC
0187
0703
ENDCHAR
STARTCHAR char33221
ENCODING 28502
SWIDTH 640 0
DWIDTH 16 0
BBX 16 16 0 -1
BITMAP
0000
27DF
110C
090E
07DE
614C
37BF
0F3F
03FC
0A24
1BFC
13FC
2200
6203
43FF
01FE
ENDCHAR
STARTCHAR char33222
ENCODING 28568
SWIDTH 640 0
DWIDTH 16 0
BBX 16 16 0 -1
BITMAP
0004
210C
13DF
0BDF
07FE
05FE
65EF
356F
0104
0BFE
1304
1304
33FC
6304
63FC
03FC
ENDCHAR
STARTCHAR char33223
ENCODING 28520
SWIDTH 640 0
DWIDTH 16 0
BBX 16 16 0 -1
BITMAP
0040
30C0
1BFC
03FC
02F4
62F4
3FFF
0FFF
03FC
0BE4
132C
332C
232C
64BA
4833
0020
ENDCHAR
STARTCHAR char33224
ENCODING 29236
SWIDTH 640 0
DWIDTH 16 0
BBX 16 16 0 -1
BITMAP
0000
FF86
C2BC
C7BA
FFAA
FFAA
FDAA
FFAA
EEAA
FAAA
E7AA
FFAB
EBAB
C0CB
FFC9
00C9
ENDCHAR
STARTCHAR char33225
ENCODING 29253
SWIDTH 640 0
DWIDTH 16 0
BBX 16 16 0 -1
BITMAP
0800
6820
4BFF
4BFF
4BFE
7BFF
4B32
0BFE
7BFC
7BFE
2BFE
2BFE
2AFE
4AFE
4BBE
093C
ENDCHAR
STARTCHAR char33226
ENCODING 29532
SWIDTH 640 0
DWIDTH 16 0
BBX 16 16 0 -1
BITMAP
0010
4CB6
28F8
33FF
38B8
69BE
0F33
0D84
1DCC
3DFE
6F7C
0FFC
0DBF
0D8C
3B0C
360C
ENDCHAR
STARTCHAR char33227
ENCODING 29526
SWIDTH 640 0
DWIDTH 16 0
BBX 16 16 0 -1
BITMAP
0020
4C24
3BFE
11A8
3BFF
6BFF
09FC
0BFC
1BFC
3BFC
6BFC
0BFC
0BFC
09FC
7986
7703
ENDCHAR
STARTCHAR char33228
ENCODING 30911
SWIDTH 640 0
DWIDTH 16 0
BBX 16 16 0 -1
BITMAP
0000
03FF
7F03
33FF
3300
3352
2376
7F12
6FFE
EFF2
2FDA
2FCE
2FFA
3EC2
228E
050C
ENDCHAR
STARTCHAR char33229
ENCODING 30909
SWIDTH 640 0
DWIDTH 16 0
BBX 16 16 0 -1
BITMAP
0000
0402
7FFE
3030
33FF
33FF
21FE
3D02
6DFE
6D02
2DFE
2D02
2DFE
2C4C
3D86
0303
ENDCHAR
STARTCHAR char33230
ENCODING 30948
SWIDTH 640 0
DWIDTH 16 0
BBX 16 16 0 -1
BITMAP
0000
0BFE
7B34
33F4
3274
33F4
2267
7A43
6BDE
EA5E
2BF2
2A4C
2A4C
2ECC
3D9F
0473
ENDCHAR
STARTCHAR char33231
ENCODING 31284
SWIDTH 640 0
DWIDTH 16 0
BBX 16 16 0 -1
BITMAP
0000
1C8C
7048
11FF
1050
7DFE
1054
3BFF
3C54
75FE
50D0
50D8
11D6
1353
1250
1050
ENDCHAR
STARTCHAR char33232
ENCODING 31286
SWIDTH 640 0
DWIDTH 16 0
BBX 16 16 0 -1
BITMAP
0010
1C3C
7034
13FF
1030
7C3C
13F8
3BDE
3EF4
32FF
73DA
505F
13AD
131D
1037
1043
ENDCHAR
STARTCHAR char33233
ENCODING 31674
SWIDTH 640 0
DWIDTH 16 0
BBX 16 16 0 -1
BITMAP
0020
1122
3FFF
2DD8
4488
7FFE
0100
3FFC
0200
7FFF
0FF0
1FFC
6FF7
4FF2
0FF0
0FF0
ENDCHAR
STARTCHAR char33234
ENCODING 31676
SWIDTH 640 0
DWIDTH 16 0
BBX 16 16 0 -1
BITMAP
0020
1122
3FFF
6CD8
3FFC
3FFC
3FFC
3FFC
2FFC
2FFC
2FFC
2FFC
2FFC
4FFC
7FFF
3FFF
ENDCHAR
STARTCHAR char33235
ENCODING 31688
SWIDTH 640 0
DWIDTH 16 0
BBX 16 16 0 -1
BITMAP
1020
3122
3FFF
4CD8
0508
0C04
3F04
3F04
7FFF
7F44
0C24
0D34
7F94
0D84
7E3C
783C
ENDCHAR
STARTCHAR char33236
ENCODING 31683
SWIDTH 640 0
DWIDTH 16 0
BBX 16 16 0 -1
BITMAP
0020
1122
3FFF
6CD8
0408
3FFE
30C2
3FFE
37F8
3FFC
3FFC
3FFC
2FFC
6FFC
4FFC
0FFC
ENDCHAR
STARTCHAR char33237
ENCODING 31670
SWIDTH 640 0
DWIDTH 16 0
BBX 16 16 0 -1
BITMAP
0020
1122
3FFF
24D8
470C
0840
087F
7FE3
085F
0847
7F4F
7F7F
4343
4343
7F8F
3F0E
ENDCHAR
STARTCHAR char33238
ENCODING 31682
SWIDTH 640 0
DWIDTH 16 0
BBX 16 16 0 -1
BITMAP
0000
1042
3FFF
69B0
0010
1FF8
1FF8
1FF8
1FF8
0480
0FFC
1FFC
3FFC
0FFC
7FFF
7FFF
ENDCHAR
STARTCHAR char33239
ENCODING 31685
SWIDTH 640 0
DWIDTH 16 0
BBX 16 16 0 -1
BITMAP
0020
1062
3FFF
6D98
148C
308C
308C
3FFC
0002
7FFF
0200
3FFE
2224
2224
222C
200C
ENDCHAR
STARTCHAR char33240
ENCODING 31677
SWIDTH 640 0
DWIDTH 16 0
BBX 16 16 0 -1
BITMAP
0020
1122
3FFF
6CC8
0538
1FF0
7FFF
7FFF
3FFC
308C
3FFC
3FFC
3FFC
3FFC
7FFF
7FFF
ENDCHAR
STARTCHAR char33241
ENCODING 31664
SWIDTH 640 0
DWIDTH 16 0
BBX 16 16 0 -1
BITMAP
0020
1122
3FFF
7ED8
1FFE
3FFE
6FF2
0FF2
0FFE
0FEC
1FF0
00C0
7FFF
7FFF
0380
0300
ENDCHAR
STARTCHAR char33242
ENCODING 31675
SWIDTH 640 0
DWIDTH 16 0
BBX 16 16 0 -1
BITMAP
0020
1122
3FFF
6CD8
0508
1840
33FC
704C
1FFF
33FC
7040
37FE
3042
3FFF
3040
3040
ENDCHAR
STARTCHAR char33243
ENCODING 32260
SWIDTH 640 0
DWIDTH 16 0
BBX 16 16 0 -1
BITMAP
0000
31FE
3132
21FE
6D32
59FE
7132
3832
2FFE
5F32
67FE
2B32
77FE
5033
701F
000E
ENDCHAR
STARTCHAR char33244
ENCODING 33265
SWIDTH 640 0
DWIDTH 16 0
BBX 16 16 0 -1
BITMAP
0000
1100
1FFC
1FFC
100C
1FFC
1FFC
2FF8
3FFF
44C2
797C
7FFE
03F8
07FC
1878
7030
ENDCHAR
STARTCHAR char33245
ENCODING 34082
SWIDTH 640 0
DWIDTH 16 0
BBX 16 16 0 -1
BITMAP
0410
0C30
7F7F
0C30
33FF
13FF
63FE
33FC
1A78
747C
2394
0232
7FFF
0640
03F8
1F1C
ENDCHAR
STARTCHAR char33246
ENCODING 34104
SWIDTH 640 0
DWIDTH 16 0
BBX 16 16 0 -1
BITMAP
0410
0C30
7F7F
7F7F
0180
5D22
67FE
4422
47E2
5C22
77FE
0240
02C3
04C3
18FF
707F
ENDCHAR
STARTCHAR char33247
ENCODING 34098
SWIDTH 640 0
DWIDTH 16 0
BBX 16 16 0 -1
BITMAP
0410
0C30
7F7F
0DB0
3FFF
3FFE
4064
3E44
00FE
7FCC
34C8
3430
342C
35C7
27FF
43FF
ENDCHAR
STARTCHAR char33248
ENCODING 34064
SWIDTH 640 0
DWIDTH 16 0
BBX 16 16 0 -1
BITMAP
0410
0C30
7F7F
7F7F
0182
7FFF
0C30
2422
3FFE
2FFA
2082
27F2
2432
27F2
240E
200C
ENDCHAR
STARTCHAR char33249
ENCODING 34127
SWIDTH 640 0
DWIDTH 16 0
BBX 16 16 0 -1
BITMAP
0400
0C10
7F7F
0C10
0020
262A
19FE
382C
4FFF
0FFF
1CFC
37FC
44FC
04FC
3CFC
38FC
ENDCHAR
STARTCHAR char33250
ENCODING 34684
SWIDTH 640 0
DWIDTH 16 0
BBX 16 16 0 -1
BITMAP
0010
10B6
1074
1030
7DFF
7C76
54B3
5530
5424
7E2C
51FF
144C
1CC8
3EF8
E0EC
01C2
ENDCHAR
STARTCHAR char33251
ENCODING 35085
SWIDTH 640 0
DWIDTH 16 0
BBX 16 16 0 -1
BITMAP
0010
21B2
1132
0932
79FE
1800
1DFF
3DFF
3820
7FFF
374B
334B
334B
334B
334B
3302
ENDCHAR
STARTCHAR char33252
ENCODING 35080
SWIDTH 640 0
DWIDTH 16 0
BBX 16 16 0 -1
BITMAP
0000
201E
11F0
0832
7BFF
1932
15FE
3D32
39FE
7DFE
35FE
31FC
33FE
33FE
33FF
33FF
ENDCHAR
STARTCHAR char33253
ENCODING 36254
SWIDTH 640 0
DWIDTH 16 0
BBX 16 16 0 -1
BITMAP
0800
0824
082C
0A7E
7E2C
082C
7FFF
7F00
287E
2A42
2F7E
6842
587E
487E
C7FF
C3FF
ENDCHAR
STARTCHAR char33254
ENCODING 36648
SWIDTH 640 0
DWIDTH 16 0
BBX 16 16 0 -1
BITMAP
0020
1030
7EFF
7FFF
1102
7EFE
5284
7E84
52FC
52FC
7EFE
10FE
7E82
7E82
10FE
10FE
ENDCHAR
STARTCHAR char33255
ENCODING 36641
SWIDTH 640 0
DWIDTH 16 0
BBX 16 16 0 -1
BITMAP
0000
1042
7E7E
7E46
10C4
FEC4
D288
FE20
D3EF
D38F
FF03
11EF
7F03
7F03
11FF
11FF
ENDCHAR
STARTCHAR char33256
ENCODING 36966
SWIDTH 640 0
DWIDTH 16 0
BBX 16 16 0 -1
BITMAP
0000
20FE
10B4
17FF
0124
79FC
10FC
31FC
3DFC
0D04
09FC
19FC
30DC
7B86
CFFF
03FF
ENDCHAR
STARTCHAR char33257
ENCODING 36972
SWIDTH 640 0
DWIDTH 16 0
BBX 16 16 0 -1
BITMAP
0000
2108
1108
17F0
011F
7FDB
154A
3D48
3FC8
09C8
0B7C
1732
3523
7943
CFFF
03FF
ENDCHAR
STARTCHAR char33258
ENCODING 37110
SWIDTH 640 0
DWIDTH 16 0
BBX 16 16 0 -1
BITMAP
0000
1844
3F7E
3F44
227C
363C
34FE
7FFE
00D2
22D2
3EFE
22C0
22C3
22C3
3E7F
003E
ENDCHAR
STARTCHAR char33259
ENCODING 37612
SWIDTH 640 0
DWIDTH 16 0
BBX 16 16 0 -1
BITMAP
0800
08FF
7E80
7EFE
0EC2
7DB4
493C
0B66
3FC0
0770
7FFF
63E2
3FFC
3FFC
7FFF
7FFF
ENDCHAR
STARTCHAR char33260
ENCODING 37562
SWIDTH 640 0
DWIDTH 16 0
BBX 16 16 0 -1
BITMAP
1210
3230
3232
3FFF
0230
7E30
32FE
32FE
23C0
0778
7FFF
73F2
3FFC
3FFC
7FFF
7FFF
ENDCHAR
STARTCHAR char33261
ENCODING 37603
SWIDTH 640 0
DWIDTH 16 0
BBX 16 16 0 -1
BITMAP
0000
13EF
394B
3D4B
254A
434E
3FFC
15FA
7ECB
10CB
5CCB
7D4B
3A4B
1C4A
60C8
00C8
ENDCHAR
STARTCHAR char33262
ENCODING 37565
SWIDTH 640 0
DWIDTH 16 0
BBX 16 16 0 -1
BITMAP
0800
190E
15F8
3708
23FF
45FF
3F0D
113D
7FE7
7E03
52FE
76FE
3082
1682
78FE
60FE
ENDCHAR
STARTCHAR char33263
ENCODING 38324
SWIDTH 640 0
DWIDTH 16 0
BBX 16 16 0 -1
BITMAP
0000
7E3F
4223
7E3F
4223
7E3F
4003
4FF3
4FF3
4FF3
4FF3
4FF3
4FF3
47E3
4E17
4806
ENDCHAR
STARTCHAR char33264
ENCODING 38865
SWIDTH 640 0
DWIDTH 16 0
BBX 16 16 0 -1
BITMAP
0020
1020
13FC
5624
55FF
34FC
7E84
7EFE
3C10
3DFE
3C90
3DFF
2C10
6C10
4FFF
47FF
ENDCHAR
STARTCHAR char33265
ENCODING 38947
SWIDTH 640 0
DWIDTH 16 0
BBX 16 16 0 -1
BITMAP
0000
4200
7EFF
4810
48FE
4AFE
7EFE
42FE
42FE
7EFE
48C2
48FE
4862
4A46
7F83
0101
ENDCHAR
STARTCHAR char33266
ENCODING 39179
SWIDTH 640 0
DWIDTH 16 0
BBX 16 16 0 -1
BITMAP
0080
0C98
05A0
3FFC
0202
7FFF
08DC
33E7
4FFC
3BCE
5FF2
1FF0
1FFC
1FFC
1F1C
0C0E
ENDCHAR
STARTCHAR char33267
ENCODING 39602
SWIDTH 640 0
DWIDTH 16 0
BBX 16 16 0 -1
BITMAP
0000
3E60
2440
3C7F
34C3
FF83
C3FB
3CFB
34CB
3CFB
24C2
2CCE
3CC4
24C3
6C7F
4C3E
ENDCHAR
STARTCHAR char33268
ENCODING 39643
SWIDTH 640 0
DWIDTH 16 0
BBX 16 16 0 -1
BITMAP
0000
1802
7FFE
7FC2
3CFE
3CFE
3CD8
3CD4
7FFE
7FD4
7FD4
7FD4
7FF5
7FE5
47A7
4703
ENDCHAR
STARTCHAR char33269
ENCODING 39795
SWIDTH 640 0
DWIDTH 16 0
BBX 16 16 0 -1
BITMAP
1000
3002
3DFF
3C10
2810
7EFF
4A93
7E93
4A93
4A93
7E93
0293
7E93
7F97
D492
0010
ENDCHAR
STARTCHAR char33270
ENCODING 39790
SWIDTH 640 0
DWIDTH 16 0
BBX 16 16 0 -1
BITMAP
0008
3108
3D08
3D08
6D08
7F2A
55EE
7D08
5508
5508
7D08
0108
7D0B
7F6B
D1CF
0006
ENDCHAR
STARTCHAR char33271
ENCODING 39781
SWIDTH 640 0
DWIDTH 16 0
BBX 16 16 0 -1
BITMAP
0000
31FE
3C44
3C44
684C
7E4C
4A7F
7E7F
4AC2
4AE6
7EF4
0CDC
7E88
7D1C
D367
02C3
ENDCHAR
STARTCHAR char33272
ENCODING 39786
SWIDTH 640 0
DWIDTH 16 0
BBX 16 16 0 -1
BITMAP
0010
3030
3C30
3C68
684C
7EC6
52C7
7FCC
52CC
52CC
7ECC
00CC
7ECC
7F8C
D58C
030C
ENDCHAR
STARTCHAR char33273
ENCODING 39789
SWIDTH 640 0
DWIDTH 16 0
BBX 16 16 0 -1
BITMAP
0000
3006
3CFE
3C00
6800
7E00
52FF
7EFF
5228
5228
7E28
0048
7ECB
7FCB
D58F
030F
ENDCHAR
STARTCHAR char33274
ENCODING 40203
SWIDTH 640 0
DWIDTH 16 0
BBX 16 16 0 -1
BITMAP
0000
2030
10FC
7EFC
30FC
30FC
3CFC
3CFC
34FF
34FF
34FF
34FF
25FF
4553
5F4E
080C
ENDCHAR
STARTCHAR char33275
ENCODING 40566
SWIDTH 640 0
DWIDTH 16 0
BBX 16 16 0 -1
BITMAP
0800
0810
0F10
0F38
082C
7FE6
537F
7DBF
5500
6F02
7D7E
5706
6B04
4D0C
7F08
7F10
ENDCHAR
STARTCHAR char33276
ENCODING 40721
SWIDTH 640 0
DWIDTH 16 0
BBX 16 16 0 -1
BITMAP
0080
0090
00F8
07F0
2FF2
2FF2
2FF2
2FF2
27F2
2242
3E7E
7E7E
1242
3242
2242
4242
ENDCHAR
STARTCHAR char33277
ENCODING 20761
SWIDTH 640 0
DWIDTH 16 0
BBX 16 16 0 -1
BITMAP
0000
1C12
16FE
32D2
307E
3EFF
7200
76FE
3FFE
33FE
32FE
32FE
36FE
367E
39FF
30FF
ENDCHAR
STARTCHAR char33278
ENCODING 22133
SWIDTH 640 0
DWIDTH 16 0
BBX 16 16 0 -1
BITMAP
0008
2098
13FF
7BFF
13FC
3FFC
0FFC
1BFC
39FC
6FFF
0000
1FFC
100C
100C
1FFC
1FFC
ENDCHAR
STARTCHAR char33344
ENCODING 22895
SWIDTH 640 0
DWIDTH 16 0
BBX 16 16 0 -1
BITMAP
0080
0180
7FFF
7FFF
1C9F
74FF
0480
1FFC
1FFE
3FFE
3FA4
36BC
3A98
333B
7CEF
5187
ENDCHAR
STARTCHAR char33345
ENCODING 24997
SWIDTH 640 0
DWIDTH 16 0
BBX 16 16 0 -1
BITMAP
0400
2D16
1E7C
1E38
71C6
3FFF
6302
1FFC
020C
0C8C
7078
6494
3C4A
6C0B
47F9
03F0
ENDCHAR
STARTCHAR char33346
ENCODING 24992
SWIDTH 640 0
DWIDTH 16 0
BBX 16 16 0 -1
BITMAP
0002
3FFF
2930
2D30
3FBF
3AAB
32CA
329C
3F94
2432
2842
2E84
6CD2
5C53
77F8
03F0
ENDCHAR
STARTCHAR char33347
ENCODING 26036
SWIDTH 640 0
DWIDTH 16 0
BBX 16 16 0 -1
BITMAP
0400
4D86
3F38
0CB0
7FB0
3F30
2DBF
2DBF
33B4
3FB4
5D34
7534
37A4
2164
6144
4104
ENDCHAR
STARTCHAR char33348
ENCODING 26072
SWIDTH 640 0
DWIDTH 16 0
BBX 16 16 0 -1
BITMAP
0008
2188
33EC
7FEA
2368
2148
3FFF
3C08
2FEA
2FEE
2FEC
6FEC
4BED
4BF7
F823
D041
ENDCHAR
STARTCHAR char33349
ENCODING 26306
SWIDTH 640 0
DWIDTH 16 0
BBX 16 16 0 -1
BITMAP
0048
00C8
FBFF
FBFF
C8F8
C878
CBFF
F802
CBFE
CB22
CBFE
FB22
CBFE
0018
01C6
0703
ENDCHAR
STARTCHAR char33350
ENCODING 27560
SWIDTH 640 0
DWIDTH 16 0
BBX 16 16 0 -1
BITMAP
0010
0534
7FFE
3134
21FE
3C30
6FFF
4DFC
E9FC
39FC
11FC
11FC
31FC
20FC
6186
4703
ENDCHAR
STARTCHAR char33351
ENCODING 28547
SWIDTH 640 0
DWIDTH 16 0
BBX 16 16 0 -1
BITMAP
0000
0DFF
18FC
74FE
0EFE
1AFE
66FE
0CFC
3387
0382
3C8C
3CB0
08E0
10B8
6387
0302
ENDCHAR
STARTCHAR char33352
ENCODING 28613
SWIDTH 640 0
DWIDTH 16 0
BBX 16 16 0 -1
BITMAP
0040
2460
17FF
05FA
03FE
63FE
31FC
07FF
05FE
13FC
133C
3024
33FE
608C
61FF
0F8F
ENDCHAR
STARTCHAR char33353
ENCODING 29133
SWIDTH 640 0
DWIDTH 16 0
BBX 16 16 0 -1
BITMAP
1240
32C3
32DE
37F8
3AD0
FAD0
73DF
32D2
33D2
33D2
32D2
37F2
3912
4BF2
4262
0442
ENDCHAR
STARTCHAR char33354
ENCODING 29340
SWIDTH 640 0
DWIDTH 16 0
BBX 16 16 0 -1
BITMAP
0000
1108
7188
57F0
7B9F
FBFF
D3F2
13B2
1BD6
33DC
718C
116C
178C
1516
1323
1343
ENDCHAR
STARTCHAR char33355
ENCODING 29849
SWIDTH 640 0
DWIDTH 16 0
BBX 16 16 0 -1
BITMAP
0000
0840
7FFF
33FF
328A
318C
7BFF
7FFF
31FC
31FC
3DFC
38F8
6128
032C
06E6
00C0
ENDCHAR
STARTCHAR char33356
ENCODING 30265
SWIDTH 640 0
DWIDTH 16 0
BBX 16 16 0 -1
BITMAP
0000
0060
1FFF
1FFF
5318
76B0
34FF
1FBF
7243
5F93
129B
1A8B
3F83
3283
2F1E
4C04
ENDCHAR
STARTCHAR char33357
ENCODING 30254
SWIDTH 640 0
DWIDTH 16 0
BBX 16 16 0 -1
BITMAP
0000
00C0
1FFF
1FFF
119C
57FE
730A
171A
7FDF
5060
13FC
3ECF
3378
21EE
66F8
4FC0
ENDCHAR
STARTCHAR char33358
ENCODING 30367
SWIDTH 640 0
DWIDTH 16 0
BBX 16 16 0 -1
BITMAP
0010
1832
33FE
7034
7DFE
4FFF
4C00
4DFE
7DFC
4DFC
4DFC
4DFC
7DFC
7CFC
0186
0303
ENDCHAR
STARTCHAR char33359
ENCODING 30368
SWIDTH 640 0
DWIDTH 16 0
BBX 16 16 0 -1
BITMAP
0010
19B2
3132
7132
7DFE
4CA0
4D92
4DFF
7F30
4DFE
4D30
4D32
7DFE
7D30
01FF
0100
ENDCHAR
STARTCHAR char33360
ENCODING 30612
SWIDTH 640 0
DWIDTH 16 0
BBX 16 16 0 -1
BITMAP
0020
4020
7DFE
4DFE
4DFE
7C22
4FFF
4DFC
7DFC
7DFC
4DFC
4DFC
7DFC
7CFC
0186
0703
ENDCHAR
STARTCHAR char33361
ENCODING 30638
SWIDTH 640 0
DWIDTH 16 0
BBX 16 16 0 -1
BITMAP
0008
0988
FFE8
CBE8
CA4F
FFFF
CA33
CA53
FBFA
FBCE
CACC
CACC
FBCC
FE4E
04DB
04F3
ENDCHAR
STARTCHAR char33362
ENCODING 30950
SWIDTH 640 0
DWIDTH 16 0
BBX 16 16 0 -1
BITMAP
0000
0002
7DFF
3128
31FF
312B
21FF
7DFF
6CFC
6CFC
2FFF
2FFF
2CB4
2DB2
3F30
0030
ENDCHAR
STARTCHAR char33363
ENCODING 31420
SWIDTH 640 0
DWIDTH 16 0
BBX 16 16 0 -1
BITMAP
0000
2080
3FFF
4446
7C7E
7C88
1998
1998
0FFC
1FFC
1FFC
1FFC
7FFF
7FFF
7C9F
7087
ENDCHAR
STARTCHAR char33364
ENCODING 31702
SWIDTH 640 0
DWIDTH 16 0
BBX 16 16 0 -1
BITMAP
1020
3122
3FFF
4CD8
0508
3FFE
20C0
2FFC
3FFF
3FFF
2FFC
2FFC
2FFC
4FFC
4FFC
0FFC
ENDCHAR
STARTCHAR char33365
ENCODING 31951
SWIDTH 640 0
DWIDTH 16 0
BBX 16 16 0 -1
BITMAP
1000
33FE
F702
F7FE
7B00
3352
7F76
7F10
7BFF
7FE3
77DB
77C7
F3FB
32F3
328F
310E
ENDCHAR
STARTCHAR char33366
ENCODING 32280
SWIDTH 640 0
DWIDTH 16 0
BBX 16 16 0 -1
BITMAP
0008
183C
31C2
3726
2760
4CC8
78F8
10F0
24FE
5DFF
7530
01FF
1420
5A4C
6886
0303
ENDCHAR
STARTCHAR char33367
ENCODING 32877
SWIDTH 640 0
DWIDTH 16 0
BBX 16 16 0 -1
BITMAP
0000
7F20
2420
25FE
3D32
3D32
25FE
2532
3DFE
25FC
2456
3C5E
74DE
04DF
049F
050F
ENDCHAR
STARTCHAR char33368
ENCODING 33168
SWIDTH 640 0
DWIDTH 16 0
BBX 16 16 0 -1
BITMAP
0000
0840
7FFF
129C
1EF2
32CE
32F4
4C73
0080
3FFE
3364
36B4
3094
31E4
3E3C
380C
ENDCHAR
STARTCHAR char33369
ENCODING 34130
SWIDTH 640 0
DWIDTH 16 0
BBX 16 16 0 -1
BITMAP
0410
0C30
7F7F
0C30
3FFE
3FFE
3FFE
3FFC
1FFC
1FFC
1FFC
1FFC
1FFC
1FFC
3C1E
700F
ENDCHAR
STARTCHAR char33370
ENCODING 34128
SWIDTH 640 0
DWIDTH 16 0
BBX 16 16 0 -1
BITMAP
0400
0C10
7F7F
0C10
7FFF
7FFF
1D1C
7776
0908
1D1C
2766
7FFF
0100
7FFE
0100
0100
ENDCHAR
STARTCHAR char33371
ENCODING 34720
SWIDTH 640 0
DWIDTH 16 0
BBX 16 16 0 -1
BITMAP
0000
1086
10CC
1048
7DFF
7DFF
546C
54C6
5583
7E82
50FE
14AA
1CAA
3EAA
63FF
03FF
ENDCHAR
STARTCHAR char33372
ENCODING 34694
SWIDTH 640 0
DWIDTH 16 0
BBX 16 16 0 -1
BITMAP
0000
1086
1048
1002
7FFF
7CCC
5488
55AB
557B
7FDE
51D4
14C4
1CCE
3F6B
61FF
0001
ENDCHAR
STARTCHAR char33373
ENCODING 34709
SWIDTH 640 0
DWIDTH 16 0
BBX 16 16 0 -1
BITMAP
0010
1030
11FE
11FE
7D7A
7D3A
5542
55FE
5408
7F08
51EE
15EE
1D08
3F0B
61EF
00CF
ENDCHAR
STARTCHAR char33374
ENCODING 34912
SWIDTH 640 0
DWIDTH 16 0
BBX 16 16 0 -1
BITMAP
0000
190F
37E0
27E0
57E0
17E0
37FF
3422
77E2
3422
37E2
3432
3FFA
3342
362E
3C3C
ENDCHAR
STARTCHAR char33375
ENCODING 35112
SWIDTH 640 0
DWIDTH 16 0
BBX 16 16 0 -1
BITMAP
0000
208C
1048
01FE
7C20
0C24
0DFE
1C22
3BFF
7CC0
34FE
30FE
31B0
3330
37FF
31FF
ENDCHAR
STARTCHAR char33376
ENCODING 35104
SWIDTH 640 0
DWIDTH 16 0
BBX 16 16 0 -1
BITMAP
0048
20C8
13FF
03FF
79FE
19FE
13FF
3D32
39FE
7D32
35FE
3132
37FF
3102
310E
310C
ENDCHAR
STARTCHAR char33377
ENCODING 35240
SWIDTH 640 0
DWIDTH 16 0
BBX 16 16 0 -1
BITMAP
0000
FFFE
DDC2
DDC2
FFFE
77C2
3EFE
3EFE
7FC2
7FFE
3E3A
1E38
0228
024B
1E8F
0F0F
ENDCHAR
STARTCHAR char33378
ENCODING 36410
SWIDTH 640 0
DWIDTH 16 0
BBX 16 16 0 -1
BITMAP
0000
7810
4F3C
4F3C
4D7F
7F7F
533C
13BC
7C90
5FFE
5310
537F
5710
5F90
E67F
043E
ENDCHAR
STARTCHAR char33379
ENCODING 37268
SWIDTH 640 0
DWIDTH 16 0
BBX 16 16 0 -1
BITMAP
0000
0E90
78D3
7F5C
1C50
3E38
6864
08C0
7FFF
0340
3FFC
364C
383C
37FC
3FFC
3FFC
ENDCHAR
STARTCHAR char33380
ENCODING 37649
SWIDTH 640 0
DWIDTH 16 0
BBX 16 16 0 -1
BITMAP
0000
108E
1CF8
3682
22FE
4082
3CFE
10FE
7C94
7D92
577F
7518
3138
176C
7A47
6483
ENDCHAR
STARTCHAR char33381
ENCODING 37687
SWIDTH 640 0
DWIDTH 16 0
BBX 16 16 0 -1
BITMAP
0044
10CC
39FC
3DFC
24CC
4BFC
7BFC
33FC
7FFC
33FC
7CCC
78CC
7FFF
3CCF
60C7
00C2
ENDCHAR
STARTCHAR char33382
ENCODING 37699
SWIDTH 640 0
DWIDTH 16 0
BBX 16 16 0 -1
BITMAP
0000
10C0
3CFF
36FF
23AB
415B
3CD3
10B3
7D3E
7C0C
54D0
75DA
31CB
1FC5
70FD
407C
ENDCHAR
STARTCHAR char33383
ENCODING 38566
SWIDTH 640 0
DWIDTH 16 0
BBX 16 16 0 -1
BITMAP
0000
7A08
4BCC
52FF
52F2
72F6
73D4
523F
5A0C
4BEC
4A5E
5E5E
564C
4FCC
4A0C
400C
ENDCHAR
STARTCHAR char33384
ENCODING 38805
SWIDTH 640 0
DWIDTH 16 0
BBX 16 16 0 -1
BITMAP
2400
2C02
7FFF
7F90
2CFF
3C93
7EFF
7EFF
52FF
7EFF
5010
1270
7F30
1038
10CF
1183
ENDCHAR
STARTCHAR char33385
ENCODING 38806
SWIDTH 640 0
DWIDTH 16 0
BBX 16 16 0 -1
BITMAP
2404
2C1E
7EE3
7E83
2C92
3CD4
7E20
7E24
52FF
7FFF
50C8
12D8
7E70
1038
10E4
1182
ENDCHAR
STARTCHAR char33386
ENCODING 38949
SWIDTH 640 0
DWIDTH 16 0
BBX 16 16 0 -1
BITMAP
0000
5FBF
5208
5232
523E
5FA2
50BE
50BE
50BE
5FBE
5222
523E
5232
5FB2
4023
0041
ENDCHAR
STARTCHAR char33387
ENCODING 39206
SWIDTH 640 0
DWIDTH 16 0
BBX 16 16 0 -1
BITMAP
0800
1806
14FE
32C4
3CFE
44C4
7EFE
44C2
7DFF
44A6
7CAE
40B8
4498
4E8C
7AE7
20C3
ENDCHAR
STARTCHAR char33388
ENCODING 39220
SWIDTH 640 0
DWIDTH 16 0
BBX 16 16 0 -1
BITMAP
0800
1830
14FF
32FF
3C5C
44F6
7EFF
457C
7C74
44FC
7DFF
49FF
44CC
4E8C
7B8C
210C
ENDCHAR
STARTCHAR char33389
ENCODING 39818
SWIDTH 640 0
DWIDTH 16 0
BBX 16 16 0 -1
BITMAP
0000
3018
3C30
3C30
68FE
7EFE
4A82
7E82
4A82
4AFE
7E82
0082
7E82
5F82
D4FE
00FE
ENDCHAR
STARTCHAR char33390
ENCODING 39807
SWIDTH 640 0
DWIDTH 16 0
BBX 16 16 0 -1
BITMAP
0010
3030
3C30
3C28
686C
7EC6
52FB
7E00
52FE
52FE
7E04
000C
7E08
7F30
D418
000C
ENDCHAR
STARTCHAR char33391
ENCODING 40209
SWIDTH 640 0
DWIDTH 16 0
BBX 16 16 0 -1
BITMAP
0000
0A04
7FFE
FF24
362C
3C18
3F6C
7FF7
1FF0
1FF0
1FF0
1FFC
1FFE
2FFE
25BE
400C
ENDCHAR
STARTCHAR char33392
ENCODING 40665
SWIDTH 640 0
DWIDTH 16 0
BBX 16 16 0 -1
BITMAP
0000
7F94
4916
6B10
7F7F
4D7F
7F18
081C
7F36
7F22
7F63
7FC0
0000
3222
2233
4233
ENDCHAR
STARTCHAR char33393
ENCODING 40764
SWIDTH 640 0
DWIDTH 16 0
BBX 16 16 0 -1
BITMAP
0802
0802
3F22
3F22
3F22
3F22
3F22
7FA2
7F22
7F22
7F26
7FBE
1232
3202
2202
4202
ENDCHAR
STARTCHAR char33394
ENCODING 20771
SWIDTH 640 0
DWIDTH 16 0
BBX 16 16 0 -1
BITMAP
0040
1860
17FF
1448
35FF
35FF
3478
75FF
34FC
35FC
35FC
35FC
3DFC
3CFC
39C6
3703
ENDCHAR
STARTCHAR char33395
ENCODING 20780
SWIDTH 640 0
DWIDTH 16 0
BBX 16 16 0 -1
BITMAP
0100
1B00
17FF
37F3
37BF
37B3
7FFF
7FFF
3FF3
3CF3
3FFF
3FCC
3CDC
3CD5
3DE7
39C3
ENDCHAR
STARTCHAR char33396
ENCODING 21141
SWIDTH 640 0
DWIDTH 16 0
BBX 16 16 0 -1
BITMAP
0001
4C63
738B
7FEB
4BCB
4ACB
FF8B
3FCB
3FCB
3FCB
3FCB
3FCB
3FC3
1F83
38CF
604E
ENDCHAR
STARTCHAR char33397
ENCODING 22152
SWIDTH 640 0
DWIDTH 16 0
BBX 16 16 0 -1
BITMAP
0002
07FF
F404
F7EC
D7EE
D7EF
D7EF
D5CF
D7EC
D7EC
F7AC
F7AE
0FEA
0FBA
0A73
0413
ENDCHAR
STARTCHAR char33398
ENCODING 22155
SWIDTH 640 0
DWIDTH 16 0
BBX 16 16 0 -1
BITMAP
0020
0024
FBFE
F9FC
CBFF
CBFF
C9FA
C824
CBFE
CFFF
F80C
FBFF
02FC
02DC
038C
0008
ENDCHAR
STARTCHAR char33399
ENCODING 25057
SWIDTH 640 0
DWIDTH 16 0
BBX 16 16 0 -1
BITMAP
1000
3060
37FF
37FF
77CF
7FCF
FFDE
37FE
3683
3460
34CC
35F0
34A0
3C44
39FE
3000
ENDCHAR
STARTCHAR char33400
ENCODING 25047
SWIDTH 640 0
DWIDTH 16 0
BBX 16 16 0 -1
BITMAP
1108
3308
3308
37BF
7308
7B08
FFFF
3294
36B4
3EF6
3EB7
3AD7
3AF5
34B4
3FBC
3B4C
ENDCHAR
STARTCHAR char33401
ENCODING 26019
SWIDTH 640 0
DWIDTH 16 0
BBX 16 16 0 -1
BITMAP
0004
7F8C
550C
552C
7F1C
300C
3FCC
7FAC
7E8C
3E8C
3EFF
3EFC
0E8C
7F8C
238C
030C
ENDCHAR
STARTCHAR char33402
ENCODING 26323
SWIDTH 640 0
DWIDTH 16 0
BBX 16 16 0 -1
BITMAP
0000
1FFC
1FFC
1FFC
1FF8
1080
1FFC
3084
1FFC
7FFF
0D18
3FFF
6232
0C9E
17E4
0080
ENDCHAR
STARTCHAR char33403
ENCODING 27275
SWIDTH 640 0
DWIDTH 16 0
BBX 16 16 0 -1
BITMAP
1000
3090
33FE
33FE
7FFF
33FF
39AC
3D26
37FB
75FC
F3FC
33FC
33FC
3020
37FF
3020
ENDCHAR
STARTCHAR char33404
ENCODING 27564
SWIDTH 640 0
DWIDTH 16 0
BBX 16 16 0 -1
BITMAP
0000
05FF
7F4B
31FF
2130
3C32
6DFE
4C30
2FFF
3844
19FE
1030
33FF
3030
2030
4030
ENDCHAR
STARTCHAR char33405
ENCODING 29556
SWIDTH 640 0
DWIDTH 16 0
BBX 16 16 0 -1
BITMAP
0000
4C88
3BFE
1088
3BFF
6B02
0EFC
0FFF
1C62
3DE6
4E78
0DF0
0E7C
0CD7
3B70
3070
ENDCHAR
STARTCHAR char33406
ENCODING 30272
SWIDTH 640 0
DWIDTH 16 0
BBX 16 16 0 -1
BITMAP
0000
0040
1FFF
1FFF
D7FE
57FE
70F0
10F0
7FFF
53FC
13FC
13FC
33FC
33FC
239E
4E03
ENDCHAR
STARTCHAR char33408
ENCODING 21248
SWIDTH 640 0
DWIDTH 16 0
BBX 16 16 0 -1
BITMAP
0000
0800
0800
1FFF
1003
3003
2703
41C3
0063
0003
01F3
1FC3
1803
0002
007E
001C
ENDCHAR
STARTCHAR char33409
ENCODING 21306
SWIDTH 640 0
DWIDTH 16 0
BBX 16 16 0 -1
BITMAP
0000
0002
7FFF
2010
2818
2E10
2330
21E0
20C0
20E0
2190
2308
2C00
3000
1FFF
0FFE
ENDCHAR
STARTCHAR char33410
ENCODING 21318
SWIDTH 640 0
DWIDTH 16 0
BBX 16 16 0 -1
BITMAP
0200
0200
3FE0
3FE0
0220
0423
0C23
183F
611E
4100
7FFF
7FFF
0100
0100
0100
0100
ENDCHAR
STARTCHAR char33411
ENCODING 21341
SWIDTH 640 0
DWIDTH 16 0
BBX 16 16 0 -1
BITMAP
0010
0430
0430
0430
0430
0430
0432
7C3F
0430
0430
0430
0430
0430
0430
0430
0430
ENDCHAR
STARTCHAR char33412
ENCODING 21382
SWIDTH 640 0
DWIDTH 16 0
BBX 16 16 0 -1
BITMAP
0000
2002
3FFF
2040
20C0
20C0
2FFE
2FFE
2082
2182
2102
2102
2302
6604
4C7C
4018
ENDCHAR
STARTCHAR char33413
ENCODING 21431
SWIDTH 640 0
DWIDTH 16 0
BBX 16 16 0 -1
BITMAP
0000
0100
0100
0302
7FFF
0300
0200
0640
0440
04C0
0C80
0988
1B04
121E
27E1
4001
ENDCHAR
STARTCHAR char33414
ENCODING 21452
SWIDTH 640 0
DWIDTH 16 0
BBX 16 16 0 -1
BITMAP
0000
0002
7FFE
6282
22C6
32C4
164C
1C4C
0C68
0C38
0C30
1630
2278
41CC
0707
0402
ENDCHAR
STARTCHAR char33415
ENCODING 21454
SWIDTH 640 0
DWIDTH 16 0
BBX 16 16 0 -1
BITMAP
0000
0402
65FE
4482
4482
44C4
44C4
44C4
444C
442C
4C38
7C10
4438
046C
04C7
0583
ENDCHAR
STARTCHAR char33416
ENCODING 22305
SWIDTH 640 0
DWIDTH 16 0
BBX 16 16 0 -1
BITMAP
0000
0080
0080
0080
0080
0080
0084
3FFE
0080
0090
0098
008C
0080
0082
7FFF
0000
ENDCHAR
STARTCHAR char33417
ENCODING 24064
SWIDTH 640 0
DWIDTH 16 0
BBX 16 16 0 -1
BITMAP
0000
0002
7FFF
0080
0080
3FFE
2084
2084
2084
2084
2084
2084
20BC
20BC
2080
0080
ENDCHAR
STARTCHAR char33418
ENCODING 24332
SWIDTH 640 0
DWIDTH 16 0
BBX 16 16 0 -1
BITMAP
0000
0048
0044
0040
7FFF
7FFF
0040
0020
0020
01A0
7FB0
0031
0011
0009
0007
0003
ENDCHAR
STARTCHAR char33419
ENCODING 25143
SWIDTH 640 0
DWIDTH 16 0
BBX 16 16 0 -1
BITMAP
0000
0100
0080
00C0
1FFC
1FFC
1004
1004
1FFC
1FFC
1000
3000
3000
2000
6000
4000
ENDCHAR
STARTCHAR char33420
ENCODING 25144
SWIDTH 640 0
DWIDTH 16 0
BBX 16 16 0 -1
BITMAP
0000
0006
1FFE
0000
0000
1FFE
1004
1004
1FFC
1FFC
1000
3000
3000
2000
6000
4000
ENDCHAR
STARTCHAR char33421
ENCODING 25909
SWIDTH 640 0
DWIDTH 16 0
BBX 16 16 0 -1
BITMAP
0200
0200
0600
0406
0FFE
0810
1830
1C30
2420
0240
03C0
01C0
0340
0630
381F
7007
ENDCHAR
STARTCHAR char33422
ENCODING 29581
SWIDTH 640 0
DWIDTH 16 0
BBX 16 16 0 -1
BITMAP
0800
0800
0800
1FFE
10C0
30C0
20C0
40C0
0FFC
0FFC
00C0
00C0
00C0
00C0
7FFF
7FFF
ENDCHAR
STARTCHAR char33423
ENCODING 20119
SWIDTH 640 0
DWIDTH 16 0
BBX 16 16 0 -1
BITMAP
0080
2082
2082
2082
2082
2082
3FFE
0000
0000
0008
3FFC
0000
0000
0000
7FFF
7FFF
ENDCHAR
STARTCHAR char33424
ENCODING 20192
SWIDTH 640 0
DWIDTH 16 0
BBX 16 16 0 -1
BITMAP
0000
0C06
0DFE
0830
1830
1030
3032
37FF
5030
1030
1030
1030
1030
1030
1030
1030
ENDCHAR
STARTCHAR char33425
ENCODING 20199
SWIDTH 640 0
DWIDTH 16 0
BBX 16 16 0 -1
BITMAP
0000
0100
0104
01FE
0100
0100
0100
0102
7FFF
0100
0100
0180
0340
0630
1C1F
7007
ENDCHAR
STARTCHAR char33426
ENCODING 20198
SWIDTH 640 0
DWIDTH 16 0
BBX 16 16 0 -1
BITMAP
0020
0820
0820
1020
1020
31A0
3124
7326
3322
3223
3621
3421
3020
3020
30E0
30C0
ENDCHAR
STARTCHAR char33427
ENCODING 22232
SWIDTH 640 0
DWIDTH 16 0
BBX 16 16 0 -1
BITMAP
0000
2002
3FFE
2002
2FF2
2FF2
2C32
2C32
2FF2
2C02
2C12
2C1A
27FA
23F2
203E
200C
ENDCHAR
STARTCHAR char33428
ENCODING 20875
SWIDTH 640 0
DWIDTH 16 0
BBX 16 16 0 -1
BITMAP
0000
3FFE
2002
2002
2002
27E2
2422
2422
2422
2422
27E2
27E2
2002
2002
203E
200C
ENDCHAR
STARTCHAR char33429
ENCODING 20876
SWIDTH 640 0
DWIDTH 16 0
BBX 16 16 0 -1
BITMAP
0000
3F7E
3344
3344
3344
3344
3344
3344
7FFF
3344
3344
3344
3344
3344
374C
364C
ENDCHAR
STARTCHAR char33430
ENCODING 20889
SWIDTH 640 0
DWIDTH 16 0
BBX 16 16 0 -1
BITMAP
0000
2000
3FFF
6406
4C04
0FFC
0800
1800
1FF8
1FF8
000A
7FFF
0008
0018
01F0
0060
ENDCHAR
STARTCHAR char33431
ENCODING 20965
SWIDTH 640 0
DWIDTH 16 0
BBX 16 16 0 -1
BITMAP
0000
3FFE
3004
3004
3FFC
3FFC
3000
37F0
3430
3430
3430
3430
2433
6C33
481F
500E
ENDCHAR
STARTCHAR char33432
ENCODING 21003
SWIDTH 640 0
DWIDTH 16 0
BBX 16 16 0 -1
BITMAP
0001
0183
3E1B
3C13
0413
0413
0453
7FF3
0413
0413
0C13
0C13
0813
1003
201F
4006
ENDCHAR
STARTCHAR char33433
ENCODING 21252
SWIDTH 640 0
DWIDTH 16 0
BBX 16 16 0 -1
BITMAP
0800
0800
0FFE
1FFE
1002
3182
3FFA
4FFA
0C02
0C02
0C02
0FF2
07E2
0004
007C
0018
ENDCHAR
STARTCHAR char33434
ENCODING 21251
SWIDTH 640 0
DWIDTH 16 0
BBX 16 16 0 -1
BITMAP
0800
0800
1800
1FFE
3082
3082
2082
5102
13C2
1662
1022
1FFA
0FF2
0006
001C
0008
ENDCHAR
STARTCHAR char33435
ENCODING 21255
SWIDTH 640 0
DWIDTH 16 0
BBX 16 16 0 -1
BITMAP
0000
0800
0800
1FFE
1002
3312
23FA
4612
0C32
1B22
21E2
00C2
0382
0704
387C
2018
ENDCHAR
STARTCHAR char33436
ENCODING 21278
SWIDTH 640 0
DWIDTH 16 0
BBX 16 16 0 -1
BITMAP
0000
4002
7FFF
4000
4FF8
4FF8
40C0
40C0
40C0
40C0
40C0
40C4
5FFE
4000
7FFF
3FFF
ENDCHAR
STARTCHAR char33437
ENCODING 21343
SWIDTH 640 0
DWIDTH 16 0
BBX 16 16 0 -1
BITMAP
0020
0020
0020
7E20
4220
4220
4230
4228
4224
4222
7E20
7E20
4020
0020
0020
0020
ENDCHAR
STARTCHAR char33438
ENCODING 21357
SWIDTH 640 0
DWIDTH 16 0
BBX 16 16 0 -1
BITMAP
0000
00FF
7FC3
7FC3
08C3
08C3
08C3
08C3
08C3
08C3
0FC3
7CC3
40CE
00C0
00C0
00C0
ENDCHAR
STARTCHAR char33439
ENCODING 21385
SWIDTH 640 0
DWIDTH 16 0
BBX 16 16 0 -1
BITMAP
0000
0002
3FFF
3000
3FFE
3FFE
3100
31FE
3104
3104
3304
2304
2204
640C
4878
4030
ENDCHAR
STARTCHAR char33440
ENCODING 21434
SWIDTH 640 0
DWIDTH 16 0
BBX 16 16 0 -1
BITMAP
0000
0100
0100
0302
7FFF
0340
0220
04B0
0C98
190C
3327
6313
0618
0C78
1F84
0000
ENDCHAR
STARTCHAR char33441
ENCODING 30273
SWIDTH 640 0
DWIDTH 16 0
BBX 16 16 0 -1
BITMAP
0040
0060
1FFF
1FFF
527F
76FF
34FE
1342
727E
547E
1C7C
147C
35AC
3538
246F
45C3
ENDCHAR
STARTCHAR char33442
ENCODING 30440
SWIDTH 640 0
DWIDTH 16 0
BBX 16 16 0 -1
BITMAP
0000
05FF
0820
10FE
6CFC
18FC
32FC
66FC
0CEC
39CE
4200
3FFC
324C
324C
7FFF
7FFF
ENDCHAR
STARTCHAR char33443
ENCODING 30966
SWIDTH 640 0
DWIDTH 16 0
BBX 16 16 0 -1
BITMAP
0000
0460
7F8F
3103
31EF
3103
21FF
3DFF
6C80
6DFF
2E03
2D3B
2D5F
2D53
3F4E
3C0C
ENDCHAR
STARTCHAR char33444
ENCODING 30976
SWIDTH 640 0
DWIDTH 16 0
BBX 16 16 0 -1
BITMAP
0000
01FF
7F53
33DF
3353
33DF
2353
3F4B
6F7B
6F7B
2F4B
2F7B
2F4B
2F4B
3F9B
3F02
ENDCHAR
STARTCHAR char33445
ENCODING 31321
SWIDTH 640 0
DWIDTH 16 0
BBX 16 16 0 -1
BITMAP
0000
1C52
7156
10D4
13FF
7C8C
10C8
3BFE
3C30
35FE
5030
57FF
1028
1044
1186
1703
ENDCHAR
STARTCHAR char33446
ENCODING 31317
SWIDTH 640 0
DWIDTH 16 0
BBX 16 16 0 -1
BITMAP
0000
1CB0
70FF
11FF
13FE
7DFE
11FE
19FE
3DFF
35FF
53FF
53FF
10F4
11B2
1331
1030
ENDCHAR
STARTCHAR char33447
ENCODING 31476
SWIDTH 640 0
DWIDTH 16 0
BBX 16 16 0 -1
BITMAP
0000
2086
304C
11FF
7E28
4DFE
4D4E
2D8E
297A
297A
29FE
2C04
39FF
7044
005C
001C
ENDCHAR
STARTCHAR char33448
ENCODING 31748
SWIDTH 640 0
DWIDTH 16 0
BBX 16 16 0 -1
BITMAP
0020
1060
3FFF
4488
1FF8
3F80
3FFC
3FFC
37F0
3FF8
37F8
3FFC
2FFC
2FFF
6FFF
4FFF
ENDCHAR
STARTCHAR char33449
ENCODING 31765
SWIDTH 640 0
DWIDTH 16 0
BBX 16 16 0 -1
BITMAP
0020
1160
3FFF
48D8
1318
3230
7FB0
32FE
1E32
3F32
2D32
3F32
7F22
7F42
0C9E
0D0C
ENDCHAR
STARTCHAR char33450
ENCODING 31733
SWIDTH 640 0
DWIDTH 16 0
BBX 16 16 0 -1
BITMAP
1020
3122
3FFF
4CD8
0508
1988
3108
6BDC
1A66
1040
3340
737E
3340
37C0
34FF
383F
ENDCHAR
STARTCHAR char33451
ENCODING 33217
SWIDTH 640 0
DWIDTH 16 0
BBX 16 16 0 -1
BITMAP
0000
7C20
4FFF
4FFF
6F68
7FFF
4F28
4FFE
4FFF
7FFF
4FFE
4FFE
4F6C
4FEE
5EAB
DC28
ENDCHAR
STARTCHAR char33452
ENCODING 34173
SWIDTH 640 0
DWIDTH 16 0
BBX 16 16 0 -1
BITMAP
0400
0C10
7F7F
0C30
1FF8
3FFC
3FFC
3FFC
3FFE
3FFE
3FFC
3FFF
288C
487C
4F9F
CC0F
ENDCHAR
STARTCHAR char33453
ENCODING 34213
SWIDTH 640 0
DWIDTH 16 0
BBX 16 16 0 -1
BITMAP
0410
0C30
7F7F
0C30
3FFE
3FFE
3FFE
3FFC
0FFE
1302
7FE2
5322
1FE2
03E2
3E3E
003C
ENDCHAR
STARTCHAR char33454
ENCODING 35130
SWIDTH 640 0
DWIDTH 16 0
BBX 16 16 0 -1
BITMAP
0010
0C30
7FBC
7FFC
1234
7FB4
3F75
3FCB
0D00
0082
7FFF
0746
1C78
7438
07CF
0707
ENDCHAR
STARTCHAR char33455
ENCODING 36433
SWIDTH 640 0
DWIDTH 16 0
BBX 16 16 0 -1
BITMAP
0000
7DFF
4CCC
4CFC
4CFC
4CFC
7FFF
13FF
5C00
5FFF
5153
51CB
50CA
5CC4
F1CF
0733
ENDCHAR
STARTCHAR char33456
ENCODING 37272
SWIDTH 640 0
DWIDTH 16 0
BBX 16 16 0 -1
BITMAP
0000
7F10
1CFE
1CFE
7E10
7FFF
5E20
5E44
7EFE
66F3
42FE
42FE
5EAA
42AA
7EAA
7FFF
ENDCHAR
STARTCHAR char33457
ENCODING 37761
SWIDTH 640 0
DWIDTH 16 0
BBX 16 16 0 -1
BITMAP
0000
1008
3BFF
3F4B
274A
7BCC
334C
334A
7FCA
33CB
7F4B
7B4B
7FCF
3E4E
6048
0048
ENDCHAR
STARTCHAR char33458
ENCODING 37743
SWIDTH 640 0
DWIDTH 16 0
BBX 16 16 0 -1
BITMAP
0040
10C0
38FF
3CFF
26AF
41EB
3C5B
109F
7F2E
7E0C
56D0
55DA
7DCB
17C5
7BFF
607C
ENDCHAR
STARTCHAR char33459
ENCODING 38978
SWIDTH 640 0
DWIDTH 16 0
BBX 16 16 0 -1
BITMAP
0800
0802
08FF
7F90
08FE
2BFE
3BFE
5FFE
19C2
18FE
3CC2
3AC2
297E
4866
08C3
0981
ENDCHAR
STARTCHAR char33460
ENCODING 39223
SWIDTH 640 0
DWIDTH 16 0
BBX 16 16 0 -1
BITMAP
0810
0830
1C30
33FE
3C38
5C7E
7CB3
4530
7CFC
4484
7CFC
4084
44FC
46FC
7BFF
21FF
ENDCHAR
STARTCHAR char33461
ENCODING 39849
SWIDTH 640 0
DWIDTH 16 0
BBX 16 16 0 -1
BITMAP
1000
3086
3C4C
3C48
48FF
7EFF
524C
7E4C
53FF
53FF
7E4C
044C
7ECC
7ECC
F08C
010C
ENDCHAR
STARTCHAR char33462
ENCODING 39847
SWIDTH 640 0
DWIDTH 16 0
BBX 16 16 0 -1
BITMAP
1010
3030
3DFF
2DFF
7CFE
7EFE
5232
7EFE
52B0
52FF
7E33
0033
3A7E
7F4C
5087
C303
ENDCHAR
STARTCHAR char33463
ENCODING 39852
SWIDTH 640 0
DWIDTH 16 0
BBX 16 16 0 -1
BITMAP
1010
3030
3CFF
2CFF
3C6C
7EC6
52FB
7F00
52FE
52FE
7E7C
04FC
7E04
7E04
D03C
C008
ENDCHAR
STARTCHAR char33464
ENCODING 39836
SWIDTH 640 0
DWIDTH 16 0
BBX 16 16 0 -1
BITMAP
1000
3006
3CF8
3CC0
6880
7EFF
5280
7E80
5280
52FF
7EC3
05C3
7F43
7F43
F27F
C000
ENDCHAR
STARTCHAR char33465
ENCODING 40252
SWIDTH 640 0
DWIDTH 16 0
BBX 16 16 0 -1
BITMAP
0020
1020
7E3E
7E7E
7EC6
7EA4
7F38
7C38
7EE7
4083
7FFE
13C2
7FC2
7BC2
CEFE
0CFE
ENDCHAR
STARTCHAR char33466
ENCODING 40220
SWIDTH 640 0
DWIDTH 16 0
BBX 16 16 0 -1
BITMAP
0020
0420
3420
37BE
3420
37A3
7C3F
7FF0
1FF0
1FF0
1FF0
1FFC
1FFE
2FFE
24BE
400C
ENDCHAR
STARTCHAR char33467
ENCODING 40250
SWIDTH 640 0
DWIDTH 16 0
BBX 16 16 0 -1
BITMAP
0800
0818
7F7E
7F7E
3F7E
3F42
097E
7FC0
487F
7FC0
08FF
1B83
157F
367B
23CE
400C
ENDCHAR
STARTCHAR char33468
ENCODING 40242
SWIDTH 640 0
DWIDTH 16 0
BBX 16 16 0 -1
BITMAP
0010
4030
40FC
7EFC
40FC
40FC
7FFC
3EFC
7EFF
7EFF
42FF
7EFF
42FF
42B3
7FAE
000C
ENDCHAR
STARTCHAR char33469
ENCODING 40244
SWIDTH 640 0
DWIDTH 16 0
BBX 16 16 0 -1
BITMAP
0000
3088
27BE
603E
503E
1022
3FBE
2120
613F
213F
213F
2107
217B
215F
235E
230C
ENDCHAR
STARTCHAR char33470
ENCODING 40767
SWIDTH 640 0
DWIDTH 16 0
BBX 16 16 0 -1
BITMAP
0800
0A02
3EFF
3E3C
3E3C
3E3C
3E3C
7FBC
7F3C
7F3C
7F2C
7FAC
126F
324F
228F
4307
ENDCHAR
STARTCHAR char33471
ENCODING 24299
SWIDTH 640 0
DWIDTH 16 0
BBX 16 16 0 -1
BITMAP
0080
00C2
3FFF
2800
2FFF
2BB7
2FFF
2F7F
2B38
2B6E
2FFB
2B7C
6BBA
53E6
D738
32F0
ENDCHAR
STARTCHAR char33472
ENCODING 25045
SWIDTH 640 0
DWIDTH 16 0
BBX 16 16 0 -1
BITMAP
0000
7FFF
4F00
5F92
5F90
5F7E
5F90
5CB8
5FA4
5DC2
4180
4484
4C4A
544B
F7F8
13F8
ENDCHAR
STARTCHAR char33473
ENCODING 25858
SWIDTH 640 0
DWIDTH 16 0
BBX 16 16 0 -1
BITMAP
1000
33FE
3324
3324
7FFC
3324
33FC
37FC
3FDF
77FF
757F
357F
37FF
357F
77FF
27FF
ENDCHAR
STARTCHAR char33474
ENCODING 28690
SWIDTH 640 0
DWIDTH 16 0
BBX 16 16 0 -1
BITMAP
0000
2042
1FFF
0940
034C
04F2
61DC
374C
07FF
0A02
0BFE
12FA
328A
62FA
43FE
03FE
ENDCHAR
STARTCHAR char33475
ENCODING 30085
SWIDTH 640 0
DWIDTH 16 0
BBX 16 16 0 -1
BITMAP
0000
0000
FDFF
FDFC
FD34
FDFC
FDFC
FDFC
FDFF
FDFF
FDFC
FDFC
FD34
01FC
03FF
03FF
ENDCHAR
STARTCHAR char33476
ENCODING 30292
SWIDTH 640 0
DWIDTH 16 0
BBX 16 16 0 -1
BITMAP
0040
0040
1FFF
1040
D7FE
57FE
7FFF
1FFF
73FC
53FC
13FC
13FC
3140
3D2A
29FB
40F8
ENDCHAR
STARTCHAR char33477
ENCODING 30293
SWIDTH 640 0
DWIDTH 16 0
BBX 16 16 0 -1
BITMAP
0040
0040
1FFF
10C0
DFFF
5FFF
7228
153F
7FE8
5768
12BE
17A8
313E
3328
263F
4C3F
ENDCHAR
STARTCHAR char33478
ENCODING 30375
SWIDTH 640 0
DWIDTH 16 0
BBX 16 16 0 -1
BITMAP
0008
187C
11C2
31A4
7FFF
4FFF
4EB2
4F8A
7EFA
4CF0
4DFC
4DFC
7EC8
7C70
00FF
0387
ENDCHAR
STARTCHAR char33479
ENCODING 30376
SWIDTH 640 0
DWIDTH 16 0
BBX 16 16 0 -1
BITMAP
0100
0B08
0FF8
0FF8
0FF8
0FF8
3F7C
7FFE
7FFE
7FFE
7FFE
0080
3FFC
3FFC
7FFF
7FFF
ENDCHAR
STARTCHAR char33480
ENCODING 30991
SWIDTH 640 0
DWIDTH 16 0
BBX 16 16 0 -1
BITMAP
0000
0552
7FD6
3054
33FF
30CC
23FF
7FFF
6DFC
EDFC
2FFF
2FFF
2CBC
2DB6
3B33
0630
ENDCHAR
STARTCHAR char33481
ENCODING 31972
SWIDTH 640 0
DWIDTH 16 0
BBX 16 16 0 -1
BITMAP
1004
314C
FFEC
7FEC
794F
37EF
7C13
7DE3
7B2B
7BAA
7F6A
FF6E
F3A4
322E
32EB
3473
ENDCHAR
STARTCHAR char33482
ENCODING 31973
SWIDTH 640 0
DWIDTH 16 0
BBX 16 16 0 -1
BITMAP
0000
11FF
D420
55FF
5D4B
5D4B
7D4B
7D4A
13FF
5FFF
55FF
57FF
D74B
134B
134B
1302
ENDCHAR
STARTCHAR char33483
ENCODING 32357
SWIDTH 640 0
DWIDTH 16 0
BBX 16 16 0 -1
BITMAP
0010
1830
31FF
3030
2DFE
4884
78FE
1084
24FE
5E4C
73FF
05FF
56FE
4A82
68FE
00FE
ENDCHAR
STARTCHAR char33484
ENCODING 32334
SWIDTH 640 0
DWIDTH 16 0
BBX 16 16 0 -1
BITMAP
0000
308C
30EE
21EF
6D2C
4BFF
7AC8
19DC
2E92
5D33
E661
2800
F7D4
57D2
525B
064B
ENDCHAR
STARTCHAR char33485
ENCODING 32642
SWIDTH 640 0
DWIDTH 16 0
BBX 16 16 0 -1
BITMAP
0000
7FFE
4423
4423
7FFE
1882
30FE
2682
78FE
70FF
24E3
7EFB
469F
17FB
5907
2606
ENDCHAR
STARTCHAR char33486
ENCODING 32813
SWIDTH 640 0
DWIDTH 16 0
BBX 16 16 0 -1
BITMAP
0000
10F6
1EFC
797F
11FE
7FBE
11FF
11FF
7E12
1BFF
34D2
32CE
70EC
511D
1237
1463
ENDCHAR
STARTCHAR char33487
ENCODING 34250
SWIDTH 640 0
DWIDTH 16 0
BBX 16 16 0 -1
BITMAP
0410
0C30
7F7F
0C30
0DFE
7FF0
13FC
7FFE
13FE
3BFE
37FF
532B
13FF
132B
152B
1102
ENDCHAR
STARTCHAR char33488
ENCODING 34236
SWIDTH 640 0
DWIDTH 16 0
BBX 16 16 0 -1
BITMAP
0400
0C10
7FFF
0CB0
3FFF
2222
3FFE
3FFE
2822
2FBE
29A0
2FBF
68C0
5FFE
C0C0
3FFF
ENDCHAR
STARTCHAR char33489
ENCODING 36095
SWIDTH 640 0
DWIDTH 16 0
BBX 16 16 0 -1
BITMAP
0000
7FFF
4E23
4F2B
7CBF
7F3B
4C66
7C30
4CFC
4F97
7CEC
7D9C
38E6
2D9C
6470
41C0
ENDCHAR
STARTCHAR char33490
ENCODING 37286
SWIDTH 640 0
DWIDTH 16 0
BBX 16 16 0 -1
BITMAP
0010
7E30
1CFE
1CFF
7E46
7EC4
5EEF
5FF0
7E3C
666F
43B8
42EC
5E3A
42C6
7E38
7EE0
ENDCHAR
STARTCHAR char33491
ENCODING 37814
SWIDTH 640 0
DWIDTH 16 0
BBX 16 16 0 -1
BITMAP
0000
13FF
3802
2DFA
6512
41FA
7D02
1002
7FFF
7D12
55FA
5512
71FA
1602
780E
600C
ENDCHAR
STARTCHAR char33492
ENCODING 37803
SWIDTH 640 0
DWIDTH 16 0
BBX 16 16 0 -1
BITMAP
0020
1020
39FE
3D0A
257A
413A
7D42
106C
7CE7
7FA1
D4FE
54C4
5148
1430
78FF
63C7
ENDCHAR
STARTCHAR char33493
ENCODING 38823
SWIDTH 640 0
DWIDTH 16 0
BBX 16 16 0 -1
BITMAP
2400
2C06
7E4C
7E28
2DFF
3C28
3CFF
7EFF
52AB
7EEB
50CF
1083
7EFF
1083
10FF
10FF
ENDCHAR
STARTCHAR char33494
ENCODING 38974
SWIDTH 640 0
DWIDTH 16 0
BBX 16 16 0 -1
BITMAP
0000
0DFF
18FC
36FE
4CFE
1AFE
66FE
1CFC
75C3
4C40
2C40
2FFE
2C40
2DC1
7E7F
703F
ENDCHAR
STARTCHAR char33495
ENCODING 39868
SWIDTH 640 0
DWIDTH 16 0
BBX 16 16 0 -1
BITMAP
1000
30FE
3E04
2DFF
4804
7EFE
5200
53FF
7F02
53FC
7ECC
0458
7A70
7F78
D0CF
0303
ENDCHAR
STARTCHAR char33496
ENCODING 39863
SWIDTH 640 0
DWIDTH 16 0
BBX 16 16 0 -1
BITMAP
1000
34C4
3E48
2402
7DFE
7E32
4AFE
4AFE
7EB0
4BFF
7E33
0473
7AFF
7FBE
D330
0030
ENDCHAR
STARTCHAR char33497
ENCODING 39870
SWIDTH 640 0
DWIDTH 16 0
BBX 16 16 0 -1
BITMAP
1000
301E
3DF2
3D22
7CB2
7ED4
5240
5240
7FFF
53FF
7EC8
04D8
7E70
7E78
5CC4
C182
ENDCHAR
STARTCHAR char33498
ENCODING 40290
SWIDTH 640 0
DWIDTH 16 0
BBX 16 16 0 -1
BITMAP
0800
0810
3EFE
3EFE
3EFE
3EFE
22FE
3FFC
23FF
27C0
7A7F
4633
0AF7
32FB
4E9E
0C0C
ENDCHAR
STARTCHAR char33499
ENCODING 40591
SWIDTH 640 0
DWIDTH 16 0
BBX 16 16 0 -1
BITMAP
0000
3FFF
3FFC
3FFE
3FFE
2FFC
2F7F
2F3E
2FFC
208C
3FFF
6FFC
43FC
4FFE
33FE
03FE
ENDCHAR
STARTCHAR char33500
ENCODING 40651
SWIDTH 640 0
DWIDTH 16 0
BBX 16 16 0 -1
BITMAP
0824
082C
4BFE
6A2C
2E3C
2DFF
087C
7FFE
3CFE
3CFE
3CFE
3CFE
2C64
2DC3
6FFF
47FF
ENDCHAR
STARTCHAR char33501
ENCODING 22185
SWIDTH 640 0
DWIDTH 16 0
BBX 16 16 0 -1
BITMAP
0000
020A
F27F
F77F
D5FE
D77E
D67E
D27E
D54A
D5CC
FEFF
F37F
0EB4
0F04
040C
000C
ENDCHAR
STARTCHAR char33502
ENCODING 22803
SWIDTH 640 0
DWIDTH 16 0
BBX 16 16 0 -1
BITMAP
0000
1BFE
23C2
23E2
3BFE
2222
23E2
3BFE
2240
1F3E
63F0
07F0
1920
71C0
0F7F
7C0F
ENDCHAR
STARTCHAR char33503
ENCODING 23540
SWIDTH 640 0
DWIDTH 16 0
BBX 16 16 0 -1
BITMAP
0000
0180
3FFF
7FFF
4804
7FFE
32FE
16FE
3FFE
3FFE
7FFE
7FFE
2A28
4B4B
088F
0B0F
ENDCHAR
STARTCHAR char33504
ENCODING 25068
SWIDTH 640 0
DWIDTH 16 0
BBX 16 16 0 -1
BITMAP
0000
2082
3FFF
3FFE
23F0
21E2
3FFE
27F8
2FFC
6FFC
47F8
5E0E
0CC0
3C4A
2FF9
07F8
ENDCHAR
STARTCHAR char33505
ENCODING 25071
SWIDTH 640 0
DWIDTH 16 0
BBX 16 16 0 -1
BITMAP
0000
7FB0
3F30
7F3F
7F24
7F64
4914
7FCC
1F1C
1F32
6740
4300
3C86
3CCB
6FF9
47F8
ENDCHAR
STARTCHAR char33506
ENCODING 27350
SWIDTH 640 0
DWIDTH 16 0
BBX 16 16 0 -1
BITMAP
1000
3044
307E
33FF
7FFA
7FF8
337E
3BFE
7FFE
73FE
F3FE
33FC
3252
374F
377D
343C
ENDCHAR
STARTCHAR char33507
ENCODING 29193
SWIDTH 640 0
DWIDTH 16 0
BBX 16 16 0 -1
BITMAP
0090
31B4
312C
30A4
3DFE
F3FE
7372
73CA
71FE
3024
33BC
3B24
2FBC
6767
43BB
4331
ENDCHAR
STARTCHAR char33508
ENCODING 29561
SWIDTH 640 0
DWIDTH 16 0
BBX 16 16 0 -1
BITMAP
0020
0020
6C3C
383E
13FF
3B7A
4BFC
0B3C
1FFC
3FFC
6FFC
0FFC
0FFC
0FFE
7FFF
3FFF
ENDCHAR
STARTCHAR char33509
ENCODING 29894
SWIDTH 640 0
DWIDTH 16 0
BBX 16 16 0 -1
BITMAP
0000
00F7
7F9C
7FFF
33D4
32D4
3424
7DFC
3304
33FC
37FC
3FFC
63FC
01FC
0187
0703
ENDCHAR
STARTCHAR char33510
ENCODING 30659
SWIDTH 640 0
DWIDTH 16 0
BBX 16 16 0 -1
BITMAP
0000
4020
7FFF
4FFF
4EB4
7F8A
4EF8
4C74
7FFE
7F54
4FFF
4FFF
7C30
7C30
0070
0060
ENDCHAR
STARTCHAR char33511
ENCODING 31007
SWIDTH 640 0
DWIDTH 16 0
BBX 16 16 0 -1
BITMAP
0000
0FE2
7C92
348C
27EE
249B
67E1
7FC2
4FD2
4FD2
48DE
4FCC
7FCC
7CDE
03B3
0161
ENDCHAR
STARTCHAR char33512
ENCODING 31333
SWIDTH 640 0
DWIDTH 16 0
BBX 16 16 0 -1
BITMAP
0000
1CA2
732E
337A
3342
7FCE
3372
3352
3FDE
7752
73F2
F7FF
3080
318C
3206
3403
ENDCHAR
STARTCHAR char33513
ENCODING 31430
SWIDTH 640 0
DWIDTH 16 0
BBX 16 16 0 -1
BITMAP
0000
2082
3FFE
4644
5C7E
783E
3CFC
7EFC
7EC4
42FE
7F30
5EFE
6E82
1A82
6EFE
4CFE
ENDCHAR
STARTCHAR char33514
ENCODING 31802
SWIDTH 640 0
DWIDTH 16 0
BBX 16 16 0 -1
BITMAP
1020
3020
3F7F
4C98
3FFF
7FFF
5FFE
5FFC
1FFC
1FFC
7FFF
0C98
3FFF
6FF3
3FFE
3FFE
ENDCHAR
STARTCHAR char33515
ENCODING 31979
SWIDTH 640 0
DWIDTH 16 0
BBX 16 16 0 -1
BITMAP
1000
31FE
F74A
75FE
7902
79FF
7C00
7DFE
3102
7DFE
7460
F4F6
F39C
308C
30F7
30C3
ENDCHAR
STARTCHAR char33516
ENCODING 32644
SWIDTH 640 0
DWIDTH 16 0
BBX 16 16 0 -1
BITMAP
0000
3FFE
2222
3FFE
2012
1030
343F
24B2
78FE
30FE
2482
7EFE
40B2
57FF
6A30
2C30
ENDCHAR
STARTCHAR char33517
ENCODING 34272
SWIDTH 640 0
DWIDTH 16 0
BBX 16 16 0 -1
BITMAP
0400
0C10
7F7F
0DB0
07F0
0FF0
0FF0
0FF0
0FF0
1FF8
3E3E
7F7F
7F7F
7F7F
7F7F
7F7F
ENDCHAR
STARTCHAR char33518
ENCODING 34291
SWIDTH 640 0
DWIDTH 16 0
BBX 16 16 0 -1
BITMAP
0410
0C30
7FFF
7FFF
0FF0
0FF0
0FF0
3FFE
27E2
2FFE
27E4
3FF8
7FFF
7FFF
0EBC
7086
ENDCHAR
STARTCHAR char33519
ENCODING 34846
SWIDTH 640 0
DWIDTH 16 0
BBX 16 16 0 -1
BITMAP
0020
1062
3FFF
498A
3F7E
3F42
3F42
3F4E
3F44
3880
3FFC
3FFC
3FFC
1FFC
3FFE
3F03
ENDCHAR
STARTCHAR char33520
ENCODING 35252
SWIDTH 640 0
DWIDTH 16 0
BBX 16 16 0 -1
BITMAP
0000
7D7E
12C2
5342
717E
21C2
5EFE
407E
7F42
437E
7F7A
3F38
1628
1769
7CCF
018F
ENDCHAR
STARTCHAR char33521
ENCODING 35321
SWIDTH 640 0
DWIDTH 16 0
BBX 16 16 0 -1
BITMAP
1000
3458
3EFF
2DFF
48FE
7EFE
52FE
52D0
7EFF
5200
7EEF
7EAF
42BF
42BB
4E83
CC82
ENDCHAR
STARTCHAR char33522
ENCODING 35652
SWIDTH 640 0
DWIDTH 16 0
BBX 16 16 0 -1
BITMAP
0000
2086
10CC
7E48
03FF
0337
7F7F
033B
7FFF
0004
7CFE
7C84
4CFC
4C84
7CFC
00FC
ENDCHAR
STARTCHAR char33523
ENCODING 36465
SWIDTH 640 0
DWIDTH 16 0
BBX 16 16 0 -1
BITMAP
0000
7C20
4DFE
4DFE
4CC8
4FFF
7C00
11FE
5DFE
5DFE
51FE
51FC
55FE
5DFE
73FF
43FF
ENDCHAR
STARTCHAR char33524
ENCODING 36462
SWIDTH 640 0
DWIDTH 16 0
BBX 16 16 0 -1
BITMAP
0000
7FFF
4428
45FE
452B
452B
7FFE
1020
5FFF
5CC4
51FF
53CF
52FC
5EFB
F0FF
007F
ENDCHAR
STARTCHAR char33525
ENCODING 36473
SWIDTH 640 0
DWIDTH 16 0
BBX 16 16 0 -1
BITMAP
0000
7C30
4C78
4CCC
4F7F
4EFA
7C8C
50FC
5C80
5FFF
514B
50CF
54C7
5DDF
62D7
40C6
ENDCHAR
STARTCHAR char33526
ENCODING 36548
SWIDTH 640 0
DWIDTH 16 0
BBX 16 16 0 -1
BITMAP
1008
3088
3FFC
7FFA
4D28
7D48
4FFF
7C0A
4FEA
5F2E
6FEC
5FEC
2FED
4FF7
1C23
1841
ENDCHAR
STARTCHAR char33527
ENCODING 37004
SWIDTH 640 0
DWIDTH 16 0
BBX 16 16 0 -1
BITMAP
0000
21F0
171F
17FF
71AB
7B53
1D76
30DC
3DA7
0FA7
0838
18F8
33A4
78E0
47FF
03FF
ENDCHAR
STARTCHAR char33528
ENCODING 37833
SWIDTH 640 0
DWIDTH 16 0
BBX 16 16 0 -1
BITMAP
1088
3088
3088
2FE8
609F
7BF3
32BE
32AC
7FEC
33EC
FDCC
7BEC
7EBC
3C92
60A3
00C3
ENDCHAR
STARTCHAR char33529
ENCODING 38832
SWIDTH 640 0
DWIDTH 16 0
BBX 16 16 0 -1
BITMAP
2400
2C84
7EFE
7EB4
2CB4
3CAC
3CCC
7EFC
5200
7EFE
50AA
10AA
7FAA
10AA
13FF
13FF
ENDCHAR
STARTCHAR char33530
ENCODING 39002
SWIDTH 640 0
DWIDTH 16 0
BBX 16 16 0 -1
BITMAP
0000
2000
3F7F
2010
3FFE
007E
7F7E
7F7E
7342
7F7E
7F42
7F42
7F7E
3F34
3163
60C1
ENDCHAR
STARTCHAR char33531
ENCODING 39238
SWIDTH 640 0
DWIDTH 16 0
BBX 16 16 0 -1
BITMAP
0000
19FE
1532
33FE
3D32
45FE
7E00
44B4
7DFF
44B4
7DFF
49FF
44FE
46FE
7A30
3030
ENDCHAR
STARTCHAR char33532
ENCODING 39619
SWIDTH 640 0
DWIDTH 16 0
BBX 16 16 0 -1
BITMAP
0000
3EFE
24B2
3CB2
34FE
7EB2
42FE
FCFE
2430
3DFF
2D33
2D3F
357F
2503
6D03
4D02
ENDCHAR
STARTCHAR char33533
ENCODING 39695
SWIDTH 640 0
DWIDTH 16 0
BBX 16 16 0 -1
BITMAP
0000
3F8C
3F7A
3F66
3F39
7FA7
3F1C
3F70
3E10
3C93
7F52
7F3C
3E38
6F2C
0C47
0D83
ENDCHAR
STARTCHAR char33534
ENCODING 39924
SWIDTH 640 0
DWIDTH 16 0
BBX 16 16 0 -1
BITMAP
1000
31FE
3C04
2C14
69FC
7E24
52F4
52F4
7EB4
52B4
7EFC
0437
7C3B
7E3B
D1CD
0001
ENDCHAR
STARTCHAR char33600
ENCODING 39930
SWIDTH 640 0
DWIDTH 16 0
BBX 16 16 0 -1
BITMAP
1020
3022
3C22
2DFC
7C2C
7E28
4BFF
4A30
7E60
4AFE
7FC2
0642
7C7E
7E42
D27E
007E
ENDCHAR
STARTCHAR char33601
ENCODING 39901
SWIDTH 640 0
DWIDTH 16 0
BBX 16 16 0 -1
BITMAP
1000
3100
3DFF
2D13
7D13
7F7F
5313
5313
7F7F
537F
7F4F
054F
7D7F
5F03
DDFF
01FF
ENDCHAR
STARTCHAR char33602
ENCODING 39917
SWIDTH 640 0
DWIDTH 16 0
BBX 16 16 0 -1
BITMAP
1000
31FE
3C04
2C18
7C10
7FFF
5210
5210
7E70
5302
7FFE
052A
3B2A
7F2A
DFFF
C3FF
ENDCHAR
STARTCHAR char33603
ENCODING 39919
SWIDTH 640 0
DWIDTH 16 0
BBX 16 16 0 -1
BITMAP
1041
31C3
39C7
3DCF
4BFF
7ECF
57FF
57FF
7CCF
57FF
7FFF
03FF
7FF3
7FF3
F8E7
00C6
ENDCHAR
STARTCHAR char33604
ENCODING 40598
SWIDTH 640 0
DWIDTH 16 0
BBX 16 16 0 -1
BITMAP
0000
3FFF
3FFC
3FFE
3FFE
2840
2FFF
2FFF
3FFF
3FFF
2FFC
6C0C
47F8
42D0
DECC
1080
ENDCHAR
STARTCHAR char33605
ENCODING 40627
SWIDTH 640 0
DWIDTH 16 0
BBX 16 16 0 -1
BITMAP
0400
0C10
7F10
7FFF
2F52
7FD2
0CF6
12BF
6918
4934
3F76
3352
5690
0C10
3FFF
61FF
ENDCHAR
STARTCHAR char33606
ENCODING 40674
SWIDTH 640 0
DWIDTH 16 0
BBX 16 16 0 -1
BITMAP
0000
7F30
4B24
6F42
7FFF
4B2C
7F2F
0847
3EB0
3E3E
7F64
7F6C
7FB8
5738
D467
01C3
ENDCHAR
STARTCHAR char33607
ENCODING 40847
SWIDTH 640 0
DWIDTH 16 0
BBX 16 16 0 -1
BITMAP
0000
0840
7FFF
147E
7FBE
3E7C
3B7E
3F7F
3F41
627F
4000
0420
7FFF
0420
0820
7020
ENDCHAR
STARTCHAR char33608
ENCODING 22193
SWIDTH 640 0
DWIDTH 16 0
BBX 16 16 0 -1
BITMAP
0008
014A
F1EB
F7E8
D5EB
D7FF
D5CC
D4CF
D7EE
D42E
F7E6
F7E4
0D4F
0D6B
0B93
0221
ENDCHAR
STARTCHAR char33609
ENCODING 23361
SWIDTH 640 0
DWIDTH 16 0
BBX 16 16 0 -1
BITMAP
0000
1FFE
3FFF
7FFF
5EBA
5EB8
39DC
3FFE
3FFE
39DC
7FFF
7FFF
0620
07C0
03FC
3E0C
ENDCHAR
STARTCHAR char33610
ENCODING 27382
SWIDTH 640 0
DWIDTH 16 0
BBX 16 16 0 -1
BITMAP
0000
1020
13FF
1232
7DFC
7DFE
3030
3BFE
35FC
73FE
53FE
51FC
10B2
139F
128D
10FC
ENDCHAR
STARTCHAR char33611
ENCODING 27378
SWIDTH 640 0
DWIDTH 16 0
BBX 16 16 0 -1
BITMAP
1010
30B4
37BE
3124
7E7F
7A7F
377F
3FFF
7FB9
73FF
F338
3368
33BC
336B
37B8
3630
ENDCHAR
STARTCHAR char33612
ENCODING 30088
SWIDTH 640 0
DWIDTH 16 0
BBX 16 16 0 -1
BITMAP
0000
0280
7EFF
24A2
3EBE
24A2
3DA2
3DBE
0180
7EBF
4AAB
7EAB
4ABF
4B2B
7F3F
3F3F
ENDCHAR
STARTCHAR char33613
ENCODING 33383
SWIDTH 640 0
DWIDTH 16 0
BBX 16 16 0 -1
BITMAP
0000
1050
3FDF
3CD0
34FE
3DFE
2DFC
2FFC
F5FE
35FF
3D00
2DFE
244C
4438
5C7F
CFCF
ENDCHAR
STARTCHAR char33614
ENCODING 34318
SWIDTH 640 0
DWIDTH 16 0
BBX 16 16 0 -1
BITMAP
0410
0C30
7F7F
0004
3FFE
3FFF
588A
5EF8
1898
3DFE
3532
3D32
3DFE
3D00
4DFF
4CFE
ENDCHAR
STARTCHAR char33615
ENCODING 36110
SWIDTH 640 0
DWIDTH 16 0
BBX 16 16 0 -1
BITMAP
0000
788C
4BFF
4804
7BFE
4B24
4BFC
7B24
4BFC
4A20
7BFF
3A2B
32FF
6AC3
4E0F
420E
ENDCHAR
STARTCHAR char33616
ENCODING 37302
SWIDTH 640 0
DWIDTH 16 0
BBX 16 16 0 -1
BITMAP
0200
7F10
1C38
1C6C
7EC7
7FFF
5E00
5EFF
7EBB
66BB
42EE
4244
5E4C
42EE
7E9B
7F11
ENDCHAR
STARTCHAR char33617
ENCODING 37935
SWIDTH 640 0
DWIDTH 16 0
BBX 16 16 0 -1
BITMAP
0044
10CC
3FFF
36EC
2223
41FA
7C24
1028
7FFF
7C42
57FE
75C2
30FE
16C2
78FE
70FE
ENDCHAR
STARTCHAR char33618
ENCODING 38880
SWIDTH 640 0
DWIDTH 16 0
BBX 16 16 0 -1
BITMAP
0000
10FE
7C92
34FE
7E92
7EFE
7E00
42D4
7FFF
08D4
7FFF
48FF
7EFE
3EFE
0810
0810
ENDCHAR
STARTCHAR char33619
ENCODING 38875
SWIDTH 640 0
DWIDTH 16 0
BBX 16 16 0 -1
BITMAP
0040
30C4
7DCF
35CF
7ECC
7F00
7FFF
4500
7F7F
094B
7F7F
494B
7D7F
7F4B
0BCB
0A82
ENDCHAR
STARTCHAR char33620
ENCODING 39009
SWIDTH 640 0
DWIDTH 16 0
BBX 16 16 0 -1
BITMAP
0000
0800
7F7F
7F4A
327E
1442
7FFE
187E
6F7E
5C7E
7742
4FFE
3AF2
6264
0EC3
0D81
ENDCHAR
STARTCHAR char33621
ENCODING 39475
SWIDTH 640 0
DWIDTH 16 0
BBX 16 16 0 -1
BITMAP
0000
7FFF
48D0
4AD2
7EFE
48D0
7EFE
7EFE
48D0
7FFF
030F
7FD7
7FB3
F3A3
0F1E
0C1C
ENDCHAR
STARTCHAR char33622
ENCODING 39951
SWIDTH 640 0
DWIDTH 16 0
BBX 16 16 0 -1
BITMAP
1000
3000
3DFF
3C84
48FE
7E84
52FC
7EFC
53FE
53FE
7F32
05FE
7D32
7F32
D3FE
01FE
ENDCHAR
STARTCHAR char33623
ENCODING 39953
SWIDTH 640 0
DWIDTH 16 0
BBX 16 16 0 -1
BITMAP
1000
30FE
3CC4
3CFC
48C4
7EFC
5204
7FFF
52C0
52FF
7EAF
074B
7EDB
7FB3
D06E
01CC
ENDCHAR
STARTCHAR char33624
ENCODING 39939
SWIDTH 640 0
DWIDTH 16 0
BBX 16 16 0 -1
BITMAP
1000
30FE
3C92
3C92
68FE
7E92
52FE
7EFE
52FF
52FF
7E92
049C
7E88
7E8C
D2F7
00C3
ENDCHAR
STARTCHAR char33625
ENCODING 39937
SWIDTH 640 0
DWIDTH 16 0
BBX 16 16 0 -1
BITMAP
1010
3030
3CFE
3CFE
68FE
7EFE
5282
7EFE
5292
5253
7FFE
045C
7CD4
7F93
D330
0030
ENDCHAR
STARTCHAR char33626
ENCODING 39958
SWIDTH 640 0
DWIDTH 16 0
BBX 16 16 0 -1
BITMAP
1000
3020
3DFF
3DFF
68FE
7F3E
52FF
7EFF
52FE
52FE
7EF2
04C2
7AFE
7EF2
D08E
010C
ENDCHAR
STARTCHAR char33627
ENCODING 40339
SWIDTH 640 0
DWIDTH 16 0
BBX 16 16 0 -1
BITMAP
2200
2210
227E
7FFE
327E
327E
7F7E
7F7C
4B7F
4B40
7F7F
4B13
4BFF
4BEB
7F0E
000C
ENDCHAR
STARTCHAR char33628
ENCODING 21339
SWIDTH 640 0
DWIDTH 16 0
BBX 16 16 0 -1
BITMAP
0000
3188
2BDA
5BF6
71D8
21D2
7C3F
0BC2
5F57
73D5
2010
0080
7FFF
0080
0080
0080
ENDCHAR
STARTCHAR char33629
ENCODING 22207
SWIDTH 640 0
DWIDTH 16 0
BBX 16 16 0 -1
BITMAP
0048
00C8
FFCF
F9A0
C930
CBFE
CBFC
CBFC
CBFE
CBFF
F8C0
F9DE
03CE
03CE
03FE
03FE
ENDCHAR
STARTCHAR char33630
ENCODING 24014
SWIDTH 640 0
DWIDTH 16 0
BBX 16 16 0 -1
BITMAP
1000
3000
37FF
7170
FFFF
FFFF
FF7F
FFFD
FEDF
FD8E
FE3C
FCFC
FFC8
0230
00FF
0787
ENDCHAR
STARTCHAR char33631
ENCODING 30380
SWIDTH 640 0
DWIDTH 16 0
BBX 16 16 0 -1
BITMAP
0000
33FF
3020
2BFF
FF22
C8F8
CBA4
C9A0
F9FE
CBFE
CDFC
C9FC
C9FC
F9FC
01FF
01FF
ENDCHAR
STARTCHAR char33632
ENCODING 30674
SWIDTH 640 0
DWIDTH 16 0
BBX 16 16 0 -1
BITMAP
0040
08D0
FBDF
C802
CBFE
FBD2
CBFE
CA02
FBFF
FFFA
C90C
C9FC
F9FC
F9FC
01FC
01FC
ENDCHAR
STARTCHAR char33633
ENCODING 31826
SWIDTH 640 0
DWIDTH 16 0
BBX 16 16 0 -1
BITMAP
1020
3120
3FFF
4CD8
1D08
13FF
7C50
7FDF
13DF
17DE
79FC
73FE
13FE
13FE
33FE
33FE
ENDCHAR
STARTCHAR char33634
ENCODING 35702
SWIDTH 640 0
DWIDTH 16 0
BBX 16 16 0 -1
BITMAP
0000
0082
7FFE
0FF8
0FF0
0FF0
0FF8
0FF8
1010
7F7F
3E3C
3E3C
7E7E
7E7E
4242
7E7E
ENDCHAR
STARTCHAR char33635
ENCODING 36551
SWIDTH 640 0
DWIDTH 16 0
BBX 16 16 0 -1
BITMAP
1020
3020
33FF
79FE
4BFF
7BFF
48FE
78FC
4FFE
5FFF
7804
5BBF
2AD4
4AD4
1BCC
100C
ENDCHAR
STARTCHAR char33636
ENCODING 37940
SWIDTH 640 0
DWIDTH 16 0
BBX 16 16 0 -1
BITMAP
0000
3048
33EC
2B5F
6352
7B5E
33EC
333F
7B0C
33EC
7B5F
7B5F
774C
3F4C
63EC
000C
ENDCHAR
STARTCHAR char33637
ENCODING 37950
SWIDTH 640 0
DWIDTH 16 0
BBX 16 16 0 -1
BITMAP
0020
3E30
23FE
3F4C
20FF
3EFF
32FE
72FE
1FC0
0770
3FFF
73F3
3FFC
3FFC
7FFF
7FFF
ENDCHAR
STARTCHAR char33638
ENCODING 38844
SWIDTH 640 0
DWIDTH 16 0
BBX 16 16 0 -1
BITMAP
2410
2C30
7EFE
7EB2
2CFE
3C30
3FFF
7EFE
52FE
7EFE
50FE
12FE
7EFE
10FC
10C6
1303
ENDCHAR
STARTCHAR char33639
ENCODING 39737
SWIDTH 640 0
DWIDTH 16 0
BBX 16 16 0 -1
BITMAP
0000
10FE
3CFE
3CFE
7EFE
7EFF
65CF
418F
7FFE
0FF8
0FFC
0FFA
3FFE
2FFA
208E
208C
ENDCHAR
STARTCHAR char33640
ENCODING 39978
SWIDTH 640 0
DWIDTH 16 0
BBX 16 16 0 -1
BITMAP
1010
3030
3CFE
3CFE
6830
7FFF
5220
7E44
52FE
52F3
7FFE
05FE
7D4A
7F4A
D3FF
01FF
ENDCHAR
STARTCHAR char33641
ENCODING 39974
SWIDTH 640 0
DWIDTH 16 0
BBX 16 16 0 -1
BITMAP
1000
308C
3C48
3C00
69FF
7ECC
52C8
7EAA
52AA
53FE
7F54
04C4
7ACA
7F4B
D1FF
0101
ENDCHAR
STARTCHAR char33642
ENCODING 39975
SWIDTH 640 0
DWIDTH 16 0
BBX 16 16 0 -1
BITMAP
0020
7926
49AC
4840
4BFE
7880
4FFF
4906
4AFB
79FC
4BFC
49FC
49FC
49FE
DB5B
D249
ENDCHAR
STARTCHAR char33643
ENCODING 40384
SWIDTH 640 0
DWIDTH 16 0
BBX 16 16 0 -1
BITMAP
1100
3310
7F7E
7F7E
027E
007E
227E
6EFC
7FFF
7F40
337F
330F
337B
55FF
FECE
000C
ENDCHAR
STARTCHAR char33644
ENCODING 40393
SWIDTH 640 0
DWIDTH 16 0
BBX 16 16 0 -1
BITMAP
0000
0710
7C7E
647E
477E
5FFE
54FE
547C
5F7E
57C0
507F
5F03
7F7F
FFFB
2BCE
700C
ENDCHAR
STARTCHAR char33645
ENCODING 40684
SWIDTH 640 0
DWIDTH 16 0
BBX 16 16 0 -1
BITMAP
0008
7E0A
4A08
6EFF
7E88
4A88
7EFB
088B
3EFA
3EDC
7EDC
7EFC
7CCD
5B13
D123
0301
ENDCHAR
STARTCHAR char33646
ENCODING 40808
SWIDTH 640 0
DWIDTH 16 0
BBX 16 16 0 -1
BITMAP
0000
2C18
2FB7
2C47
7FC3
5543
5543
7F43
6177
7F77
5543
5543
7F43
6B43
7F7F
3F43
ENDCHAR
STARTCHAR char33647
ENCODING 32818
SWIDTH 640 0
DWIDTH 16 0
BBX 16 16 0 -1
BITMAP
0000
1020
1DFF
7900
11FF
7F4B
11FE
15B6
7E78
19FE
3D20
7452
519E
178C
10F7
10C3
ENDCHAR
STARTCHAR char33648
ENCODING 32817
SWIDTH 640 0
DWIDTH 16 0
BBX 16 16 0 -1
BITMAP
1020
3030
3FFF
7F44
33FF
7FCC
33FF
33FF
7F55
33FF
3B20
7F42
72FE
3742
347E
347E
ENDCHAR
STARTCHAR char33649
ENCODING 35325
SWIDTH 640 0
DWIDTH 16 0
BBX 16 16 0 -1
BITMAP
1010
35B2
3FFE
24FE
7ED0
7EFE
4BFE
4AFE
7EFE
4AFF
7EC6
7FEF
433F
433B
4F07
CD06
ENDCHAR
STARTCHAR char33650
ENCODING 37006
SWIDTH 640 0
DWIDTH 16 0
BBX 16 16 0 -1
BITMAP
0000
210C
33E8
367E
0592
773C
3608
37F6
3BBF
0B8C
1F9E
17BF
34ED
77CC
CFFF
07FF
ENDCHAR
STARTCHAR char33651
ENCODING 38850
SWIDTH 640 0
DWIDTH 16 0
BBX 16 16 0 -1
BITMAP
2400
2C40
7EFC
7FFF
2CBC
3CAC
3CD6
7E90
52FF
7E80
50FE
11FE
7F3C
117E
1342
127E
ENDCHAR
STARTCHAR char33652
ENCODING 39499
SWIDTH 640 0
DWIDTH 16 0
BBX 16 16 0 -1
BITMAP
0000
7FEA
502F
54CF
7EC6
51C3
7EDC
7C54
51D7
7F33
03FE
7AFE
764E
F44C
1DDE
18F3
ENDCHAR
STARTCHAR char33653
ENCODING 39708
SWIDTH 640 0
DWIDTH 16 0
BBX 16 16 0 -1
BITMAP
0000
3F86
3F3A
3F2E
7FF3
7F7F
7F3C
3F7E
3F7E
3F7E
23C2
27E2
27E2
27E2
2466
2844
ENDCHAR
STARTCHAR char33654
ENCODING 39707
SWIDTH 640 0
DWIDTH 16 0
BBX 16 16 0 -1
BITMAP
0000
3F8C
3F7A
3F6E
7FF3
274F
7970
3FFE
27E2
27F2
3FFE
3FE8
3DE8
3DEB
3FF6
31C2
ENDCHAR
STARTCHAR char33655
ENCODING 40002
SWIDTH 640 0
DWIDTH 16 0
BBX 16 16 0 -1
BITMAP
1048
31C8
3FCF
3FDB
4BE6
7FDC
57EC
7DD4
54E4
57FF
7DD4
01DC
7DCC
7FC4
FACC
04CC
ENDCHAR
STARTCHAR char33656
ENCODING 22224
SWIDTH 640 0
DWIDTH 16 0
BBX 16 16 0 -1
BITMAP
0004
00EC
F3FE
F7FF
D7ED
D7FF
D7EC
D7EC
D7EC
D7EC
F7EC
F7FE
0FFA
0FFA
0AFB
0013
ENDCHAR
STARTCHAR char33657
ENCODING 22223
SWIDTH 640 0
DWIDTH 16 0
BBX 16 16 0 -1
BITMAP
1200
3210
7FFF
7FFF
1E7E
487E
7FFE
4BC2
7F7E
3F24
7F7F
0802
7FFE
14C2
23FE
40FE
ENDCHAR
STARTCHAR char33658
ENCODING 24026
SWIDTH 640 0
DWIDTH 16 0
BBX 16 16 0 -1
BITMAP
0080
1086
3FFC
3FFC
0F88
0F8A
7FE8
5F88
5FFF
5F88
5F88
5F9C
7AD4
7FF6
74E3
F4C3
ENDCHAR
STARTCHAR char33659
ENCODING 26346
SWIDTH 640 0
DWIDTH 16 0
BBX 16 16 0 -1
BITMAP
0000
07FE
F4D2
F4D2
D7FE
D338
D2AC
F5BF
DF6C
D2AC
D7BE
D7EC
F0BE
0FAC
053F
043F
ENDCHAR
STARTCHAR char33660
ENCODING 35721
SWIDTH 640 0
DWIDTH 16 0
BBX 16 16 0 -1
BITMAP
0000
2212
31FE
7DD2
007E
077F
7B3C
037E
7BFE
78C2
30FE
797E
4936
4BE3
7EFF
7C7F
ENDCHAR
STARTCHAR char33661
ENCODING 37976
SWIDTH 640 0
DWIDTH 16 0
BBX 16 16 0 -1
BITMAP
0000
10FE
38B4
3CB4
24FC
7CB4
30FC
30FC
7FDF
33DF
7ED7
7BDF
7ED7
3ED7
E3DF
0253
ENDCHAR
STARTCHAR char33662
ENCODING 40423
SWIDTH 640 0
DWIDTH 16 0
BBX 16 16 0 -1
BITMAP
0000
0810
7FFE
08FE
7FFE
7FFE
41FE
FEFC
3CFE
3EC0
3E7F
3E03
36F7
16EB
788E
000C
ENDCHAR
STARTCHAR char33664
ENCODING 21456
SWIDTH 640 0
DWIDTH 16 0
BBX 16 16 0 -1
BITMAP
0000
000C
3FFE
3F00
0202
7FFF
0400
0400
0FFC
0E18
0910
10B0
30E0
61F0
0F1F
1C07
ENDCHAR
STARTCHAR char33665
ENCODING 21494
SWIDTH 640 0
DWIDTH 16 0
BBX 16 16 0 -1
BITMAP
0020
0020
7C20
7C20
4C20
4C22
4FFF
4C20
4C20
4C20
7C20
7C20
4020
0020
0020
0020
ENDCHAR
STARTCHAR char33666
ENCODING 21495
SWIDTH 640 0
DWIDTH 16 0
BBX 16 16 0 -1
BITMAP
0000
1FF8
1008
1008
1FF8
1FF8
0002
7FFF
0C00
0800
0FFC
000C
000C
0008
01F8
0070
ENDCHAR
STARTCHAR char33667
ENCODING 21497
SWIDTH 640 0
DWIDTH 16 0
BBX 16 16 0 -1
BITMAP
0000
0000
7DFE
7DFE
4D02
4C86
4C84
4C84
4CCC
4C48
7C78
7C30
4030
00C8
0387
0603
ENDCHAR
STARTCHAR char33668
ENCODING 21492
SWIDTH 640 0
DWIDTH 16 0
BBX 16 16 0 -1
BITMAP
0200
0200
0200
7FF0
0230
0430
0C33
0C33
381E
6000
1FFC
100C
100C
100C
1FFC
1FFC
ENDCHAR
STARTCHAR char33669
ENCODING 22308
SWIDTH 640 0
DWIDTH 16 0
BBX 16 16 0 -1
BITMAP
0000
1040
1040
1040
1040
7E40
1070
104C
1046
1043
1241
1E40
7040
0040
0040
0040
ENDCHAR
STARTCHAR char33670
ENCODING 22788
SWIDTH 640 0
DWIDTH 16 0
BBX 16 16 0 -1
BITMAP
0800
0820
0820
1020
1F20
3320
3330
3268
724C
4CC4
0C86
0D02
0E00
1200
21FF
40FE
ENDCHAR
STARTCHAR char33671
ENCODING 22808
SWIDTH 640 0
DWIDTH 16 0
BBX 16 16 0 -1
BITMAP
0000
1000
1F7E
1F7E
3142
3142
3342
6B42
4742
0242
0642
0442
085E
1044
6040
4040
ENDCHAR
STARTCHAR char33672
ENCODING 22834
SWIDTH 640 0
DWIDTH 16 0
BBX 16 16 0 -1
BITMAP
0080
0080
0080
0102
7FFF
0340
02E0
04B0
0898
108C
2087
408B
1FF8
0080
0080
0080
ENDCHAR
STARTCHAR char33673
ENCODING 22832
SWIDTH 640 0
DWIDTH 16 0
BBX 16 16 0 -1
BITMAP
0000
0100
0100
0302
7FFF
0620
0C10
180C
6637
4432
0430
0430
0C30
0830
1830
3030
ENDCHAR
STARTCHAR char33674
ENCODING 22836
SWIDTH 640 0
DWIDTH 16 0
BBX 16 16 0 -1
BITMAP
0080
0080
1880
0C80
2480
3880
0C80
0080
7FFF
7FFF
0170
0318
020C
0406
1803
7000
ENDCHAR
STARTCHAR char33675
ENCODING 22901
SWIDTH 640 0
DWIDTH 16 0
BBX 16 16 0 -1
BITMAP
0000
1002
11FF
1208
3208
7E08
3208
3608
2408
6408
1C08
0C08
1E08
3008
6078
4030
ENDCHAR
STARTCHAR char33676
ENCODING 23426
SWIDTH 640 0
DWIDTH 16 0
BBX 16 16 0 -1
BITMAP
0000
0180
0080
3FFE
2006
4624
0420
0420
0420
0420
0420
0C23
0823
1823
303F
601E
ENDCHAR
STARTCHAR char33677
ENCODING 23545
SWIDTH 640 0
DWIDTH 16 0
BBX 16 16 0 -1
BITMAP
0000
0004
0004
7E04
4204
22FF
3204
1404
1C44
0C24
0C34
1C04
1604
3204
633C
000C
ENDCHAR
STARTCHAR char33678
ENCODING 23572
SWIDTH 640 0
DWIDTH 16 0
BBX 16 16 0 -1
BITMAP
0000
0C00
0C00
0800
1FFF
3002
60C4
00C0
0CC0
0CC8
08CC
10C6
20C3
40C0
07C0
0180
ENDCHAR
STARTCHAR char33679
ENCODING 24193
SWIDTH 640 0
DWIDTH 16 0
BBX 16 16 0 -1
BITMAP
0000
0080
3FFF
3FFF
3000
3006
3FFE
3040
3040
3040
3040
2040
2040
6040
43C0
40C0
ENDCHAR
STARTCHAR char33680
ENCODING 24195
SWIDTH 640 0
DWIDTH 16 0
BBX 16 16 0 -1
BITMAP
0000
0080
3FFF
3FFF
3040
30C0
3080
3180
3100
3310
3208
260C
243C
7FFE
4802
4000
ENDCHAR
STARTCHAR char33681
ENCODING 24333
SWIDTH 640 0
DWIDTH 16 0
BBX 16 16 0 -1
BITMAP
0000
0048
0044
0040
7FFF
7FFF
0040
0120
3FA0
0030
0030
0011
3F99
3F8D
0007
0003
ENDCHAR
STARTCHAR char33682
ENCODING 24402
SWIDTH 640 0
DWIDTH 16 0
BBX 16 16 0 -1
BITMAP
0800
0800
0BFE
0BFE
4802
6802
3802
3802
0BFE
1802
1002
1002
3002
23FE
6002
4000
ENDCHAR
STARTCHAR char33683
ENCODING 24522
SWIDTH 640 0
DWIDTH 16 0
BBX 16 16 0 -1
BITMAP
1000
3000
33FF
33FF
3010
7810
7C10
7010
3010
3010
3010
3010
3010
3010
30F0
30F0
ENDCHAR
STARTCHAR char33684
ENCODING 24519
SWIDTH 640 0
DWIDTH 16 0
BBX 16 16 0 -1
BITMAP
1020
3020
3020
3020
31FF
79FF
7C23
7023
3023
3043
3043
3043
30C3
3182
333E
360C
ENDCHAR
STARTCHAR char33685
ENCODING 25145
SWIDTH 640 0
DWIDTH 16 0
BBX 16 16 0 -1
BITMAP
0008
01FC
3F00
3002
3FFE
3002
3FFE
3FFE
37F8
37F8
3070
31C0
2303
6403
47FF
43FF
ENDCHAR
STARTCHAR char33686
ENCODING 25167
SWIDTH 640 0
DWIDTH 16 0
BBX 16 16 0 -1
BITMAP
1040
30C0
30C0
30C0
7CC0
7FF8
30C8
30C8
3888
7088
3088
3108
3309
3309
760F
6407
ENDCHAR
STARTCHAR char33687
ENCODING 26087
SWIDTH 640 0
DWIDTH 16 0
BBX 16 16 0 -1
BITMAP
0000
2202
23FE
2202
2202
2202
2202
23FE
2202
2202
2202
2202
2202
23FE
2202
2000
ENDCHAR
STARTCHAR char33688
ENCODING 26415
SWIDTH 640 0
DWIDTH 16 0
BBX 16 16 0 -1
BITMAP
0000
0120
0110
0108
3FFE
3FFE
03C0
0340
0760
0520
0930
1118
210C
4107
0102
0100
ENDCHAR
STARTCHAR char33689
ENCODING 27514
SWIDTH 640 0
DWIDTH 16 0
BBX 16 16 0 -1
BITMAP
0080
0080
0080
00FE
0680
0484
0FFE
180C
3608
6310
01A0
00C0
0180
0700
1C00
7000
ENDCHAR
STARTCHAR char33690
ENCODING 27705
SWIDTH 640 0
DWIDTH 16 0
BBX 16 16 0 -1
BITMAP
0010
0030
7F30
0232
07F6
05FC
08F0
18B8
11BC
3136
2233
60B0
4063
6003
3FFF
0FFC
ENDCHAR
STARTCHAR char33691
ENCODING 27703
SWIDTH 640 0
DWIDTH 16 0
BBX 16 16 0 -1
BITMAP
0080
0080
1080
0884
048E
0098
7EF0
7EC0
0CE0
0CA0
0890
1088
2087
4083
0780
0300
ENDCHAR
STARTCHAR char33692
ENCODING 27716
SWIDTH 640 0
DWIDTH 16 0
BBX 16 16 0 -1
BITMAP
0000
3040
1840
0C40
0040
6040
3040
10E0
00E0
08B0
1890
1118
3308
630C
4607
0C03
ENDCHAR
STARTCHAR char33693
ENCODING 27717
SWIDTH 640 0
DWIDTH 16 0
BBX 16 16 0 -1
BITMAP
0000
2000
17FF
08C0
00C0
4080
60FE
31FE
0002
1802
1002
3002
2006
6004
4078
0030
ENDCHAR
STARTCHAR char33694
ENCODING 29580
SWIDTH 640 0
DWIDTH 16 0
BBX 16 16 0 -1
BITMAP
0040
02C0
7EC0
10C0
10C0
10C0
7EC0
7EC0
10C0
10C0
10C0
16C0
7CC3
70C3
007F
003E
ENDCHAR
STARTCHAR char33695
ENCODING 37011
SWIDTH 640 0
DWIDTH 16 0
BBX 16 16 0 -1
BITMAP
0000
017F
7FC2
2146
3144
114C
1B48
0B44
0E42
0443
0E43
0E43
1B4E
314C
6140
4040
ENDCHAR
STARTCHAR char33696
ENCODING 37010
SWIDTH 640 0
DWIDTH 16 0
BBX 16 16 0 -1
BITMAP
0000
017F
7FC2
0C46
0C44
0C4C
0C48
0C44
0C42
0C42
0C43
0C43
0C4F
0C4E
3C40
3840
ENDCHAR
STARTCHAR char33697
ENCODING 40426
SWIDTH 640 0
DWIDTH 16 0
BBX 16 16 0 -1
BITMAP
0000
3F7E
3F7E
3F7E
3F7E
3F7E
7FFF
7FFF
DFF2
1010
1FF0
1FFE
1FFF
2FFF
24DE
400C
ENDCHAR
STARTCHAR char33698
ENCODING 40433
SWIDTH 640 0
DWIDTH 16 0
BBX 16 16 0 -1
BITMAP
0800
0810
7F7E
7F7E
7F7E
7F7E
7F7E
437C
7E7F
0840
6FFF
6F93
7FFF
7FFB
088E
080C
ENDCHAR
STARTCHAR char33699
ENCODING 40772
SWIDTH 640 0
DWIDTH 16 0
BBX 16 16 0 -1
BITMAP
0800
0A10
3E10
3EFF
3E3C
3E76
3ED3
7F10
7F7E
7F7E
7E7E
7FFE
327E
327E
22FF
42FF
ENDCHAR
STARTCHAR char33700
ENCODING 40813
SWIDTH 640 0
DWIDTH 16 0
BBX 16 16 0 -1
BITMAP
0000
2813
2FEC
28CC
7FCC
7DEC
FFFF
FFFF
FFFE
FFEE
FFCE
FFCA
FF8A
EB92
FF92
7F22
ENDCHAR
STARTCHAR char33701
ENCODING 24025
SWIDTH 640 0
DWIDTH 16 0
BBX 16 16 0 -1
BITMAP
1008
30C8
33FF
33FF
7D36
7FFF
7F7E
7F5D
7FFF
7EFC
7DBE
7FFF
7CD8
0330
00FF
0787
ENDCHAR
STARTCHAR char33702
ENCODING 34874
SWIDTH 640 0
DWIDTH 16 0
BBX 16 16 0 -1
BITMAP
0000
7E7E
0810
7F7F
1E2C
3346
5FFC
100C
1FFC
1FFC
3F3E
7F7F
7F7F
3F3E
7F7F
70F1
ENDCHAR
STARTCHAR char33703
ENCODING 35189
SWIDTH 640 0
DWIDTH 16 0
BBX 16 16 0 -1
BITMAP
0000
23FE
31FC
09FC
79FC
19FC
13FF
3C00
37FF
7BFE
32F2
33FE
32F2
33FF
36C2
30C2
ENDCHAR
STARTCHAR char33704
ENCODING 39517
SWIDTH 640 0
DWIDTH 16 0
BBX 16 16 0 -1
BITMAP
0000
7E30
51FF
50FE
7FFF
51FF
7EFE
7C7C
51C4
7FFE
0430
7DFE
7C74
F4F2
1DB0
1830
ENDCHAR
STARTCHAR char33705
ENCODING 40036
SWIDTH 640 0
DWIDTH 16 0
BBX 16 16 0 -1
BITMAP
1008
300A
3DFF
3DFF
6978
7D7B
557B
55FA
7DFE
55FC
7D0C
053C
7FCD
7FDF
D3F3
0471
ENDCHAR
STARTCHAR char33706
ENCODING 40458
SWIDTH 640 0
DWIDTH 16 0
BBX 16 16 0 -1
BITMAP
0008
2A08
3B3E
2FFE
2ABE
2ABE
3BBE
233C
27FF
3B3F
2FFF
6FCF
6B3F
EB73
3B4F
030E
ENDCHAR
STARTCHAR char33707
ENCODING 40819
SWIDTH 640 0
DWIDTH 16 0
BBX 16 16 0 -1
BITMAP
0000
2CC0
2FFF
2C92
7F7E
5010
5FFE
5FFE
6BFE
7FFE
5FFE
5FFE
6FFF
53FF
7F10
3F10
ENDCHAR
STARTCHAR char33708
ENCODING 30689
SWIDTH 640 0
DWIDTH 16 0
BBX 16 16 0 -1
BITMAP
0000
7DFF
0BFF
33FF
13FF
17FF
7EFE
15FE
3FFE
31FE
51FE
50FE
11FE
1068
30FF
33C7
ENDCHAR
STARTCHAR char33709
ENCODING 39725
SWIDTH 640 0
DWIDTH 16 0
BBX 16 16 0 -1
BITMAP
0001
7F7F
4C33
7F7F
4C33
7F7F
5B0B
7FFB
7FC3
5F7F
7FCB
7ECB
5FCB
4FCB
5C8B
4002
ENDCHAR
STARTCHAR char33710
ENCODING 40460
SWIDTH 640 0
DWIDTH 16 0
BBX 16 16 0 -1
BITMAP
0008
1048
3FCF
7CC8
7CFF
7DFF
7EFE
7C90
7EFE
40FF
7F00
03FE
7F4C
7B28
CE3F
0FE7
ENDCHAR
STARTCHAR char33711
ENCODING 40735
SWIDTH 640 0
DWIDTH 16 0
BBX 16 16 0 -1
BITMAP
0000
7F90
3F7F
3F12
3F7E
3F34
173C
7FF6
7F12
3F6C
0FFC
1BDF
6FF0
0FF8
0220
7FFE
ENDCHAR
STARTCHAR char33712
ENCODING 31856
SWIDTH 640 0
DWIDTH 16 0
BBX 16 16 0 -1
BITMAP
1020
3122
3FFF
44C8
3F7E
3F7E
3F7E
3FFE
1FFC
3FFC
5FFC
1FFE
0FF0
0FF0
07FF
7E3F
ENDCHAR
STARTCHAR char33713
ENCODING 38009
SWIDTH 640 0
DWIDTH 16 0
BBX 16 16 0 -1
BITMAP
1000
3020
33FF
2AD2
239E
4BFC
79DC
31DC
7DFC
7C24
FFB4
7FB4
7BBD
3F65
7BBF
6133
ENDCHAR
STARTCHAR char33714
ENCODING 38730
SWIDTH 640 0
DWIDTH 16 0
BBX 16 16 0 -1
BITMAP
0000
1FFE
3FFF
7FFF
5EBA
1EBC
0E38
2EBA
3EFA
3FFE
3FFE
3FFE
1FF8
1FF8
7FFF
7FFF
ENDCHAR
STARTCHAR char33715
ENCODING 32413
SWIDTH 640 0
DWIDTH 16 0
BBX 16 16 0 -1
BITMAP
0000
31FE
21FC
29FC
49FC
57DF
77FF
27FF
2FFF
5C68
60F0
28C4
FFFE
54B8
53F6
0262
ENDCHAR
STARTCHAR char33716
ENCODING 39264
SWIDTH 640 0
DWIDTH 16 0
BBX 16 16 0 -1
BITMAP
0000
11FF
3F4B
374B
39FE
7990
7D54
4FDF
7FBC
4DBE
7FFC
4BFC
4C7E
4CBC
75FF
613F
ENDCHAR
STARTCHAR char33717
ENCODING 40862
SWIDTH 640 0
DWIDTH 16 0
BBX 16 16 0 -1
BITMAP
0110
2F30
3F3F
7FE4
5F9C
4477
0FC0
7FFE
3FFC
7FFC
7FFE
7FFE
7FF2
7FFF
3FFF
39FF
ENDCHAR
STARTCHAR char33718
ENCODING 40696
SWIDTH 640 0
DWIDTH 16 0
BBX 16 16 0 -1
BITMAP
0000
7E30
523E
76FF
7EB0
52FE
7EBF
109E
3CFE
3CFE
7EFE
7EBC
7DFF
5FFF
D3FF
00FF
ENDCHAR
STARTCHAR char33719
ENCODING 40762
SWIDTH 640 0
DWIDTH 16 0
BBX 16 16 0 -1
BITMAP
0000
5842
677E
4352
777E
4352
7E7E
48EF
4BFF
7FFF
4BFF
7FFF
49EF
5AC1
6C73
001F
ENDCHAR
STARTCHAR char33720
ENCODING 40829
SWIDTH 640 0
DWIDTH 16 0
BBX 16 16 0 -1
BITMAP
0420
2C24
2F7F
2C7F
7FF6
547F
57AD
5F24
6B3E
7F3E
57FF
57FF
6F2C
4B4A
7F89
3F08
ENDCHAR
STARTCHAR char33721
ENCODING 40854
SWIDTH 640 0
DWIDTH 16 0
BBX 16 16 0 -1
BITMAP
0404
2C2C
7FFF
5FFF
7E7F
7FF7
0F07
7E7E
5EFE
7EFE
5EFE
5EFE
7EFE
5CFD
FFFF
F727
ENDCHAR
STARTCHAR char33722
ENCODING 26409
SWIDTH 640 0
DWIDTH 16 0
BBX 16 16 0 -1
BITMAP
0080
0080
0080
0080
7FFF
7FFF
0C80
0C90
0C90
0C90
0C90
0890
1890
309F
608F
0080
ENDCHAR
STARTCHAR char33723
ENCODING 24071
SWIDTH 640 0
DWIDTH 16 0
BBX 16 16 0 -1
BITMAP
0080
0080
1FF8
1FF8
7FFF
7FFF
0088
1FF8
0080
3FFE
2084
2084
2084
209C
2088
0080
ENDCHAR
STARTCHAR char33724
ENCODING 24523
SWIDTH 640 0
DWIDTH 16 0
BBX 16 16 0 -1
BITMAP
0000
1002
11FE
1002
5802
5C02
D7FE
13FE
1300
1300
1300
1300
1303
1303
13FF
11FF
ENDCHAR
STARTCHAR char33725
ENCODING 21175
SWIDTH 640 0
DWIDTH 16 0
BBX 16 16 0 -1
BITMAP
0000
2310
3210
1410
7FFF
0C7F
3F13
3F13
0C13
0D33
7FB3
0823
0862
10C2
219E
430C
ENDCHAR
STARTCHAR char33726
ENCODING 21176
SWIDTH 640 0
DWIDTH 16 0
BBX 16 16 0 -1
BITMAP
0800
0810
0810
7F90
087F
087F
0813
7F93
0013
0833
3F33
3F23
0923
0F42
789E
010C
ENDCHAR
STARTCHAR char33727
ENCODING 21174
SWIDTH 640 0
DWIDTH 16 0
BBX 16 16 0 -1
BITMAP
0000
0390
7E10
7010
4010
7FFF
4013
4113
5F93
5113
5113
5133
5123
5FE3
505E
C084
ENDCHAR
STARTCHAR char33728
ENCODING 21178
SWIDTH 640 0
DWIDTH 16 0
BBX 16 16 0 -1
BITMAP
0800
0810
1810
1110
3FBF
3CBF
3C13
3C93
3F93
4C13
0C33
7FB3
0C23
0C42
0C9E
0D0C
ENDCHAR
STARTCHAR char33729
ENCODING 25350
SWIDTH 640 0
DWIDTH 16 0
BBX 16 16 0 -1
BITMAP
0000
10F8
1088
1488
7E88
1188
110F
1220
1C22
73FF
5020
11A8
1324
1222
7420
3020
ENDCHAR
STARTCHAR char33730
ENCODING 27525
SWIDTH 640 0
DWIDTH 16 0
BBX 16 16 0 -1
BITMAP
0010
0630
7EB0
30B0
3DB0
3DFE
6530
4730
3E30
1DFE
0830
1030
3030
2030
43FF
03FF
ENDCHAR
STARTCHAR char33731
ENCODING 35896
SWIDTH 640 0
DWIDTH 16 0
BBX 16 16 0 -1
BITMAP
0000
0668
38C4
2882
0930
0830
7E68
7ECC
0987
0BFF
0884
1084
3084
3084
20FC
40FC
ENDCHAR
STARTCHAR char33732
ENCODING 29449
SWIDTH 640 0
DWIDTH 16 0
BBX 16 16 0 -1
BITMAP
0004
4D0C
390C
13FF
390C
690C
0DFC
0D0C
1DFC
3D0C
6D0C
0FFF
0CC0
0DCC
3B06
3603
ENDCHAR
STARTCHAR char33733
ENCODING 35375
SWIDTH 640 0
DWIDTH 16 0
BBX 16 16 0 -1
BITMAP
0000
21FC
10CC
7ECC
00C8
00C8
7CFE
00FE
7CE2
00E4
7CBC
4C9C
4D98
4D3C
7E67
01C3
ENDCHAR
STARTCHAR char33734
ENCODING 21212
SWIDTH 640 0
DWIDTH 16 0
BBX 16 16 0 -1
BITMAP
0008
1A08
3108
3C88
6A08
113F
3F8B
088B
7BCB
4ACB
39CB
18D3
6BD3
4AF3
18EE
10C4
ENDCHAR
STARTCHAR char33735
ENCODING 22817
SWIDTH 640 0
DWIDTH 16 0
BBX 16 16 0 -1
BITMAP
0000
1810
1E10
3E10
37FF
5410
0810
1CFF
6F00
5F82
32FE
4E82
0C82
1882
30FE
60FE
ENDCHAR
STARTCHAR char33736
ENCODING 24127
SWIDTH 640 0
DWIDTH 16 0
BBX 16 16 0 -1
BITMAP
1000
3104
317E
3104
FF7F
FF7F
FF20
FF7E
FF48
FF88
FFFF
FF10
3B34
3332
3363
33C1
ENDCHAR
STARTCHAR char33737
ENCODING 31551
SWIDTH 640 0
DWIDTH 16 0
BBX 16 16 0 -1
BITMAP
0020
1120
3FFF
68D8
4F0C
0208
07F8
1E30
61E0
03E0
7C1F
7FFF
0808
0808
0FF8
0FF8
ENDCHAR
STARTCHAR char33738
ENCODING 33744
SWIDTH 640 0
DWIDTH 16 0
BBX 16 16 0 -1
BITMAP
0000
0344
1348
0B50
7FFF
0418
0620
7FFE
0080
3FFE
0080
7FFF
0100
0338
1E0E
7803
ENDCHAR
STARTCHAR char33739
ENCODING 34535
SWIDTH 640 0
DWIDTH 16 0
BBX 16 16 0 -1
BITMAP
0000
13FF
1303
1303
7FFF
7FFF
57F7
576F
574F
7F4F
53EF
1FF7
1FB7
1F23
6707
0306
ENDCHAR
STARTCHAR char33740
ENCODING 24855
SWIDTH 640 0
DWIDTH 16 0
BBX 16 16 0 -1
BITMAP
0000
7FA0
0220
0C7F
7FC4
7FE4
1C9C
341C
6436
1CE3
0800
0484
3CCA
2C4B
6FF9
47F8
ENDCHAR
STARTCHAR char33741
ENCODING 34580
SWIDTH 640 0
DWIDTH 16 0
BBX 16 16 0 -1
BITMAP
0040
10C0
10FF
10FF
FD83
D503
D7FF
D6AF
D4FF
FEFF
10AF
14FF
1C83
3E03
620E
000C
ENDCHAR
STARTCHAR char33742
ENCODING 35025
SWIDTH 640 0
DWIDTH 16 0
BBX 16 16 0 -1
BITMAP
0020
3020
11FC
7DFC
0DFC
09FC
1F04
1DFC
3507
533E
11EC
111C
1074
10C4
131C
101C
ENDCHAR
STARTCHAR char33743
ENCODING 36043
SWIDTH 640 0
DWIDTH 16 0
BBX 16 16 0 -1
BITMAP
0000
4420
7E12
45FF
7C40
7C44
44C6
7D87
44CC
4448
7C68
7C30
3430
2678
62C7
4183
ENDCHAR
STARTCHAR char33744
ENCODING 36589
SWIDTH 640 0
DWIDTH 16 0
BBX 16 16 0 -1
BITMAP
0000
1102
7DFF
7D00
117E
FF7E
D510
FD12
D57E
D510
7D10
1110
7F7F
1100
11FF
10FF
ENDCHAR
STARTCHAR char33745
ENCODING 21228
SWIDTH 640 0
DWIDTH 16 0
BBX 16 16 0 -1
BITMAP
0408
2D08
3F08
0A08
7FFF
103F
7FCB
398B
3ECB
7E13
0B13
3F93
1533
35A3
2CBE
0C44
ENDCHAR
STARTCHAR char33746
ENCODING 21224
SWIDTH 640 0
DWIDTH 16 0
BBX 16 16 0 -1
BITMAP
0808
0808
1F08
3208
3FFF
64FF
3FCB
3F8B
1C8B
7713
0A13
3F13
4BB3
32A3
4E7E
0C44
ENDCHAR
STARTCHAR char33747
ENCODING 29991
SWIDTH 640 0
DWIDTH 16 0
BBX 16 16 0 -1
BITMAP
2000
2852
7FFE
4892
7E7E
0B10
7CFF
7000
0FFC
0C0C
0FFC
0C0C
0FFC
080C
103C
2038
ENDCHAR
STARTCHAR char33748
ENCODING 31116
SWIDTH 640 0
DWIDTH 16 0
BBX 16 16 0 -1
BITMAP
0000
208C
10C8
0000
7DFF
0C8C
1988
117A
3B52
7FDE
3094
308C
31CA
3153
33DF
3201
ENDCHAR
STARTCHAR char33749
ENCODING 31121
SWIDTH 640 0
DWIDTH 16 0
BBX 16 16 0 -1
BITMAP
0000
21FE
1134
0134
7DFC
0D34
09FC
11FC
3BFF
5FFF
133B
133F
13FF
13E3
1307
1306
ENDCHAR
STARTCHAR char33750
ENCODING 34400
SWIDTH 640 0
DWIDTH 16 0
BBX 16 16 0 -1
BITMAP
0000
1010
181E
7F1E
34FF
22B3
66BE
64B0
3C9E
1C80
08AC
1CAC
36AC
236F
434F
0287
ENDCHAR
STARTCHAR char33751
ENCODING 39172
SWIDTH 640 0
DWIDTH 16 0
BBX 16 16 0 -1
BITMAP
0020
1820
1430
3258
3CCC
40C6
7C83
45FE
7C00
4484
7CFE
4084
4484
4684
7AFC
30FC
ENDCHAR
STARTCHAR char33752
ENCODING 39323
SWIDTH 640 0
DWIDTH 16 0
BBX 16 16 0 -1
BITMAP
0000
0E48
7844
0840
7FFF
18FF
2E46
4B44
7C64
7E6C
42F8
7ED0
4298
43BC
7F67
02C3
ENDCHAR
STARTCHAR char33753
ENCODING 29343
SWIDTH 640 0
DWIDTH 16 0
BBX 16 16 0 -1
BITMAP
0000
7C68
04C4
7DFE
4132
7DFE
4532
05FE
0DFC
3BFE
1C80
0FFC
1080
7FFF
0080
0080
ENDCHAR
STARTCHAR char33754
ENCODING 34672
SWIDTH 640 0
DWIDTH 16 0
BBX 16 16 0 -1
BITMAP
0010
1030
11FF
11FF
7C68
7CFC
54B7
557F
5430
7E30
51FF
1400
1CFE
3EFE
61FF
01FF
ENDCHAR
STARTCHAR char33755
ENCODING 36407
SWIDTH 640 0
DWIDTH 16 0
BBX 16 16 0 -1
BITMAP
0020
7E22
4422
45FC
442C
442C
7FFF
11FF
7E20
5EFE
5382
5282
52FE
5E82
70FE
40FE
ENDCHAR
STARTCHAR char33756
ENCODING 38659
SWIDTH 640 0
DWIDTH 16 0
BBX 16 16 0 -1
BITMAP
0000
3FFE
3FFF
3FFF
5CFA
02F0
1C9C
2040
13FE
07FE
6464
0060
08E0
11A3
233F
263F
ENDCHAR
STARTCHAR char33757
ENCODING 21238
SWIDTH 640 0
DWIDTH 16 0
BBX 16 16 0 -1
BITMAP
0108
1B08
27E8
5CDF
3752
67B2
27F6
27CC
27CC
24DE
2121
0102
7FFE
0302
0E3E
783C
ENDCHAR
STARTCHAR char33758
ENCODING 25804
SWIDTH 640 0
DWIDTH 16 0
BBX 16 16 0 -1
BITMAP
1008
3108
33DF
37FF
79AC
3020
33FF
31A6
3924
7126
72EB
3470
30D0
3188
7307
6603
ENDCHAR
STARTCHAR char33759
ENCODING 30282
SWIDTH 640 0
DWIDTH 16 0
BBX 16 16 0 -1
BITMAP
0000
00C0
3FFF
3FFF
FF30
7F68
7EFC
3FB3
3E7C
7E7C
3FFE
3F00
3EFF
3C64
2C7E
4CF2
ENDCHAR
STARTCHAR char33760
ENCODING 31417
SWIDTH 640 0
DWIDTH 16 0
BBX 16 16 0 -1
BITMAP
0000
2080
3FFE
6644
4C7F
783F
25FE
2424
25FE
3C44
05FF
7DFF
34FC
3484
24FC
44FC
ENDCHAR
STARTCHAR char33761
ENCODING 31703
SWIDTH 640 0
DWIDTH 16 0
BBX 16 16 0 -1
BITMAP
1020
3122
3FFF
44D8
1D08
1FFE
3080
7FFC
3FFC
3FFC
1FFE
1FF8
0C18
0770
07FF
7F3F
ENDCHAR
STARTCHAR char33762
ENCODING 39327
SWIDTH 640 0
DWIDTH 16 0
BBX 16 16 0 -1
BITMAP
0000
0E1E
78F0
08A3
7FD2
18D4
2EFE
4BFE
4818
7E10
43FF
4210
7E10
4210
7E70
7E70
ENDCHAR
STARTCHAR char33763
ENCODING 39821
SWIDTH 640 0
DWIDTH 16 0
BBX 16 16 0 -1
BITMAP
1008
3408
3E08
24FF
7CCA
7EC8
4AC8
7EFE
4AE2
4AE6
7EF4
00FC
7E9C
579C
D5A7
01C3
ENDCHAR
STARTCHAR char33764
ENCODING 40567
SWIDTH 640 0
DWIDTH 16 0
BBX 16 16 0 -1
BITMAP
0800
0810
0F10
0F38
082C
FFE6
D17F
EBBD
D57E
EF7E
CD06
D524
EB18
CD08
FF0C
FF00
ENDCHAR
STARTCHAR char33765
ENCODING 30283
SWIDTH 640 0
DWIDTH 16 0
BBX 16 16 0 -1
BITMAP
0040
1040
1FFF
1002
57FE
70F2
379E
1402
77FE
53FC
1FFF
1FFF
3532
350F
29FD
40FC
ENDCHAR
STARTCHAR char33766
ENCODING 30370
SWIDTH 640 0
DWIDTH 16 0
BBX 16 16 0 -1
BITMAP
0000
1820
31FC
31FC
7FFE
4FFE
4FFE
4FFE
7DC8
4FFF
4C00
4FFF
4CD0
7D91
431F
0E0F
ENDCHAR
STARTCHAR char33767
ENCODING 34801
SWIDTH 640 0
DWIDTH 16 0
BBX 16 16 0 -1
BITMAP
0040
10C0
1082
10FF
7D00
7DB4
56B4
55FF
54B4
7EB4
50B4
1DFF
1C00
1FCA
632F
032F
ENDCHAR
STARTCHAR char33768
ENCODING 39866
SWIDTH 640 0
DWIDTH 16 0
BBX 16 16 0 -1
BITMAP
0000
0630
3FFE
3FFE
3FFE
0080
7FFF
1A20
37E0
6FFC
3FFC
0FFC
0FFC
1FFC
3322
6333
ENDCHAR
STARTCHAR char33769
ENCODING 34820
SWIDTH 640 0
DWIDTH 16 0
BBX 16 16 0 -1
BITMAP
0010
1030
1038
106C
7CFF
7DFB
54B2
54BA
54FE
7EFC
51FF
15FF
153F
1F7F
6307
0106
ENDCHAR
STARTCHAR char33770
ENCODING 39896
SWIDTH 640 0
DWIDTH 16 0
BBX 16 16 0 -1
BITMAP
1000
300E
3CF8
3CB2
49FF
7E78
4AF4
4BB2
7E24
4A2C
7FFF
0048
7C78
5E38
D0E4
03C2
ENDCHAR
STARTCHAR char33771
ENCODING 40316
SWIDTH 640 0
DWIDTH 16 0
BBX 16 16 0 -1
BITMAP
0000
0810
7F7E
7F7E
557E
F442
247E
47C0
007E
0040
7F7F
084F
097F
0FFB
788E
000C
ENDCHAR
STARTCHAR char33772
ENCODING 31814
SWIDTH 640 0
DWIDTH 16 0
BBX 16 16 0 -1
BITMAP
1020
3120
3FFF
4AA8
3E3F
3E3F
0FFC
1FFC
7FFC
5FFC
1FFE
0FFE
1FF8
0E70
07FE
7E3E
ENDCHAR
STARTCHAR char33773
ENCODING 40333
SWIDTH 640 0
DWIDTH 16 0
BBX 16 16 0 -1
BITMAP
0000
3E10
22FC
3EFC
22FC
3EC4
22FC
01C0
7FFF
30C0
3F7F
5533
2DF7
59EB
37AE
660C
ENDCHAR
STARTCHAR char33774
ENCODING 38270
SWIDTH 640 0
DWIDTH 16 0
BBX 16 16 0 -1
BITMAP
0000
4400
7FFF
40F2
7D31
41FE
7D77
7DFF
7DFF
7D33
2177
65FF
4DFF
5FB7
6337
0136
ENDCHAR
STARTCHAR char33775
ENCODING 39968
SWIDTH 640 0
DWIDTH 16 0
BBX 16 16 0 -1
BITMAP
1000
3002
3DFE
3C56
69BC
7EF8
527F
7FD7
52FC
52FE
7E92
0492
7CFE
7E12
D0FF
01F1
ENDCHAR
STARTCHAR char33776
ENCODING 39970
SWIDTH 640 0
DWIDTH 16 0
BBX 16 16 0 -1
BITMAP
1000
3082
3CFE
3C92
68FE
7E90
4AFE
4AFE
7EFF
4AFF
7E0B
04BF
7CB3
7F02
D03E
C00C
ENDCHAR
STARTCHAR char33777
ENCODING 39966
SWIDTH 640 0
DWIDTH 16 0
BBX 16 16 0 -1
BITMAP
1020
3020
3C40
3CFE
6884
7E84
52FE
5280
7EFF
5280
7EFF
040B
7D5F
7F52
D34E
000C
ENDCHAR
STARTCHAR char33778
ENCODING 35184
SWIDTH 640 0
DWIDTH 16 0
BBX 16 16 0 -1
BITMAP
0000
2100
313F
17FB
7936
13D2
3F5F
3B53
33DF
7BD3
33DF
3353
351F
390E
311B
3171
ENDCHAR
STARTCHAR char33779
ENCODING 40003
SWIDTH 640 0
DWIDTH 16 0
BBX 16 16 0 -1
BITMAP
1000
3064
3DFF
3DFF
6810
7EFE
5210
7FFF
5240
527E
7ED2
04D2
7AFF
7F34
D2FF
00FF
ENDCHAR
STARTCHAR char33780
ENCODING 40416
SWIDTH 640 0
DWIDTH 16 0
BBX 16 16 0 -1
BITMAP
1010
3030
3CFC
3CFC
68FC
7E84
4AFC
7E80
4AFE
4A80
7EFF
0403
7AF7
5FB3
D1AE
000C
ENDCHAR
STARTCHAR char33781
ENCODING 37977
SWIDTH 640 0
DWIDTH 16 0
BBX 16 16 0 -1
BITMAP
0040
11CE
3BCF
3FCF
25CC
42B7
3D20
11FE
7D00
7DFE
56FC
55FE
71FE
17FE
79FE
61FE
ENDCHAR
STARTCHAR char33782
ENCODING 40050
SWIDTH 640 0
DWIDTH 16 0
BBX 16 16 0 -1
BITMAP
1042
30D6
3CAC
3CB6
6852
7FFF
5533
7D7B
55FE
5502
7DFA
01FA
7DFA
7B37
F1FB
00B1
ENDCHAR
STARTCHAR char33783
ENCODING 25904
SWIDTH 640 0
DWIDTH 16 0
BBX 16 16 0 -1
BITMAP
0010
1030
1030
1030
7F7F
107F
1033
7F33
4223
2263
3643
34C2
1C9E
1C0C
27FE
41FE
ENDCHAR
STARTCHAR char33784
ENCODING 29405
SWIDTH 640 0
DWIDTH 16 0
BBX 16 16 0 -1
BITMAP
0000
4C80
3880
1102
39FF
6B18
0E10
0C90
1C94
3D92
6D13
0D13
0E11
0E10
3870
3070
ENDCHAR
STARTCHAR char33785
ENCODING 26628
SWIDTH 640 0
DWIDTH 16 0
BBX 16 16 0 -1
BITMAP
0000
090C
0D98
2010
3FFF
6084
4080
0086
7FFE
0080
0CA0
0C98
188C
3086
6082
0080
ENDCHAR
STARTCHAR char33786
ENCODING 33535
SWIDTH 640 0
DWIDTH 16 0
BBX 16 16 0 -1
BITMAP
0400
0C10
7F7F
7F7F
0CB0
0080
0080
1FFC
0080
7FFF
03C0
06A0
0C98
188E
6083
0080
ENDCHAR
STARTCHAR char33787
ENCODING 36844
SWIDTH 640 0
DWIDTH 16 0
BBX 16 16 0 -1
BITMAP
0000
2040
1060
13FE
0020
7820
1020
3022
3DFE
0C20
0820
1020
33FF
7BFF
C7FF
03FF
ENDCHAR
STARTCHAR char33788
ENCODING 21470
SWIDTH 640 0
DWIDTH 16 0
BBX 16 16 0 -1
BITMAP
0000
3F82
217E
2122
3F22
3F22
2F32
2F34
2034
3F94
241C
3D08
749C
74F6
E463
04C3
ENDCHAR
STARTCHAR char33789
ENCODING 23088
SWIDTH 640 0
DWIDTH 16 0
BBX 16 16 0 -1
BITMAP
1002
3142
3142
3552
3F5A
7F4A
2F42
2F42
6F42
4B46
7B5C
3374
3BEE
3FDB
6711
4320
ENDCHAR
STARTCHAR char33790
ENCODING 23474
SWIDTH 640 0
DWIDTH 16 0
BBX 16 16 0 -1
BITMAP
0000
0180
3FFF
3FFF
6FF2
4FF0
0810
0810
0FF8
0080
7FFF
7FFF
0EB0
188E
6083
4080
ENDCHAR
STARTCHAR char33920
ENCODING 20001
SWIDTH 640 0
DWIDTH 16 0
BBX 16 16 0 -1
BITMAP
0000
0002
7FFF
0080
3FFE
3FFE
2482
2C92
2C92
2C92
2C92
2FF2
2012
2002
201E
200C
ENDCHAR
STARTCHAR char33921
ENCODING 20000
SWIDTH 640 0
DWIDTH 16 0
BBX 16 16 0 -1
BITMAP
0200
0240
0240
0240
0240
7E7E
0240
0240
0240
0343
7E7F
703F
0000
0000
7FFF
7FFF
ENDCHAR
STARTCHAR char33922
ENCODING 20002
SWIDTH 640 0
DWIDTH 16 0
BBX 16 16 0 -1
BITMAP
0004
00FE
3F80
0080
0088
1FFC
0080
0080
7FFF
7FFF
0300
0610
0C08
187C
1F86
1002
ENDCHAR
STARTCHAR char33923
ENCODING 20072
SWIDTH 640 0
DWIDTH 16 0
BBX 16 16 0 -1
BITMAP
0800
0840
1840
1040
3240
2340
7F40
7FC0
00C0
7F40
4340
4340
4343
4343
7F7F
403E
ENDCHAR
STARTCHAR char33924
ENCODING 20105
SWIDTH 640 0
DWIDTH 16 0
BBX 16 16 0 -1
BITMAP
0000
0400
0FE0
3040
7FFC
3FFC
008C
008C
7FFF
008C
3FFC
3FFC
0080
0080
0780
0700
ENDCHAR
STARTCHAR char33925
ENCODING 20120
SWIDTH 640 0
DWIDTH 16 0
BBX 16 16 0 -1
BITMAP
0000
0002
7FFF
0000
1FF8
1FF8
1008
1008
1FF8
1008
1FF8
1FF8
0000
0002
7FFF
0000
ENDCHAR
STARTCHAR char33926
ENCODING 20217
SWIDTH 640 0
DWIDTH 16 0
BBX 16 16 0 -1
BITMAP
0000
0840
084C
107C
17C0
3040
37FC
77FC
3040
3042
3FFF
3040
3040
3040
3040
3040
ENDCHAR
STARTCHAR char33927
ENCODING 20207
SWIDTH 640 0
DWIDTH 16 0
BBX 16 16 0 -1
BITMAP
0010
0830
0830
1030
11B4
3132
3333
5331
1232
1636
1434
100C
1018
1070
11C0
1700
ENDCHAR
STARTCHAR char33928
ENCODING 20216
SWIDTH 640 0
DWIDTH 16 0
BBX 16 16 0 -1
BITMAP
0000
0806
0838
13F0
1020
3020
3022
57FF
1070
1070
1050
10D8
1088
110C
1207
1403
ENDCHAR
STARTCHAR char33929
ENCODING 20230
SWIDTH 640 0
DWIDTH 16 0
BBX 16 16 0 -1
BITMAP
0000
0980
0900
19FF
134B
124B
36DB
5493
11B3
1133
1223
1463
10C3
1182
133E
100C
ENDCHAR
STARTCHAR char33930
ENCODING 20227
SWIDTH 640 0
DWIDTH 16 0
BBX 16 16 0 -1
BITMAP
0000
0804
0BFE
188C
1048
1030
37FF
57FF
1032
1030
1030
1030
1030
1030
10F0
10E0
ENDCHAR
STARTCHAR char33931
ENCODING 20220
SWIDTH 640 0
DWIDTH 16 0
BBX 16 16 0 -1
BITMAP
0000
0800
0BFF
13FF
1020
3020
3020
5026
13FE
1020
1020
1020
1020
1020
17FF
17FF
ENDCHAR
STARTCHAR char33932
ENCODING 20206
SWIDTH 640 0
DWIDTH 16 0
BBX 16 16 0 -1
BITMAP
0000
0802
0BFF
1B00
1300
13FE
3384
5384
13CC
13CC
1248
1230
1230
1448
1587
1703
ENDCHAR
STARTCHAR char33933
ENCODING 20246
SWIDTH 640 0
DWIDTH 16 0
BBX 16 16 0 -1
BITMAP
0000
0840
0840
1842
17FF
10C0
30FE
50C4
11EC
112C
1338
1210
1438
106C
11C7
1703
ENDCHAR
STARTCHAR char33934
ENCODING 20264
SWIDTH 640 0
DWIDTH 16 0
BBX 16 16 0 -1
BITMAP
0000
0880
0880
1100
13FF
3303
3203
53FB
1003
1003
13FB
13FB
1002
1002
107E
101C
ENDCHAR
STARTCHAR char33935
ENCODING 20252
SWIDTH 640 0
DWIDTH 16 0
BBX 16 16 0 -1
BITMAP
0080
1880
1080
17F8
3090
3110
331F
766F
3840
3040
3FFF
3FFF
3040
3040
3040
3040
ENDCHAR
STARTCHAR char33936
ENCODING 20231
SWIDTH 640 0
DWIDTH 16 0
BBX 16 16 0 -1
BITMAP
0000
08F8
0888
1088
1188
310F
3206
5004
13FE
130C
1108
1098
1070
1070
139F
1707
ENDCHAR
STARTCHAR char33937
ENCODING 20250
SWIDTH 640 0
DWIDTH 16 0
BBX 16 16 0 -1
BITMAP
0000
0180
0340
0620
0C10
180C
6FF7
4FF2
0000
7FFE
0200
0410
0808
107C
1FC6
0002
ENDCHAR
STARTCHAR char33938
ENCODING 20218
SWIDTH 640 0
DWIDTH 16 0
BBX 16 16 0 -1
BITMAP
0000
0180
0340
0620
0C10
180C
3007
6FFA
0C00
0C00
0FF0
0FF0
0C00
0C00
0FFC
07FC
ENDCHAR
STARTCHAR char33939
ENCODING 20247
SWIDTH 640 0
DWIDTH 16 0
BBX 16 16 0 -1
BITMAP
0100
0300
0300
0380
02E0
0438
080C
3004
0820
0820
0820
1820
1470
3248
6187
0103
ENDCHAR
STARTCHAR char33940
ENCODING 20810
SWIDTH 640 0
DWIDTH 16 0
BBX 16 16 0 -1
BITMAP
0000
0470
0830
1118
230F
4603
0C18
19FC
1E46
0240
0240
0640
0443
0C43
387F
703E
ENDCHAR
STARTCHAR char33941
ENCODING 20850
SWIDTH 640 0
DWIDTH 16 0
BBX 16 16 0 -1
BITMAP
0000
7FFE
0080
0084
3FFE
0080
0082
7FFF
0000
00E0
0620
0420
0C10
1808
3007
6003
ENDCHAR
STARTCHAR char33942
ENCODING 20916
SWIDTH 640 0
DWIDTH 16 0
BBX 16 16 0 -1
BITMAP
0000
0006
43FE
2108
0308
0308
03FF
03FF
0038
1068
30C8
3188
2708
5C08
4078
0030
ENDCHAR
STARTCHAR char33943
ENCODING 20915
SWIDTH 640 0
DWIDTH 16 0
BBX 16 16 0 -1
BITMAP
0000
0040
4040
2040
07FC
004C
004C
004C
00CC
17FF
30C0
3080
2198
410C
4606
1C03
ENDCHAR
STARTCHAR char33944
ENCODING 20914
SWIDTH 640 0
DWIDTH 16 0
BBX 16 16 0 -1
BITMAP
0020
0020
4020
2420
07FF
0423
0423
0423
0423
17FF
3420
3020
2020
4020
4020
0020
ENDCHAR
STARTCHAR char33945
ENCODING 20968
SWIDTH 640 0
DWIDTH 16 0
BBX 16 16 0 -1
BITMAP
0000
2000
3FFC
200C
27EC
27EC
200C
200C
3FFC
230C
220C
2424
24F5
6FF3
4013
4001
ENDCHAR
STARTCHAR char33946
ENCODING 21012
SWIDTH 640 0
DWIDTH 16 0
BBX 16 16 0 -1
BITMAP
0802
0802
0802
0892
7F92
0892
0892
0892
7FD2
7FD2
0812
1212
3102
3082
200E
400C
ENDCHAR
STARTCHAR char33947
ENCODING 21007
SWIDTH 640 0
DWIDTH 16 0
BBX 16 16 0 -1
BITMAP
1002
3002
3FDA
3FD2
6012
5F92
0012
7FD2
0192
0712
0C12
1812
3042
2062
3FEE
1FCC
ENDCHAR
STARTCHAR char33948
ENCODING 21013
SWIDTH 640 0
DWIDTH 16 0
BBX 16 16 0 -1
BITMAP
0000
1FFC
010C
010C
030C
060C
0C78
1830
3F7F
3F7F
1113
1133
3123
3163
6FDE
0204
ENDCHAR
STARTCHAR char33949
ENCODING 21016
SWIDTH 640 0
DWIDTH 16 0
BBX 16 16 0 -1
BITMAP
0002
0802
0402
0412
7FD2
0112
2112
1112
0B12
0712
0212
0612
0D02
1982
308E
600C
ENDCHAR
STARTCHAR char33950
ENCODING 21160
SWIDTH 640 0
DWIDTH 16 0
BBX 16 16 0 -1
BITMAP
0010
0030
0030
7E30
00FF
00FF
0033
7FB3
1033
1223
2323
2163
7F43
78C3
009E
010C
ENDCHAR
STARTCHAR char33951
ENCODING 21323
SWIDTH 640 0
DWIDTH 16 0
BBX 16 16 0 -1
BITMAP
0080
0080
0080
7FFE
0080
0888
0888
0808
7FFF
7FFF
0808
0808
0808
0808
0FF8
0808
ENDCHAR
STARTCHAR char33952
ENCODING 21327
SWIDTH 640 0
DWIDTH 16 0
BBX 16 16 0 -1
BITMAP
1000
3040
3040
3044
33FE
7C44
3044
3146
3147
3345
32C5
30C4
3084
3104
327C
3418
ENDCHAR
STARTCHAR char34176
ENCODING 21328
SWIDTH 640 0
DWIDTH 16 0
BBX 16 16 0 -1
BITMAP
0000
2084
20FE
2080
2080
2080
2080
2082
3FFE
0082
0082
0082
0082
0082
3F82
3F00
ENDCHAR
STARTCHAR char34177
ENCODING 21387
SWIDTH 640 0
DWIDTH 16 0
BBX 16 16 0 -1
BITMAP
0000
2006
3FFE
2040
20C0
20C0
20C0
20C4
2FFE
20C0
20D0
20C8
20C4
60C0
5FFF
5FFF
ENDCHAR
STARTCHAR char34178
ENCODING 21438
SWIDTH 640 0
DWIDTH 16 0
BBX 16 16 0 -1
BITMAP
0000
0008
7FF8
0208
0208
0228
7FEC
020D
020D
7FFF
0407
0C43
0820
10F0
3F98
3000
ENDCHAR
STARTCHAR char34179
ENCODING 21458
SWIDTH 640 0
DWIDTH 16 0
BBX 16 16 0 -1
BITMAP
0000
1FF8
0718
01B0
0060
01F0
0718
1C0C
7FFE
7FFE
1246
0E24
0C18
1E18
3127
60C3
ENDCHAR
STARTCHAR char34180
ENCODING 21526
SWIDTH 640 0
DWIDTH 16 0
BBX 16 16 0 -1
BITMAP
0000
0202
0106
7E8C
4458
4430
4420
4420
4420
4420
4420
7E20
4020
0020
0020
0020
ENDCHAR
STARTCHAR char34181
ENCODING 21503
SWIDTH 640 0
DWIDTH 16 0
BBX 16 16 0 -1
BITMAP
0000
0000
03FC
FFFC
C820
C820
C820
C820
C820
C820
F820
F820
0020
0022
07FF
0000
ENDCHAR
STARTCHAR char34182
ENCODING 21504
SWIDTH 640 0
DWIDTH 16 0
BBX 16 16 0 -1
BITMAP
0004
001E
F9F0
F9B0
C830
C830
C830
C830
CFFF
C830
F830
0030
0030
0030
0030
0030
ENDCHAR
STARTCHAR char34183
ENCODING 21509
SWIDTH 640 0
DWIDTH 16 0
BBX 16 16 0 -1
BITMAP
0000
0000
7FFE
7FFE
43C2
43C2
43C2
43C2
43C2
43C2
43C2
43C2
43C2
7FFE
4000
0000
ENDCHAR
STARTCHAR char34184
ENCODING 21523
SWIDTH 640 0
DWIDTH 16 0
BBX 16 16 0 -1
BITMAP
0000
0002
03FF
7C20
4C20
4C20
4C38
4C2C
4C26
4C23
7C20
7C20
4020
0020
0020
0020
ENDCHAR
STARTCHAR char34185
ENCODING 21525
SWIDTH 640 0
DWIDTH 16 0
BBX 16 16 0 -1
BITMAP
0000
0808
0FF8
0808
0808
0808
0FF8
0000
0000
3FFE
2004
2004
2004
2004
3FFC
3FFC
ENDCHAR
STARTCHAR char34186
ENCODING 22243
SWIDTH 640 0
DWIDTH 16 0
BBX 16 16 0 -1
BITMAP
0000
3FFE
2022
2022
2022
3FFA
2022
2422
2222
2322
2022
2022
21E2
2042
3FFE
3FFE
ENDCHAR
STARTCHAR char34187
ENCODING 22325
SWIDTH 640 0
DWIDTH 16 0
BBX 16 16 0 -1
BITMAP
0040
10C0
10C0
10C0
10C0
14C0
7EFE
10FE
10C0
10C0
10C0
16C0
78C0
70C0
07FF
07FF
ENDCHAR
STARTCHAR char34188
ENCODING 22326
SWIDTH 640 0
DWIDTH 16 0
BBX 16 16 0 -1
BITMAP
0000
0080
0080
0102
7FFF
0360
06B0
0C98
188C
3087
5FF8
0080
0080
0080
7FFF
7FFF
ENDCHAR
STARTCHAR char34189
ENCODING 22321
SWIDTH 640 0
DWIDTH 16 0
BBX 16 16 0 -1
BITMAP
0000
0610
7810
6810
0810
0810
087E
7F7E
0810
0810
0810
1010
3010
3010
20FF
00FF
ENDCHAR
STARTCHAR char34190
ENCODING 22322
SWIDTH 640 0
DWIDTH 16 0
BBX 16 16 0 -1
BITMAP
0000
100E
13F8
13E0
1020
7E20
1020
1020
13FF
1020
1020
1620
7820
7020
0020
0020
ENDCHAR
STARTCHAR char34191
ENCODING 22766
SWIDTH 640 0
DWIDTH 16 0
BBX 16 16 0 -1
BITMAP
0410
0C30
0C30
2C30
3C30
1C30
0FFF
0FFF
0C30
0C30
3C30
6C30
4C30
0C30
0DFE
0DFE
ENDCHAR
STARTCHAR char34192
ENCODING 22789
SWIDTH 640 0
DWIDTH 16 0
BBX 16 16 0 -1
BITMAP
0000
0400
0FF8
1C10
2760
03C0
0F78
7C9F
0080
1FFC
1080
1080
1FFC
1FFC
0080
0080
ENDCHAR
STARTCHAR char34193
ENCODING 20052
SWIDTH 640 0
DWIDTH 16 0
BBX 16 16 0 -1
BITMAP
0000
0078
3FC0
3D00
7FFF
7FFF
0630
0C18
1C3C
7437
0430
0430
0C30
0830
1830
3030
ENDCHAR
STARTCHAR char34194
ENCODING 22838
SWIDTH 640 0
DWIDTH 16 0
BBX 16 16 0 -1
BITMAP
0800
0810
0810
0810
0810
7F7F
0810
0810
0810
1438
163C
322C
3364
2046
6083
4101
ENDCHAR
STARTCHAR char34195
ENCODING 22906
SWIDTH 640 0
DWIDTH 16 0
BBX 16 16 0 -1
BITMAP
0040
10C0
10C0
10C8
36F8
7E88
2598
2510
6C30
6C38
1828
184C
14C4
3186
2303
4603
ENDCHAR
STARTCHAR char34196
ENCODING 22918
SWIDTH 640 0
DWIDTH 16 0
BBX 16 16 0 -1
BITMAP
0420
0C20
0C20
6C60
3C4C
1FFF
0CCC
0CCC
0C88
0C88
3DD8
6C70
4C38
0C66
0CC3
0D00
ENDCHAR
STARTCHAR char34197
ENCODING 23430
SWIDTH 640 0
DWIDTH 16 0
BBX 16 16 0 -1
BITMAP
0000
0080
3FFF
3FFF
6002
4004
1FFC
100C
1FFC
1000
3FFC
3FFC
0004
0004
0078
0030
ENDCHAR
STARTCHAR char34198
ENCODING 24403
SWIDTH 640 0
DWIDTH 16 0
BBX 16 16 0 -1
BITMAP
0080
0080
2086
1084
1888
0C90
0080
7FFE
0002
0002
3FFE
3FFE
0002
0002
3FFE
3FFE
ENDCHAR
STARTCHAR char34199
ENCODING 23576
SWIDTH 640 0
DWIDTH 16 0
BBX 16 16 0 -1
BITMAP
0080
0080
0C80
0C88
1884
3082
6080
0080
0080
0080
0080
3FFE
0080
0080
7FFF
7FFF
ENDCHAR
STARTCHAR char34200
ENCODING 23613
SWIDTH 640 0
DWIDTH 16 0
BBX 16 16 0 -1
BITMAP
0000
1FFC
100C
100C
100C
1FFC
1020
1020
1330
1190
3058
360C
2387
60C2
4060
0030
ENDCHAR
STARTCHAR char34201
ENCODING 23672
SWIDTH 640 0
DWIDTH 16 0
BBX 16 16 0 -1
BITMAP
0000
1002
11FF
5230
5230
5230
5230
5230
5230
5230
5230
5230
7E30
0030
03FF
03FF
ENDCHAR
STARTCHAR char34202
ENCODING 23680
SWIDTH 640 0
DWIDTH 16 0
BBX 16 16 0 -1
BITMAP
0080
0080
1080
3084
3084
3084
3084
3FFC
0084
0080
2082
2082
2082
2082
3FFE
3FFE
ENDCHAR
STARTCHAR char34203
ENCODING 24072
SWIDTH 640 0
DWIDTH 16 0
BBX 16 16 0 -1
BITMAP
0800
0802
0BFF
0830
0830
6BFE
2B32
3B32
0B32
0B32
1B32
1332
333E
333C
2030
4030
ENDCHAR
STARTCHAR char34204
ENCODING 24309
SWIDTH 640 0
DWIDTH 16 0
BBX 16 16 0 -1
BITMAP
0000
7892
08B2
11B6
1124
3164
3A48
3A48
0B64
4926
59B2
3093
3090
3800
6FFF
43FE
ENDCHAR
STARTCHAR char34205
ENCODING 24334
SWIDTH 640 0
DWIDTH 16 0
BBX 16 16 0 -1
BITMAP
0000
0048
0044
7FFF
0040
0040
0060
7FA0
0020
0020
3FB0
3F91
0019
000D
7FC7
0003
ENDCHAR
STARTCHAR char34206
ENCODING 24531
SWIDTH 640 0
DWIDTH 16 0
BBX 16 16 0 -1
BITMAP
1000
3006
31FE
3030
3030
7830
7C30
F032
37FF
3030
3030
3030
3030
3030
3030
3030
ENDCHAR
STARTCHAR char34207
ENCODING 24538
SWIDTH 640 0
DWIDTH 16 0
BBX 16 16 0 -1
BITMAP
1020
3020
3020
3120
332E
7B3E
7FE2
F7A4
3724
332C
3320
3320
3323
3303
31FF
30FE
ENDCHAR
STARTCHAR char34208
ENCODING 24539
SWIDTH 640 0
DWIDTH 16 0
BBX 16 16 0 -1
BITMAP
1000
3080
30FC
308C
308C
788C
7CCC
70AC
30BC
30BC
318C
310C
330F
330F
320F
3407
ENDCHAR
STARTCHAR char34432
ENCODING 25103
SWIDTH 640 0
DWIDTH 16 0
BBX 16 16 0 -1
BITMAP
0010
0030
7F34
2332
3330
13FF
1A32
0A32
0E36
0414
0E1C
0E19
0B39
116D
20C7
4183
ENDCHAR
STARTCHAR char34433
ENCODING 25181
SWIDTH 640 0
DWIDTH 16 0
BBX 16 16 0 -1
BITMAP
0000
1004
11FE
1000
7C00
7C00
13FF
10C0
1CFE
70FE
5002
1002
1002
1004
307C
3038
ENDCHAR
STARTCHAR char34434
ENCODING 25183
SWIDTH 640 0
DWIDTH 16 0
BBX 16 16 0 -1
BITMAP
0000
13FE
10C4
10C4
7CC4
7CC4
10C4
11F4
1CC4
70C4
50C4
10C7
10C3
10C3
30C1
30C0
ENDCHAR
STARTCHAR char34435
ENCODING 25191
SWIDTH 640 0
DWIDTH 16 0
BBX 16 16 0 -1
BITMAP
0040
10C0
10C0
10C0
7DF8
7DF8
10C8
11C8
1CC8
70A8
5088
1188
110B
130B
320F
3406
ENDCHAR
STARTCHAR char34436
ENCODING 25175
SWIDTH 640 0
DWIDTH 16 0
BBX 16 16 0 -1
BITMAP
0020
1020
1020
1020
7C20
7C20
13FE
13FE
1C20
7020
5020
1020
1020
1020
33FF
33FF
ENDCHAR
STARTCHAR char34437
ENCODING 40784
SWIDTH 640 0
DWIDTH 16 0
BBX 16 16 0 -1
BITMAP
0000
0080
7FFF
7FFF
0430
0360
01C0
0770
3C1F
780F
0808
0808
0808
1008
3008
6008
ENDCHAR
STARTCHAR char34438
ENCODING 26091
SWIDTH 640 0
DWIDTH 16 0
BBX 16 16 0 -1
BITMAP
0000
4402
7FFE
4422
4422
4422
4422
7C62
4442
4442
44C2
44C2
7C82
0106
023C
000C
ENDCHAR
STARTCHAR char34439
ENCODING 26090
SWIDTH 640 0
DWIDTH 16 0
BBX 16 16 0 -1
BITMAP
0020
0020
7C20
7C20
4C20
4C22
4FFF
7C20
4C20
4C20
4C20
4C20
7C20
4C20
0020
0020
ENDCHAR
STARTCHAR char34440
ENCODING 26423
SWIDTH 640 0
DWIDTH 16 0
BBX 16 16 0 -1
BITMAP
0000
1000
11FE
11FE
7E22
7E22
1022
3C42
3642
7042
50C2
10C2
1082
1106
123C
140C
ENDCHAR
STARTCHAR char34441
ENCODING 26418
SWIDTH 640 0
DWIDTH 16 0
BBX 16 16 0 -1
BITMAP
0020
1020
1020
1020
7E20
7E20
1020
3870
3470
72F0
50D0
1088
118C
110C
1207
1403
ENDCHAR
STARTCHAR char34442
ENCODING 26422
SWIDTH 640 0
DWIDTH 16 0
BBX 16 16 0 -1
BITMAP
0000
3FE0
0220
0622
047E
0C02
0802
101C
6088
0082
7FFF
00A0
0C98
108E
2083
0080
ENDCHAR
STARTCHAR char34443
ENCODING 27426
SWIDTH 640 0
DWIDTH 16 0
BBX 16 16 0 -1
BITMAP
0000
0240
7E40
22C0
32FF
32D2
16B6
0D34
0C30
0C30
0C30
1A68
134C
33CC
2087
4103
ENDCHAR
STARTCHAR char34444
ENCODING 27598
SWIDTH 640 0
DWIDTH 16 0
BBX 16 16 0 -1
BITMAP
0000
0800
0FFF
1FFF
3000
6FFC
088C
088C
7FFF
7FFF
1108
1108
1FFF
3FFF
0078
0070
ENDCHAR
STARTCHAR char34445
ENCODING 27736
SWIDTH 640 0
DWIDTH 16 0
BBX 16 16 0 -1
BITMAP
0004
201E
13F0
0BB0
0030
6030
3030
1032
07FF
1830
1030
3030
2030
6030
4030
0030
ENDCHAR
STARTCHAR char34446
ENCODING 27729
SWIDTH 640 0
DWIDTH 16 0
BBX 16 16 0 -1
BITMAP
0000
2004
103E
09F0
06C0
60C0
30C0
10C2
07FF
10C0
10C0
30C0
20C3
60C3
407F
003E
ENDCHAR
STARTCHAR char34447
ENCODING 27767
SWIDTH 640 0
DWIDTH 16 0
BBX 16 16 0 -1
BITMAP
0000
2080
1080
0900
01FE
63FE
3306
1384
048C
08C8
1858
1070
3030
6048
4387
0703
ENDCHAR
STARTCHAR char34448
ENCODING 27708
SWIDTH 640 0
DWIDTH 16 0
BBX 16 16 0 -1
BITMAP
0080
0080
0084
7E8C
06F8
0CB8
1884
7082
0380
0300
0080
0180
0340
0630
381F
7007
ENDCHAR
STARTCHAR char34449
ENCODING 27738
SWIDTH 640 0
DWIDTH 16 0
BBX 16 16 0 -1
BITMAP
0000
2006
17FE
08C0
00C2
67FF
3080
1100
01FE
09FE
1002
1006
2004
6004
4078
0030
ENDCHAR
STARTCHAR char34450
ENCODING 27731
SWIDTH 640 0
DWIDTH 16 0
BBX 16 16 0 -1
BITMAP
0000
2002
13FE
0804
0008
6030
3020
1020
03FF
1BFF
1020
3020
2020
6020
41E0
00C0
ENDCHAR
STARTCHAR char34451
ENCODING 28783
SWIDTH 640 0
DWIDTH 16 0
BBX 16 16 0 -1
BITMAP
0000
1002
11FF
1208
1608
5C08
5008
3008
3008
1008
3808
3C08
2608
6008
4078
0070
ENDCHAR
STARTCHAR char34452
ENCODING 28786
SWIDTH 640 0
DWIDTH 16 0
BBX 16 16 0 -1
BITMAP
0800
0804
0864
0844
0B44
4C44
4844
2844
2844
0844
1C44
1644
3304
6004
403C
000C
ENDCHAR
STARTCHAR char34453
ENCODING 28782
SWIDTH 640 0
DWIDTH 16 0
BBX 16 16 0 -1
BITMAP
0080
0080
108C
089C
05F0
0160
0230
0C18
7A27
4222
0220
0620
0423
0C23
383F
601E
ENDCHAR
STARTCHAR char34454
ENCODING 28787
SWIDTH 640 0
DWIDTH 16 0
BBX 16 16 0 -1
BITMAP
0400
0C00
0800
0FFF
1803
1103
2103
4913
0D32
0D26
07DC
03C8
0660
0C38
780F
6003
ENDCHAR
STARTCHAR char34455
ENCODING 29361
SWIDTH 640 0
DWIDTH 16 0
BBX 16 16 0 -1
BITMAP
0040
46C0
2CC0
18C0
39F8
69F8
0CC8
0DC8
0CC8
14E8
6488
4488
058B
0D0B
7A0F
140F
ENDCHAR
STARTCHAR char34456
ENCODING 29362
SWIDTH 640 0
DWIDTH 16 0
BBX 16 16 0 -1
BITMAP
0008
4608
2C08
1808
13FF
3BFF
4C38
0C38
0C28
1C48
2CC8
4D88
0F08
0C08
7838
1030
ENDCHAR
STARTCHAR char34457
ENCODING 29583
SWIDTH 640 0
DWIDTH 16 0
BBX 16 16 0 -1
BITMAP
0020
0020
7F20
0820
09FF
09FF
3E23
3E23
0863
0843
0843
0BC3
7E82
7182
033E
060C
ENDCHAR
STARTCHAR char34458
ENCODING 31036
SWIDTH 640 0
DWIDTH 16 0
BBX 16 16 0 -1
BITMAP
0000
0840
0C40
0040
7F40
0340
0640
0C40
3E40
6B40
0940
0843
0843
0843
087F
083E
ENDCHAR
STARTCHAR char34459
ENCODING 32909
SWIDTH 640 0
DWIDTH 16 0
BBX 16 16 0 -1
BITMAP
0000
3E40
2440
2440
3440
2DFC
244C
244C
2C4C
3CCC
34CC
24CC
248D
650D
4F07
4E03
ENDCHAR
STARTCHAR char34460
ENCODING 32910
SWIDTH 640 0
DWIDTH 16 0
BBX 16 16 0 -1
BITMAP
0000
2000
3FFF
4002
4004
1FF8
1C08
1F88
10C8
1038
11E8
1F88
1008
3008
2038
4030
ENDCHAR
STARTCHAR char34461
ENCODING 33403
SWIDTH 640 0
DWIDTH 16 0
BBX 16 16 0 -1
BITMAP
0410
0C30
7F7F
7F7F
04B0
0080
0080
7FFE
0102
0102
0302
0202
0602
0C04
387C
6018
ENDCHAR
STARTCHAR char34462
ENCODING 36209
SWIDTH 640 0
DWIDTH 16 0
BBX 16 16 0 -1
BITMAP
0080
0080
0084
3FFE
0080
0080
7FFF
7FFF
0008
0810
0460
01C0
0700
1C00
67FF
01FE
ENDCHAR
STARTCHAR char34463
ENCODING 36793
SWIDTH 640 0
DWIDTH 16 0
BBX 16 16 0 -1
BITMAP
0020
2020
1020
1020
03FE
7BFE
1042
3042
3CC2
0CC2
0882
1906
123C
3C38
47FF
03FF
ENDCHAR
STARTCHAR char34464
ENCODING 37014
SWIDTH 640 0
DWIDTH 16 0
BBX 16 16 0 -1
BITMAP
0800
087F
0843
0842
4B46
4B44
4B48
4B44
4B42
4B43
4B43
4B43
4B5E
7F44
0040
0040
ENDCHAR
STARTCHAR char34688
ENCODING 37018
SWIDTH 640 0
DWIDTH 16 0
BBX 16 16 0 -1
BITMAP
0800
087E
0842
1844
134C
7F48
3348
3344
2242
6443
1C43
0C43
1E5E
3344
6040
0040
ENDCHAR
STARTCHAR char34689
ENCODING 20004
SWIDTH 640 0
DWIDTH 16 0
BBX 16 16 0 -1
BITMAP
0000
0002
7FFF
0220
3FFE
3FFE
2222
2622
2D72
2D4A
2882
2002
2002
2002
201E
200C
ENDCHAR
STARTCHAR char34690
ENCODING 20081
SWIDTH 640 0
DWIDTH 16 0
BBX 16 16 0 -1
BITMAP
0120
07A0
7C20
6C20
0C20
7FA0
0C20
0C20
0C20
3FA0
2120
2120
2123
2123
3FBF
001E
ENDCHAR
STARTCHAR char34691
ENCODING 20124
SWIDTH 640 0
DWIDTH 16 0
BBX 16 16 0 -1
BITMAP
0000
0002
7FFF
0220
0220
3FFE
3224
3224
3224
3224
3FFE
0220
0220
0220
7FFF
7FFF
ENDCHAR
STARTCHAR char34692
ENCODING 20293
SWIDTH 640 0
DWIDTH 16 0
BBX 16 16 0 -1
BITMAP
0000
0840
0840
1046
17FE
3040
3040
7042
37FF
3070
30D0
3148
3244
3443
3840
3040
ENDCHAR
STARTCHAR char34693
ENCODING 20298
SWIDTH 640 0
DWIDTH 16 0
BBX 16 16 0 -1
BITMAP
0020
0820
0820
13FF
3222
3224
3220
73FE
3306
3284
32CC
32C8
3278
3478
3DCF
3B03
ENDCHAR
STARTCHAR char34694
ENCODING 20281
SWIDTH 640 0
DWIDTH 16 0
BBX 16 16 0 -1
BITMAP
0000
0800
0BFC
130C
130C
330C
33FC
730C
330C
330C
33FC
330C
330C
330C
3FFF
3FFF
ENDCHAR
STARTCHAR char34695
ENCODING 20279
SWIDTH 640 0
DWIDTH 16 0
BBX 16 16 0 -1
BITMAP
0020
0820
0820
1020
13FF
33FF
3223
7223
3223
33FF
3223
3223
3223
3223
33FF
3203
ENDCHAR
STARTCHAR char34696
ENCODING 20274
SWIDTH 640 0
DWIDTH 16 0
BBX 16 16 0 -1
BITMAP
0000
0BFE
0A02
1202
1202
33FE
3240
72C0
32C0
32FE
32C0
32C0
36C3
34C3
3C7F
383E
ENDCHAR
STARTCHAR char34697
ENCODING 20290
SWIDTH 640 0
DWIDTH 16 0
BBX 16 16 0 -1
BITMAP
0000
0802
0FFF
1020
1020
3120
3320
7326
333E
3320
3320
3320
3320
3320
37FF
37FF
ENDCHAR
STARTCHAR char34698
ENCODING 20292
SWIDTH 640 0
DWIDTH 16 0
BBX 16 16 0 -1
BITMAP
0104
0B0C
0B0C
130C
17FF
37FF
330C
730C
33FC
33FC
330C
330C
330C
330C
33FC
3000
ENDCHAR
STARTCHAR char34699
ENCODING 20299
SWIDTH 640 0
DWIDTH 16 0
BBX 16 16 0 -1
BITMAP
0000
0800
0BFF
1843
10C3
10C2
319E
531C
1400
13FE
1302
1302
1302
1302
13FE
1000
ENDCHAR
STARTCHAR char34700
ENCODING 20288
SWIDTH 640 0
DWIDTH 16 0
BBX 16 16 0 -1
BITMAP
0000
0802
0BFE
1B02
1302
1302
33FE
5300
1300
13FE
1302
1302
1302
1302
13FE
1300
ENDCHAR
STARTCHAR char34701
ENCODING 20277
SWIDTH 640 0
DWIDTH 16 0
BBX 16 16 0 -1
BITMAP
0000
0A00
0BFF
1AD3
12D3
12D3
32D3
52D3
12D3
12DF
128F
1303
1203
13FF
1203
1000
ENDCHAR
STARTCHAR char34702
ENCODING 20273
SWIDTH 640 0
DWIDTH 16 0
BBX 16 16 0 -1
BITMAP
0020
0820
0870
18D8
108C
3126
3623
7420
3128
3124
3324
3222
3623
3423
30E0
30C0
ENDCHAR
STARTCHAR char34703
ENCODING 20817
SWIDTH 640 0
DWIDTH 16 0
BBX 16 16 0 -1
BITMAP
0000
0818
0430
0260
1FFC
1FFC
100C
100C
100C
1FFC
1240
0240
0643
0443
387F
703E
ENDCHAR
STARTCHAR char34704
ENCODING 20816
SWIDTH 640 0
DWIDTH 16 0
BBX 16 16 0 -1
BITMAP
1000
33FE
3304
3304
33FC
33FC
3304
3304
33FC
3000
0C60
0C40
0843
1843
307F
603E
ENDCHAR
STARTCHAR char34705
ENCODING 20814
SWIDTH 640 0
DWIDTH 16 0
BBX 16 16 0 -1
BITMAP
0008
003C
1FE0
1C80
3FFC
3FFC
308C
308C
3FFC
3FFC
01C0
03C8
02C7
04C3
387F
703E
ENDCHAR
STARTCHAR char34706
ENCODING 20893
SWIDTH 640 0
DWIDTH 16 0
BBX 16 16 0 -1
BITMAP
0000
2000
3FFF
6002
4004
4FF8
0810
0810
0FF0
0810
0810
0FF0
0810
0810
7FFF
7FFF
ENDCHAR
STARTCHAR char34707
ENCODING 20917
SWIDTH 640 0
DWIDTH 16 0
BBX 16 16 0 -1
BITMAP
0000
4204
23FE
3204
1204
0204
0204
03FE
02D0
10D0
30D0
3090
2193
4313
4E1F
180F
ENDCHAR
STARTCHAR char34708
ENCODING 20920
SWIDTH 640 0
DWIDTH 16 0
BBX 16 16 0 -1
BITMAP
0020
4020
2226
3324
11A8
0020
03FE
03FE
0020
1020
37FF
3020
2020
4020
4020
0020
ENDCHAR
STARTCHAR char34709
ENCODING 20972
SWIDTH 640 0
DWIDTH 16 0
BBX 16 16 0 -1
BITMAP
0000
3FFC
200C
200C
2FFC
2FFC
200C
2FEC
2C2C
2C2C
2FEC
2C24
2FE5
4FE3
4003
C001
ENDCHAR
STARTCHAR char34710
ENCODING 21027
SWIDTH 640 0
DWIDTH 16 0
BBX 16 16 0 -1
BITMAP
0402
0C02
0802
1812
3112
2092
7FD2
7852
0012
3F92
2092
2092
2082
2082
3F8E
000C
ENDCHAR
STARTCHAR char34711
ENCODING 21031
SWIDTH 640 0
DWIDTH 16 0
BBX 16 16 0 -1
BITMAP
0400
0C00
0CFF
0C93
7F93
0C13
0C13
0C33
7FF3
1833
1223
3163
2F43
7CC3
219E
030C
ENDCHAR
STARTCHAR char34712
ENCODING 21030
SWIDTH 640 0
DWIDTH 16 0
BBX 16 16 0 -1
BITMAP
0402
0C02
0C12
0C32
3FB2
3FB2
0C32
0C32
7FF2
0832
1832
1132
3382
2FC2
780E
000C
ENDCHAR
STARTCHAR char34713
ENCODING 21023
SWIDTH 640 0
DWIDTH 16 0
BBX 16 16 0 -1
BITMAP
0001
7F83
0883
0893
1893
1093
2793
4713
0013
FF93
C093
C093
C093
C083
FF8F
000E
ENDCHAR
STARTCHAR char34714
ENCODING 21035
SWIDTH 640 0
DWIDTH 16 0
BBX 16 16 0 -1
BITMAP
0001
4103
7F83
4113
4113
7F93
4813
0813
7F93
7F93
1093
1083
3083
2083
679F
4706
ENDCHAR
STARTCHAR char34715
ENCODING 21024
SWIDTH 640 0
DWIDTH 16 0
BBX 16 16 0 -1
BITMAP
0001
2043
3FEB
2F4B
2F4B
2F4B
2F4B
2F4B
7FEB
2F4B
2F4B
2F4B
2F43
2F43
2FCF
2BCE
ENDCHAR
STARTCHAR char34716
ENCODING 21172
SWIDTH 640 0
DWIDTH 16 0
BBX 16 16 0 -1
BITMAP
0000
088C
0CC8
0CD0
3FFF
3FFF
6182
4100
3FFC
3FFC
030C
020C
060C
0C08
38F8
6030
ENDCHAR
STARTCHAR char34717
ENCODING 21171
SWIDTH 640 0
DWIDTH 16 0
BBX 16 16 0 -1
BITMAP
0410
0C30
7FFF
7FFF
0000
2000
3FFF
4183
4102
3FFC
030C
020C
060C
0C08
38F8
6030
ENDCHAR
STARTCHAR char34718
ENCODING 21285
SWIDTH 640 0
DWIDTH 16 0
BBX 16 16 0 -1
BITMAP
0002
3FFF
2000
2100
2218
247C
2FC6
2210
2230
3FFE
2230
2430
2C30
3830
3FFF
3FFF
ENDCHAR
STARTCHAR char34719
ENCODING 21307
SWIDTH 640 0
DWIDTH 16 0
BBX 16 16 0 -1
BITMAP
0002
7FFF
2000
2200
23FC
27FC
28C0
20C2
3FFE
20E0
21B0
2308
2E04
2800
3FFF
1FFE
ENDCHAR
STARTCHAR char34720
ENCODING 21364
SWIDTH 640 0
DWIDTH 16 0
BBX 16 16 0 -1
BITMAP
0400
0C00
0C3F
0CB3
7FB3
0C33
0C33
7FF3
0833
1233
1333
3133
3FBF
3CBE
00B0
0030
ENDCHAR
STARTCHAR char34944
ENCODING 21581
SWIDTH 640 0
DWIDTH 16 0
BBX 16 16 0 -1
BITMAP
0000
0000
7DFC
7DFC
4C00
4C00
4FFF
4FFF
4C40
4CC0
4C80
7D88
4104
037E
07C3
0003
ENDCHAR
STARTCHAR char34945
ENCODING 21562
SWIDTH 640 0
DWIDTH 16 0
BBX 16 16 0 -1
BITMAP
0000
01F8
F908
F908
CB08
CB0F
CA06
C804
CFFE
CA04
F908
0090
0060
00F0
039F
0E07
ENDCHAR
STARTCHAR char34946
ENCODING 21572
SWIDTH 640 0
DWIDTH 16 0
BBX 16 16 0 -1
BITMAP
0000
7FF0
0430
043E
0C22
1802
301E
611C
7FFF
7FFF
0100
3FFC
300C
300C
3FFC
3FFC
ENDCHAR
STARTCHAR char34947
ENCODING 21580
SWIDTH 640 0
DWIDTH 16 0
BBX 16 16 0 -1
BITMAP
0004
000C
018C
FCCC
CC6C
CC0C
CD8C
CCCC
CC6C
CC0F
FDFC
FDCC
000C
000C
000C
000C
ENDCHAR
STARTCHAR char34948
ENCODING 21539
SWIDTH 640 0
DWIDTH 16 0
BBX 16 16 0 -1
BITMAP
0000
0060
7830
7858
48C8
48C0
48C0
48C4
4BC2
4BC3
4BC1
7ACD
46CC
00CC
007C
0038
ENDCHAR
STARTCHAR char34949
ENCODING 21530
SWIDTH 640 0
DWIDTH 16 0
BBX 16 16 0 -1
BITMAP
0000
0004
FDFE
CC44
CC44
CC44
CFFF
CC44
CC44
CDFE
FC40
FCC0
0080
0180
0300
0600
ENDCHAR
STARTCHAR char34950
ENCODING 21554
SWIDTH 640 0
DWIDTH 16 0
BBX 16 16 0 -1
BITMAP
0001
0003
FBF3
F833
C833
C9F3
CB03
CB03
CBF3
CBF3
F833
0033
0033
0033
01E3
00C3
ENDCHAR
STARTCHAR char34951
ENCODING 21579
SWIDTH 640 0
DWIDTH 16 0
BBX 16 16 0 -1
BITMAP
0020
0020
7820
7826
4BFE
4820
4820
4822
4FFF
4860
4870
78D0
4098
010C
0207
0403
ENDCHAR
STARTCHAR char34952
ENCODING 21537
SWIDTH 640 0
DWIDTH 16 0
BBX 16 16 0 -1
BITMAP
0100
0310
FB10
FB10
CB10
CB10
CBDE
CBDE
CB10
CB10
FB10
0310
0313
0373
03DF
030E
ENDCHAR
STARTCHAR char34953
ENCODING 21556
SWIDTH 640 0
DWIDTH 16 0
BBX 16 16 0 -1
BITMAP
0000
1FFC
100C
100C
100C
1FFC
1000
0008
1FFC
0080
7FFF
7FFF
0340
0630
1C1F
7007
ENDCHAR
STARTCHAR char34954
ENCODING 21577
SWIDTH 640 0
DWIDTH 16 0
BBX 16 16 0 -1
BITMAP
0000
1FFC
100C
100C
100C
1FFC
1000
0400
07F8
07F8
7FFF
7FFF
0430
0438
1804
7002
ENDCHAR
STARTCHAR char34955
ENCODING 21584
SWIDTH 640 0
DWIDTH 16 0
BBX 16 16 0 -1
BITMAP
0010
0030
0030
7C30
4FFF
4FFF
4F33
4F33
4F6B
4F4F
7F87
7F03
0303
0303
031F
0306
ENDCHAR
STARTCHAR char34956
ENCODING 21538
SWIDTH 640 0
DWIDTH 16 0
BBX 16 16 0 -1
BITMAP
0000
0080
0CC0
2C64
2C22
2C0B
6C09
4C09
07F8
03F0
3FFC
3FFC
3004
3004
3FFC
3FFC
ENDCHAR
STARTCHAR char34957
ENCODING 21567
SWIDTH 640 0
DWIDTH 16 0
BBX 16 16 0 -1
BITMAP
0080
0480
0C80
0888
1FFC
3080
4080
0082
7FFF
0080
1FFC
1FFC
100C
100C
1FFC
1FFC
ENDCHAR
STARTCHAR char34958
ENCODING 21585
SWIDTH 640 0
DWIDTH 16 0
BBX 16 16 0 -1
BITMAP
0000
0078
1FC0
0100
0302
7FFF
0640
0C30
181C
3FFF
4812
0810
0810
0810
0FF0
0FF0
ENDCHAR
STARTCHAR char34959
ENCODING 21594
SWIDTH 640 0
DWIDTH 16 0
BBX 16 16 0 -1
BITMAP
0000
00C0
F8C0
F880
C8FF
C9FF
CB0C
CA8C
CC88
C8D8
F850
0030
0070
00D8
038F
0603
ENDCHAR
STARTCHAR char34960
ENCODING 21551
SWIDTH 640 0
DWIDTH 16 0
BBX 16 16 0 -1
BITMAP
0000
003E
1FE0
1000
1FFE
1FFE
1002
1FFE
1000
1004
3FFE
3C04
2C04
6C04
4FFC
0FFC
ENDCHAR
STARTCHAR char34961
ENCODING 22249
SWIDTH 640 0
DWIDTH 16 0
BBX 16 16 0 -1
BITMAP
0000
7FFE
4002
4012
4FFA
4002
4002
5FFA
4102
4322
4212
441A
4FFE
4F0E
7FFE
7FFE
ENDCHAR
STARTCHAR char34962
ENCODING 22258
SWIDTH 640 0
DWIDTH 16 0
BBX 16 16 0 -1
BITMAP
0000
7FFE
4222
4222
4222
5FFA
4222
4222
5FFA
5FFA
4622
4422
4822
5022
7FFE
7FFE
ENDCHAR
STARTCHAR char34963
ENCODING 22259
SWIDTH 640 0
DWIDTH 16 0
BBX 16 16 0 -1
BITMAP
0000
7FFE
4002
408A
44CA
5252
4832
4832
4422
4242
41C2
41C2
4E7A
5C1A
7FFE
7FFE
ENDCHAR
STARTCHAR char34964
ENCODING 22255
SWIDTH 640 0
DWIDTH 16 0
BBX 16 16 0 -1
BITMAP
0000
2002
3FFE
2012
2FFA
2082
2082
2FFA
2082
2082
2082
3FFA
2002
2002
3FFE
2002
ENDCHAR
STARTCHAR char34965
ENCODING 22253
SWIDTH 640 0
DWIDTH 16 0
BBX 16 16 0 -1
BITMAP
0000
7FFE
4002
4002
4FFA
4002
4FFA
4FFA
4342
4342
424E
444E
4C7E
583A
7FFE
7FFE
ENDCHAR
STARTCHAR char34966
ENCODING 22252
SWIDTH 640 0
DWIDTH 16 0
BBX 16 16 0 -1
BITMAP
0000
2002
3FFE
2222
2222
2222
23E2
2222
2222
2222
23E2
2222
2222
2222
3FFE
2002
ENDCHAR
STARTCHAR char34967
ENCODING 22246
SWIDTH 640 0
DWIDTH 16 0
BBX 16 16 0 -1
BITMAP
0000
7FFE
4082
4082
4082
409A
4EB2
4EE2
46B2
449A
488E
5082
4382
4102
7FFE
7FFE
ENDCHAR
STARTCHAR char34968
ENCODING 22344
SWIDTH 640 0
DWIDTH 16 0
BBX 16 16 0 -1
BITMAP
0000
1300
33FF
3202
3684
3090
7C90
3090
3090
3090
3090
3D10
7913
6313
021F
040E
ENDCHAR
STARTCHAR char34969
ENCODING 22340
SWIDTH 640 0
DWIDTH 16 0
BBX 16 16 0 -1
BITMAP
0000
10F8
3088
3088
3088
3108
7D0F
3206
33FC
33FC
3188
3C98
7870
6070
038F
0707
ENDCHAR
STARTCHAR char34970
ENCODING 22335
SWIDTH 640 0
DWIDTH 16 0
BBX 16 16 0 -1
BITMAP
0020
1020
3060
3050
30C8
7D8C
318F
328B
3088
3088
3088
3C88
7988
6108
0308
0208
ENDCHAR
STARTCHAR char34971
ENCODING 22332
SWIDTH 640 0
DWIDTH 16 0
BBX 16 16 0 -1
BITMAP
0000
1FF8
1008
1008
1FF8
1FF8
1008
1008
1FF8
0080
0080
1FFC
0080
0080
7FFF
7FFF
ENDCHAR
STARTCHAR char34972
ENCODING 22355
SWIDTH 640 0
DWIDTH 16 0
BBX 16 16 0 -1
BITMAP
0020
0420
3FFE
3FFE
0420
0422
7FFF
0C20
1820
30A0
0088
1FFC
0080
0080
7FFF
7FFF
ENDCHAR
STARTCHAR char34973
ENCODING 22358
SWIDTH 640 0
DWIDTH 16 0
BBX 16 16 0 -1
BITMAP
0000
0008
1FFC
0002
7FFF
0220
0620
0423
083F
30BF
4088
1FFC
0080
0080
7FFF
7FFF
ENDCHAR
STARTCHAR char34974
ENCODING 22367
SWIDTH 640 0
DWIDTH 16 0
BBX 16 16 0 -1
BITMAP
0000
1040
1020
1030
13FF
7E04
1084
108C
10CC
10C8
1458
1C30
6030
0048
0387
0703
ENDCHAR
STARTCHAR char34975
ENCODING 22339
SWIDTH 640 0
DWIDTH 16 0
BBX 16 16 0 -1
BITMAP
1000
3004
31FE
3000
3000
7C00
33FE
33FE
30D0
30D0
3C90
3C90
6193
0113
021F
040E
ENDCHAR
STARTCHAR char34976
ENCODING 22360
SWIDTH 640 0
DWIDTH 16 0
BBX 16 16 0 -1
BITMAP
1000
3002
33FF
30C0
30C0
7CC0
30FC
308C
308C
308C
3DF8
3C08
6008
0008
03FF
03FF
ENDCHAR
STARTCHAR char35200
ENCODING 22359
SWIDTH 640 0
DWIDTH 16 0
BBX 16 16 0 -1
BITMAP
0000
1040
1040
1044
11FE
7E44
1044
1044
13FF
13FF
1040
16D0
788C
7106
0203
0C01
ENDCHAR
STARTCHAR char35201
ENCODING 22342
SWIDTH 640 0
DWIDTH 16 0
BBX 16 16 0 -1
BITMAP
1000
30C0
30C0
3080
30FF
7DFF
330C
328C
3488
30C8
3C58
7050
4030
0078
038C
0F07
ENDCHAR
STARTCHAR char35202
ENCODING 22333
SWIDTH 640 0
DWIDTH 16 0
BBX 16 16 0 -1
BITMAP
1040
30C0
3080
3080
31FF
7D2B
326B
305B
30D3
3193
3133
3A22
7862
60C4
01BC
0018
ENDCHAR
STARTCHAR char35203
ENCODING 22338
SWIDTH 640 0
DWIDTH 16 0
BBX 16 16 0 -1
BITMAP
1000
3106
31FE
3100
3100
7D02
31FE
3102
3186
33C4
334C
3A28
6630
0478
09C7
1703
ENDCHAR
STARTCHAR char35204
ENCODING 22356
SWIDTH 640 0
DWIDTH 16 0
BBX 16 16 0 -1
BITMAP
0080
0084
7E8E
7EB8
06C0
0CA0
1898
308F
4782
0100
0080
0084
3FFE
0080
7FFF
7FFF
ENDCHAR
STARTCHAR char35205
ENCODING 22357
SWIDTH 640 0
DWIDTH 16 0
BBX 16 16 0 -1
BITMAP
0008
08FC
0F80
0888
0888
1088
108C
308C
2087
4003
0080
0088
1FFC
0080
7FFF
7FFF
ENDCHAR
STARTCHAR char35206
ENCODING 22769
SWIDTH 640 0
DWIDTH 16 0
BBX 16 16 0 -1
BITMAP
0080
0080
7FFF
7FFF
0084
1FFE
0000
3FFF
6402
4C14
0CF8
0FC0
0C04
0C06
07FE
03FC
ENDCHAR
STARTCHAR char35207
ENCODING 22770
SWIDTH 640 0
DWIDTH 16 0
BBX 16 16 0 -1
BITMAP
0080
0080
7FFF
7FFF
1FFC
1FFC
3FFF
3FFF
6222
4220
0220
0620
0423
0C23
383F
701E
ENDCHAR
STARTCHAR char35208
ENCODING 22768
SWIDTH 640 0
DWIDTH 16 0
BBX 16 16 0 -1
BITMAP
0080
0080
7FFF
7FFF
0084
3FFE
0000
3FFE
3084
3084
3FFC
3FFC
3000
2000
6000
4000
ENDCHAR
STARTCHAR char35209
ENCODING 22795
SWIDTH 640 0
DWIDTH 16 0
BBX 16 16 0 -1
BITMAP
0200
0620
0C10
1878
1FC4
0440
0C7F
1A3F
6200
17F8
0C30
1260
61C0
01E0
1E3F
7C0F
ENDCHAR
STARTCHAR char35210
ENCODING 40614
SWIDTH 640 0
DWIDTH 16 0
BBX 16 16 0 -1
BITMAP
0080
0080
3FFC
3FFC
1FFC
1FFC
0082
7FFF
0200
0FF8
0C18
1A30
31E0
01E0
1E1F
7C0F
ENDCHAR
STARTCHAR char35211
ENCODING 22257
SWIDTH 640 0
DWIDTH 16 0
BBX 16 16 0 -1
BITMAP
0000
0300
0600
3FFE
2002
2202
23F2
27F2
2F32
29B2
20E2
20C2
2382
2202
3FFE
2002
ENDCHAR
STARTCHAR char35212
ENCODING 22845
SWIDTH 640 0
DWIDTH 16 0
BBX 16 16 0 -1
BITMAP
0080
0080
7FFF
7FFF
0620
0C18
1FFC
37F7
4000
0002
7FFF
0600
0C10
18F8
1F84
0004
ENDCHAR
STARTCHAR char35213
ENCODING 22932
SWIDTH 640 0
DWIDTH 16 0
BBX 16 16 0 -1
BITMAP
0000
1020
1030
11FE
3600
7E00
24F8
24F8
6C88
6C88
1888
0888
158B
310B
220F
4407
ENDCHAR
STARTCHAR char35214
ENCODING 22924
SWIDTH 640 0
DWIDTH 16 0
BBX 16 16 0 -1
BITMAP
0044
10CC
10CC
10CC
36FF
7EFF
24CC
24CC
6CCC
4CCC
79FF
18CC
148C
310C
230C
460C
ENDCHAR
STARTCHAR char35215
ENCODING 22940
SWIDTH 640 0
DWIDTH 16 0
BBX 16 16 0 -1
BITMAP
0020
1020
1020
1024
37FE
7E24
2424
2424
6C24
4DFF
7840
1848
14CC
3186
2302
4603
ENDCHAR
STARTCHAR char35216
ENCODING 22943
SWIDTH 640 0
DWIDTH 16 0
BBX 16 16 0 -1
BITMAP
0000
0808
0FF8
0808
0FF8
0808
0FF8
0FF8
0210
0232
7FFF
0430
0F60
03E0
0F3C
3C0E
ENDCHAR
STARTCHAR char35217
ENCODING 22939
SWIDTH 640 0
DWIDTH 16 0
BBX 16 16 0 -1
BITMAP
0080
1086
3084
3084
3FFC
1FFC
3FFE
3FFE
0210
0232
7FFF
0430
0F60
03E0
0F1C
3C0E
ENDCHAR
STARTCHAR char35218
ENCODING 22921
SWIDTH 640 0
DWIDTH 16 0
BBX 16 16 0 -1
BITMAP
1020
3020
3020
3120
3DFF
7DFF
2F22
2E70
6C70
4870
7870
18F0
1CB3
35B3
231F
460E
ENDCHAR
STARTCHAR char35219
ENCODING 22938
SWIDTH 640 0
DWIDTH 16 0
BBX 16 16 0 -1
BITMAP
0000
1002
11FF
1010
3630
7E30
2430
247C
6CB6
4D33
7A31
1830
1430
3230
2030
4030
ENDCHAR
STARTCHAR char35220
ENCODING 25992
SWIDTH 640 0
DWIDTH 16 0
BBX 16 16 0 -1
BITMAP
0100
0186
7FFE
0010
0660
03C0
0F70
7C3F
0FF0
00E0
0082
7FFF
0080
0080
0780
0300
ENDCHAR
STARTCHAR char35221
ENCODING 23437
SWIDTH 640 0
DWIDTH 16 0
BBX 16 16 0 -1
BITMAP
0000
0100
0180
3FFF
2002
4004
0100
0082
7FFF
0000
0420
0410
0808
100C
2006
4003
ENDCHAR
STARTCHAR char35222
ENCODING 23550
SWIDTH 640 0
DWIDTH 16 0
BBX 16 16 0 -1
BITMAP
0000
1004
1804
0884
7F84
03FF
2204
3204
1E44
0C24
0E34
0E04
1B04
3104
603C
000C
ENDCHAR
STARTCHAR char35223
ENCODING 23551
SWIDTH 640 0
DWIDTH 16 0
BBX 16 16 0 -1
BITMAP
0000
0102
7FFE
0100
3FFC
3FFC
7FFF
7FFF
0208
040A
7FFE
0E08
1908
3088
4078
0070
ENDCHAR
STARTCHAR char35224
ENCODING 23549
SWIDTH 640 0
DWIDTH 16 0
BBX 16 16 0 -1
BITMAP
0000
0078
1FC2
0106
1188
0890
0010
0030
7FFF
7FFF
0030
0C30
0630
0030
00F0
00E0
ENDCHAR
STARTCHAR char35225
ENCODING 23595
SWIDTH 640 0
DWIDTH 16 0
BBX 16 16 0 -1
BITMAP
0000
0100
7F80
35FE
3430
3430
3430
34FE
3430
3430
3430
3432
25FF
6401
47FF
43FF
ENDCHAR
STARTCHAR char35226
ENCODING 23684
SWIDTH 640 0
DWIDTH 16 0
BBX 16 16 0 -1
BITMAP
0000
18FE
1082
1482
D482
D4FE
D482
D482
D4FE
D4FE
D482
D502
7D02
0302
020E
040C
ENDCHAR
STARTCHAR char35227
ENCODING 23694
SWIDTH 640 0
DWIDTH 16 0
BBX 16 16 0 -1
BITMAP
0000
1818
10C8
14C8
D48C
D584
D507
D703
D7FC
D44C
D44C
D4CC
7C8C
018C
037C
0618
ENDCHAR
STARTCHAR char35228
ENCODING 23708
SWIDTH 640 0
DWIDTH 16 0
BBX 16 16 0 -1
BITMAP
0080
1086
3084
3084
1FFC
0000
3FFC
3FFC
2084
2084
3FFE
2000
2003
2003
3FFF
1FFE
ENDCHAR
STARTCHAR char35229
ENCODING 23685
SWIDTH 640 0
DWIDTH 16 0
BBX 16 16 0 -1
BITMAP
0000
1902
11FF
1500
D500
D502
D5FE
D5C6
D5C4
D544
D56C
D528
7F38
0338
02E7
01C3
ENDCHAR
STARTCHAR char35230
ENCODING 24053
SWIDTH 640 0
DWIDTH 16 0
BBX 16 16 0 -1
BITMAP
0004
003E
3FE0
3E00
3FFF
3FFF
3000
3FFC
3CCC
3CCC
3FFC
2FFC
2C03
6C03
47FF
43FE
ENDCHAR
STARTCHAR char35231
ENCODING 24073
SWIDTH 640 0
DWIDTH 16 0
BBX 16 16 0 -1
BITMAP
0000
1018
10C8
54C8
7E8C
5584
5507
5703
57FC
544C
544C
5CCC
508C
118C
137C
1618
ENDCHAR
STARTCHAR char35232
ENCODING 24075
SWIDTH 640 0
DWIDTH 16 0
BBX 16 16 0 -1
BITMAP
0000
00F8
3F80
2080
3FFC
3FFC
2360
3F3B
208F
1086
1FFC
108C
108C
10BC
1098
0080
ENDCHAR
STARTCHAR char35456
ENCODING 24210
SWIDTH 640 0
DWIDTH 16 0
BBX 16 16 0 -1
BITMAP
0000
0080
3FFF
3FFF
20C0
20C0
20C0
20C4
3FFE
20C0
20C0
20C8
20C4
60C0
5FFF
5FFF
ENDCHAR
STARTCHAR char35457
ENCODING 24208
SWIDTH 640 0
DWIDTH 16 0
BBX 16 16 0 -1
BITMAP
0000
2082
3FFF
2004
20FE
2FE0
2C00
2FFE
2C02
2C02
2FFE
2FFE
2C00
6C00
4800
5000
ENDCHAR
STARTCHAR char35458
ENCODING 24323
SWIDTH 640 0
DWIDTH 16 0
BBX 16 16 0 -1
BITMAP
0000
0080
7FFF
7FFF
0300
0618
0CFC
1FFE
1422
0420
7FFF
7FFF
0C20
0C20
1820
7020
ENDCHAR
STARTCHAR char35459
ENCODING 24350
SWIDTH 640 0
DWIDTH 16 0
BBX 16 16 0 -1
BITMAP
0000
7EC0
04C0
04C0
04FF
3E92
21B4
4134
7C30
7C30
0430
0448
04CC
0CCC
7987
3303
ENDCHAR
STARTCHAR char35460
ENCODING 24419
SWIDTH 640 0
DWIDTH 16 0
BBX 16 16 0 -1
BITMAP
0000
0806
0C0C
7F98
0370
2342
2306
230C
3238
3622
1406
0C0C
0C38
1E70
23FF
40FF
ENDCHAR
STARTCHAR char35461
ENCODING 24551
SWIDTH 640 0
DWIDTH 16 0
BBX 16 16 0 -1
BITMAP
1000
3040
3048
304C
7044
7BFF
F040
3050
3070
3070
30F0
30F0
30B3
3133
321F
340E
ENDCHAR
STARTCHAR char35462
ENCODING 24574
SWIDTH 640 0
DWIDTH 16 0
BBX 16 16 0 -1
BITMAP
1000
30C0
30C0
30FF
7080
79FE
F200
3000
31FC
3010
3020
3040
3083
3103
31FF
30FF
ENDCHAR
STARTCHAR char35463
ENCODING 24550
SWIDTH 640 0
DWIDTH 16 0
BBX 16 16 0 -1
BITMAP
1020
3020
3070
3058
70CC
7986
F38B
3688
3088
3088
3088
3188
3108
3308
3208
3408
ENDCHAR
STARTCHAR char35464
ENCODING 24540
SWIDTH 640 0
DWIDTH 16 0
BBX 16 16 0 -1
BITMAP
0000
0080
3FFF
3FFF
2080
2040
2160
2330
2300
2304
2F06
2B0B
2B08
6308
41F8
40F0
ENDCHAR
STARTCHAR char35465
ENCODING 24526
SWIDTH 640 0
DWIDTH 16 0
BBX 16 16 0 -1
BITMAP
0010
00F8
3F80
0080
0080
7FFE
0080
0080
0080
0400
3D84
3CC2
3C4A
2C0B
47F8
03F0
ENDCHAR
STARTCHAR char35466
ENCODING 24572
SWIDTH 640 0
DWIDTH 16 0
BBX 16 16 0 -1
BITMAP
1000
3040
3060
3022
73FF
7800
F0F8
30F8
3088
3088
3088
3089
3189
3109
320F
3407
ENDCHAR
STARTCHAR char35467
ENCODING 24543
SWIDTH 640 0
DWIDTH 16 0
BBX 16 16 0 -1
BITMAP
1000
3040
3020
3032
77FF
7904
F10C
318C
3088
30D8
3050
3030
3070
30D8
318F
3703
ENDCHAR
STARTCHAR char35468
ENCODING 24556
SWIDTH 640 0
DWIDTH 16 0
BBX 16 16 0 -1
BITMAP
1000
3006
31FE
300C
7050
7830
73FF
F3FF
3032
3030
3030
3030
3030
3030
30F0
30E0
ENDCHAR
STARTCHAR char35469
ENCODING 24566
SWIDTH 640 0
DWIDTH 16 0
BBX 16 16 0 -1
BITMAP
1000
3000
30FE
30FE
7000
7800
F002
31FF
3020
3040
30C0
30C4
3082
311F
31E1
3000
ENDCHAR
STARTCHAR char35470
ENCODING 24562
SWIDTH 640 0
DWIDTH 16 0
BBX 16 16 0 -1
BITMAP
1020
3020
3020
3020
73FF
7BFF
F020
3070
3070
3050
30D0
3088
31CC
312C
3207
3403
ENDCHAR
STARTCHAR char35471
ENCODING 24560
SWIDTH 640 0
DWIDTH 16 0
BBX 16 16 0 -1
BITMAP
1040
30C0
33F8
33F8
70C8
78C8
F08B
310F
3226
3020
33FF
33FF
3020
3020
3020
3020
ENDCHAR
STARTCHAR char35472
ENCODING 24569
SWIDTH 640 0
DWIDTH 16 0
BBX 16 16 0 -1
BITMAP
1000
3000
31FE
31FE
7030
7830
F030
3032
33FF
3030
3030
3030
3030
3030
33FF
33FF
ENDCHAR
STARTCHAR char35473
ENCODING 25107
SWIDTH 640 0
DWIDTH 16 0
BBX 16 16 0 -1
BITMAP
0000
0048
0044
7FFF
0040
0042
3F46
3F44
236C
2338
2330
2331
3F71
00C9
0387
0603
ENDCHAR
STARTCHAR char35474
ENCODING 25147
SWIDTH 640 0
DWIDTH 16 0
BBX 16 16 0 -1
BITMAP
0008
00FC
3F80
3002
3FFE
3002
3FFE
3FFE
30C0
30C2
3FFF
31E0
2130
2318
6E0F
5803
ENDCHAR
STARTCHAR char35475
ENCODING 25148
SWIDTH 640 0
DWIDTH 16 0
BBX 16 16 0 -1
BITMAP
0002
7F7F
0340
0340
0340
7F7F
4343
4343
4343
7F43
037F
0240
0640
0C40
1840
7040
ENDCHAR
STARTCHAR char35476
ENCODING 25218
SWIDTH 640 0
DWIDTH 16 0
BBX 16 16 0 -1
BITMAP
0000
1002
13FF
1030
7C30
7C30
1030
1036
19FE
7030
5030
1030
1030
1030
33FF
33FF
ENDCHAR
STARTCHAR char35477
ENCODING 25208
SWIDTH 640 0
DWIDTH 16 0
BBX 16 16 0 -1
BITMAP
0882
0882
0882
0A82
7E82
08FE
0880
0A80
1CFE
78FE
4882
0982
0902
0B02
7A02
3402
ENDCHAR
STARTCHAR char35478
ENCODING 25227
SWIDTH 640 0
DWIDTH 16 0
BBX 16 16 0 -1
BITMAP
0000
1040
1020
1430
7E90
1080
1080
1082
3B83
7383
5281
1684
1484
1086
30FE
307C
ENDCHAR
STARTCHAR char35479
ENCODING 25246
SWIDTH 640 0
DWIDTH 16 0
BBX 16 16 0 -1
BITMAP
0000
1102
11FE
1502
7F02
1102
11FE
17FE
7940
7160
1120
1130
1318
130C
3207
3403
ENDCHAR
STARTCHAR char35480
ENCODING 25253
SWIDTH 640 0
DWIDTH 16 0
BBX 16 16 0 -1
BITMAP
0000
11FE
1104
1504
7F04
112C
1118
1104
1DFE
7144
514C
112C
1118
1118
312C
3147
ENDCHAR
STARTCHAR char35481
ENCODING 25243
SWIDTH 640 0
DWIDTH 16 0
BBX 16 16 0 -1
BITMAP
1108
3308
3308
3B08
7B3E
37FE
33CA
33CA
3BCA
73DA
73D2
32D2
32E7
34C1
7C7F
683F
ENDCHAR
STARTCHAR char35482
ENCODING 25244
SWIDTH 640 0
DWIDTH 16 0
BBX 16 16 0 -1
BITMAP
1040
30C0
30C2
33FF
7CC0
7CC0
30FE
30FE
3CC4
7164
712C
3338
3218
3438
70E7
7183
ENDCHAR
STARTCHAR char35483
ENCODING 25241
SWIDTH 640 0
DWIDTH 16 0
BBX 16 16 0 -1
BITMAP
0004
101E
11F0
1130
7E30
7E36
11FE
1030
1C30
1832
73FF
1030
1030
1030
30F0
30E0
ENDCHAR
STARTCHAR char35484
ENCODING 25229
SWIDTH 640 0
DWIDTH 16 0
BBX 16 16 0 -1
BITMAP
0004
106C
11CC
15CC
7ECC
10CC
13FF
13FF
1CCC
70CC
508C
108C
118C
110C
320C
340C
ENDCHAR
STARTCHAR char35485
ENCODING 25221
SWIDTH 640 0
DWIDTH 16 0
BBX 16 16 0 -1
BITMAP
0000
1180
1100
11FF
7F03
1263
1443
10C3
1C83
7193
513B
13FF
1003
1002
303E
300C
ENDCHAR
STARTCHAR char35486
ENCODING 25245
SWIDTH 640 0
DWIDTH 16 0
BBX 16 16 0 -1
BITMAP
0000
1100
113F
113F
7F43
13C3
12C3
1283
1F83
7103
5303
1343
12C3
17E3
322E
300C
ENDCHAR
STARTCHAR char35487
ENCODING 25205
SWIDTH 640 0
DWIDTH 16 0
BBX 16 16 0 -1
BITMAP
0010
1030
1030
1478
7E48
10CC
1086
1543
3A30
7018
5008
1000
1060
1030
3018
3000
ENDCHAR
STARTCHAR char35488
ENCODING 26102
SWIDTH 640 0
DWIDTH 16 0
BBX 16 16 0 -1
BITMAP
0004
000C
7C0C
7C0C
4FFF
4FFF
4C0C
7C8C
4CCC
4CCC
4C4C
4C0C
7C0C
4C0C
007C
0018
ENDCHAR
STARTCHAR char35712
ENCODING 26357
SWIDTH 640 0
DWIDTH 16 0
BBX 16 16 0 -1
BITMAP
0000
0120
0130
2114
3FFE
2104
3FFC
3FFC
2084
3FFC
20C0
00CE
00F9
0FE1
701D
000F
ENDCHAR
STARTCHAR char35713
ENCODING 26459
SWIDTH 640 0
DWIDTH 16 0
BBX 16 16 0 -1
BITMAP
0000
11FE
1002
1002
7C02
7CFE
1080
3900
35FF
70FF
5003
1003
1003
1003
101E
100C
ENDCHAR
STARTCHAR char35714
ENCODING 26452
SWIDTH 640 0
DWIDTH 16 0
BBX 16 16 0 -1
BITMAP
0004
100E
1038
11E0
7C20
7C20
1020
3822
35FF
7020
5020
1020
1023
1023
103F
101E
ENDCHAR
STARTCHAR char35715
ENCODING 26450
SWIDTH 640 0
DWIDTH 16 0
BBX 16 16 0 -1
BITMAP
0000
1000
11FF
1033
7E33
7E33
19B3
34F3
3663
7023
5063
1043
10C2
1182
133E
160C
ENDCHAR
STARTCHAR char35716
ENCODING 26456
SWIDTH 640 0
DWIDTH 16 0
BBX 16 16 0 -1
BITMAP
0000
3FFE
3004
3004
3FFE
3040
30C0
30C2
3FFF
32C0
32D8
24CC
2CC6
58C3
40C0
00C0
ENDCHAR
STARTCHAR char35717
ENCODING 26436
SWIDTH 640 0
DWIDTH 16 0
BBX 16 16 0 -1
BITMAP
0004
100E
10F8
10F0
7C30
7C30
1032
39FF
3430
7030
5030
1030
1030
1030
1030
1030
ENDCHAR
STARTCHAR char35718
ENCODING 26442
SWIDTH 640 0
DWIDTH 16 0
BBX 16 16 0 -1
BITMAP
0000
1092
10B2
10B2
7CB2
7CB2
10B2
3CB2
36B2
70B2
50B2
11B2
1132
1132
1302
1202
ENDCHAR
STARTCHAR char35719
ENCODING 26465
SWIDTH 640 0
DWIDTH 16 0
BBX 16 16 0 -1
BITMAP
0000
0208
07F8
0E10
1920
70C0
07F8
1E9F
6082
7FFE
0080
06A0
0C9C
188E
3082
0080
ENDCHAR
STARTCHAR char35720
ENCODING 27775
SWIDTH 640 0
DWIDTH 16 0
BBX 16 16 0 -1
BITMAP
0000
2006
11FE
080C
0078
4030
33FF
13FF
0032
0C34
0830
1030
3030
3030
60F0
00E0
ENDCHAR
STARTCHAR char35721
ENCODING 27793
SWIDTH 640 0
DWIDTH 16 0
BBX 16 16 0 -1
BITMAP
0000
2004
13FE
08C4
00C4
00C4
60C4
30C4
07FF
108C
108C
308C
208C
608C
47FF
07FF
ENDCHAR
STARTCHAR char35722
ENCODING 27806
SWIDTH 640 0
DWIDTH 16 0
BBX 16 16 0 -1
BITMAP
0000
2002
17FF
0820
03FE
03FE
6222
3222
0222
1A22
122E
322C
2220
6020
4020
0020
ENDCHAR
STARTCHAR char35723
ENCODING 27758
SWIDTH 640 0
DWIDTH 16 0
BBX 16 16 0 -1
BITMAP
0040
20C0
1080
0980
01FF
0303
6213
31FB
0003
0803
11FB
11FB
2003
6002
407E
001C
ENDCHAR
STARTCHAR char35724
ENCODING 27772
SWIDTH 640 0
DWIDTH 16 0
BBX 16 16 0 -1
BITMAP
0020
21A0
1120
0B20
03FC
07FC
6420
3020
0022
17FF
3020
3020
2020
4020
4020
0020
ENDCHAR
STARTCHAR char35725
ENCODING 27807
SWIDTH 640 0
DWIDTH 16 0
BBX 16 16 0 -1
BITMAP
0000
2180
1100
09FF
0303
0203
6263
3043
00C3
1883
1133
33FB
200A
6002
407E
001C
ENDCHAR
STARTCHAR char35726
ENCODING 27765
SWIDTH 640 0
DWIDTH 16 0
BBX 16 16 0 -1
BITMAP
0020
2020
1070
0870
00D8
018C
637F
367B
0000
19FE
100C
300C
2008
6010
4030
0020
ENDCHAR
STARTCHAR char35727
ENCODING 27734
SWIDTH 640 0
DWIDTH 16 0
BBX 16 16 0 -1
BITMAP
0080
1086
3084
3084
3084
3FFC
0084
0080
3E8C
3EF0
04C0
0CA0
1898
308F
4382
0300
ENDCHAR
STARTCHAR char35728
ENCODING 27810
SWIDTH 640 0
DWIDTH 16 0
BBX 16 16 0 -1
BITMAP
0000
23FE
1304
0B04
0304
0304
63FC
33FC
03C0
1B40
1360
3320
2210
6408
4C07
1803
ENDCHAR
STARTCHAR char35729
ENCODING 27769
SWIDTH 640 0
DWIDTH 16 0
BBX 16 16 0 -1
BITMAP
0000
2008
120B
0A8B
02CB
0253
6273
3233
0233
1A33
127B
324B
228F
6303
43FF
03FE
ENDCHAR
STARTCHAR char35730
ENCODING 27809
SWIDTH 640 0
DWIDTH 16 0
BBX 16 16 0 -1
BITMAP
0000
21F8
1110
0910
0310
031F
660E
3004
07FE
1A04
1308
3190
20E0
60F0
439F
1E07
ENDCHAR
STARTCHAR char35731
ENCODING 27818
SWIDTH 640 0
DWIDTH 16 0
BBX 16 16 0 -1
BITMAP
0000
200E
13F8
0B80
03FF
03FF
6303
3303
03FF
1BFF
1300
3300
2200
6200
4600
0400
ENDCHAR
STARTCHAR char35732
ENCODING 27808
SWIDTH 640 0
DWIDTH 16 0
BBX 16 16 0 -1
BITMAP
0004
201E
13F0
0B80
036C
034C
634C
334C
034C
1B4C
134C
3244
2244
6442
4C43
0843
ENDCHAR
STARTCHAR char35733
ENCODING 28793
SWIDTH 640 0
DWIDTH 16 0
BBX 16 16 0 -1
BITMAP
0000
100C
1038
15E0
1620
5C20
5820
3022
37FF
1020
3820
3C20
2623
6023
403F
001E
ENDCHAR
STARTCHAR char35734
ENCODING 28791
SWIDTH 640 0
DWIDTH 16 0
BBX 16 16 0 -1
BITMAP
0080
0088
1898
0CB0
04C0
0130
0618
1C0C
3014
0430
7FFF
7FFF
0C30
0C30
1830
7030
ENDCHAR
STARTCHAR char35735
ENCODING 28798
SWIDTH 640 0
DWIDTH 16 0
BBX 16 16 0 -1
BITMAP
0000
0180
3FFF
3FFF
6082
4080
0080
088C
0CD8
07F0
0340
0360
0230
0418
380F
7003
ENDCHAR
STARTCHAR char35736
ENCODING 28789
SWIDTH 640 0
DWIDTH 16 0
BBX 16 16 0 -1
BITMAP
0000
1FFC
000C
000C
7FFF
000C
1FFC
1FFC
0080
108C
0898
0DB0
0740
0630
1C1F
7007
ENDCHAR
STARTCHAR char35737
ENCODING 28795
SWIDTH 640 0
DWIDTH 16 0
BBX 16 16 0 -1
BITMAP
0080
0080
0084
3FFE
0080
0080
7FFF
7FFF
0080
108C
0898
0DB0
0740
0630
1C1F
7007
ENDCHAR
STARTCHAR char35738
ENCODING 29284
SWIDTH 640 0
DWIDTH 16 0
BBX 16 16 0 -1
BITMAP
0800
0820
6830
4830
7FFF
49FF
C8C0
08C0
0EC0
38C0
68C0
08C0
08C0
08C0
087F
083E
ENDCHAR
STARTCHAR char35739
ENCODING 29371
SWIDTH 640 0
DWIDTH 16 0
BBX 16 16 0 -1
BITMAP
0020
2420
1822
13FF
7820
4822
0FFE
0F22
1F22
3F22
6F22
0F22
0F2E
0F2C
3820
3020
ENDCHAR
STARTCHAR char35740
ENCODING 29372
SWIDTH 640 0
DWIDTH 16 0
BBX 16 16 0 -1
BITMAP
0000
0BE8
5868
3048
3088
5888
0888
08E8
1988
3F88
6A88
0889
0889
0889
7B8F
7307
ENDCHAR
STARTCHAR char35741
ENCODING 29383
SWIDTH 640 0
DWIDTH 16 0
BBX 16 16 0 -1
BITMAP
0020
4020
2C20
1822
33FF
6820
0C70
0C70
1CF8
3CA8
4DAC
0D24
0E27
0C23
3820
3020
ENDCHAR
STARTCHAR char35742
ENCODING 29369
SWIDTH 640 0
DWIDTH 16 0
BBX 16 16 0 -1
BITMAP
0020
4620
2C2C
1824
3022
6BFF
0C50
0470
0C70
1C70
64F0
44F0
04B3
0DB3
7B1F
360E
ENDCHAR
STARTCHAR char35743
ENCODING 29374
SWIDTH 640 0
DWIDTH 16 0
BBX 16 16 0 -1
BITMAP
0020
4028
2C2C
1824
3020
6BFF
0C70
0C70
1C70
3CD0
6CD0
0C88
0D8C
0D0C
3A07
3403
ENDCHAR
STARTCHAR char35744
ENCODING 29366
SWIDTH 640 0
DWIDTH 16 0
BBX 16 16 0 -1
BITMAP
0420
0C28
4C2C
2C24
3C26
1FFF
0C20
0C60
0C70
1C70
6CD0
4CC8
0C8C
0D8C
0D07
0E03
ENDCHAR
STARTCHAR char35968
ENCODING 29592
SWIDTH 640 0
DWIDTH 16 0
BBX 16 16 0 -1
BITMAP
0000
0402
7FFE
1002
1002
1002
11FE
7FFE
1100
1100
1100
1100
1F03
7903
41FF
00FF
ENDCHAR
STARTCHAR char35969
ENCODING 30099
SWIDTH 640 0
DWIDTH 16 0
BBX 16 16 0 -1
BITMAP
0000
0080
0FFF
0FFF
4BF8
6BF8
2888
0890
189F
698F
5903
1103
3303
3302
263E
443C
ENDCHAR
STARTCHAR char35970
ENCODING 30336
SWIDTH 640 0
DWIDTH 16 0
BBX 16 16 0 -1
BITMAP
0200
0200
3FFC
3FFC
300C
3FFC
300C
300C
1FFC
0800
0808
0FFC
0800
0802
0FFE
0FFE
ENDCHAR
STARTCHAR char35971
ENCODING 30339
SWIDTH 640 0
DWIDTH 16 0
BBX 16 16 0 -1
BITMAP
0100
0300
3FFC
3FFC
3004
3FFC
3004
3004
3FFC
3FFC
0240
0640
0443
0C43
387F
603E
ENDCHAR
STARTCHAR char35972
ENCODING 30400
SWIDTH 640 0
DWIDTH 16 0
BBX 16 16 0 -1
BITMAP
0000
0100
0100
0100
01E0
0138
0108
0100
0100
0000
3FFC
324C
324C
324C
7FFF
7FFF
ENDCHAR
STARTCHAR char35973
ENCODING 30401
SWIDTH 640 0
DWIDTH 16 0
BBX 16 16 0 -1
BITMAP
0000
3FF8
0210
0232
063E
0402
0C06
1804
3078
0000
3FFC
3FFC
324C
324C
7FFF
7FFF
ENDCHAR
STARTCHAR char35974
ENCODING 30708
SWIDTH 640 0
DWIDTH 16 0
BBX 16 16 0 -1
BITMAP
0000
0202
7EFF
1008
1008
3008
3008
3E08
7208
7208
3208
3208
3208
3E08
0078
0070
ENDCHAR
STARTCHAR char35975
ENCODING 30709
SWIDTH 640 0
DWIDTH 16 0
BBX 16 16 0 -1
BITMAP
0002
0102
7F92
0832
1832
1032
3032
3F32
3332
7332
3332
3332
3302
3F02
001E
001C
ENDCHAR
STARTCHAR char35976
ENCODING 31436
SWIDTH 640 0
DWIDTH 16 0
BBX 16 16 0 -1
BITMAP
0000
20F8
1088
1088
7E88
2488
2488
2C88
3C88
3C88
3888
3F89
7909
6109
020F
0407
ENDCHAR
STARTCHAR char35977
ENCODING 31437
SWIDTH 640 0
DWIDTH 16 0
BBX 16 16 0 -1
BITMAP
0000
0010
1010
0810
7F10
4210
26FF
24FF
2410
3C10
3C10
3E10
7C10
7010
0010
0010
ENDCHAR
STARTCHAR char35978
ENCODING 31994
SWIDTH 640 0
DWIDTH 16 0
BBX 16 16 0 -1
BITMAP
0000
0C40
0840
1A40
1240
2440
7C40
0840
1240
2740
7940
0240
0B43
2D43
347F
303F
ENDCHAR
STARTCHAR char35979
ENCODING 32927
SWIDTH 640 0
DWIDTH 16 0
BBX 16 16 0 -1
BITMAP
0000
3E02
25FF
2400
2402
3DFF
2C40
2440
2CFE
34FE
2402
2402
2402
6404
4C7C
4C18
ENDCHAR
STARTCHAR char35980
ENCODING 32913
SWIDTH 640 0
DWIDTH 16 0
BBX 16 16 0 -1
BITMAP
0000
3EC0
24C0
24C0
24FF
3DFF
2D03
2403
2C43
3423
2433
2403
2403
6402
4C3E
4C3C
ENDCHAR
STARTCHAR char35981
ENCODING 32919
SWIDTH 640 0
DWIDTH 16 0
BBX 16 16 0 -1
BITMAP
0020
3E20
2420
2444
25FF
3DFF
2CCC
24CC
2C88
3488
24D8
2430
2438
646C
4CC6
4D80
ENDCHAR
STARTCHAR char35982
ENCODING 32916
SWIDTH 640 0
DWIDTH 16 0
BBX 16 16 0 -1
BITMAP
0010
3E30
24B0
24B0
24B6
3CBE
2CF2
25F2
2CB6
34B4
24B4
24B0
2483
6483
4CFF
4C7E
ENDCHAR
STARTCHAR char35983
ENCODING 33414
SWIDTH 640 0
DWIDTH 16 0
BBX 16 16 0 -1
BITMAP
0410
0C30
7F7F
7F7F
0008
1008
1188
08D8
0C10
0430
0620
0340
01C0
0760
1C1F
7007
ENDCHAR
STARTCHAR char35984
ENCODING 33420
SWIDTH 640 0
DWIDTH 16 0
BBX 16 16 0 -1
BITMAP
0410
0C30
7F7F
7F7F
0000
0018
1FF8
0002
7FFF
0C00
0FFC
0FFC
000C
0008
01F8
0070
ENDCHAR
STARTCHAR char35985
ENCODING 33429
SWIDTH 640 0
DWIDTH 16 0
BBX 16 16 0 -1
BITMAP
0410
0C30
7F7F
7F7F
0100
0300
0200
07FE
0804
140C
6318
01B0
00E0
01C0
1E00
7800
ENDCHAR
STARTCHAR char35986
ENCODING 34412
SWIDTH 640 0
DWIDTH 16 0
BBX 16 16 0 -1
BITMAP
0800
0860
0840
0840
7F40
7F40
4B40
4B40
4B40
7F40
4840
0A40
0B43
0F43
787F
003E
ENDCHAR
STARTCHAR char35987
ENCODING 36798
SWIDTH 640 0
DWIDTH 16 0
BBX 16 16 0 -1
BITMAP
0020
2020
1020
0020
73FF
73FF
1020
3060
3850
08C8
188C
1104
3206
4800
07FF
03FF
ENDCHAR
STARTCHAR char35988
ENCODING 36807
SWIDTH 640 0
DWIDTH 16 0
BBX 16 16 0 -1
BITMAP
0008
2008
1008
000A
77FF
7008
1108
3088
38C8
08C8
1808
1008
3078
4870
07FF
03FF
ENDCHAR
STARTCHAR char35989
ENCODING 36801
SWIDTH 640 0
DWIDTH 16 0
BBX 16 16 0 -1
BITMAP
0000
2004
107E
01F0
7020
7020
13FF
33FF
3820
0820
1820
1020
3020
4800
07FF
03FF
ENDCHAR
STARTCHAR char35990
ENCODING 37033
SWIDTH 640 0
DWIDTH 16 0
BBX 16 16 0 -1
BITMAP
0400
0C3E
0C24
0D24
0DAC
2F28
3C28
3C24
0C22
0C22
0C23
1A23
112E
30AC
2020
0020
ENDCHAR
STARTCHAR char35991
ENCODING 37028
SWIDTH 640 0
DWIDTH 16 0
BBX 16 16 0 -1
BITMAP
0000
01BF
3E23
3822
3024
30A4
3FA4
3322
3322
3323
3323
3323
232E
632C
4320
0320
ENDCHAR
STARTCHAR char35992
ENCODING 37032
SWIDTH 640 0
DWIDTH 16 0
BBX 16 16 0 -1
BITMAP
0400
0C20
0C3F
7FA2
0C22
6CA4
4CAC
4CA4
4CA2
7FA1
0CA1
0C21
0DAF
0F2E
0020
0020
ENDCHAR
STARTCHAR char35993
ENCODING 38439
SWIDTH 640 0
DWIDTH 16 0
BBX 16 16 0 -1
BITMAP
0004
7C0C
48CC
486C
502C
500C
50CC
486C
442C
440F
45FC
5C0C
480C
400C
400C
400C
ENDCHAR
STARTCHAR char35994
ENCODING 38438
SWIDTH 640 0
DWIDTH 16 0
BBX 16 16 0 -1
BITMAP
0020
7C20
4C20
4822
4A22
5324
5128
48B0
44B0
4470
4450
5CD8
4888
418C
4307
4603
ENDCHAR
STARTCHAR char35995
ENCODING 38443
SWIDTH 640 0
DWIDTH 16 0
BBX 16 16 0 -1
BITMAP
0000
7C02
4DFF
4810
4830
5020
5078
48EC
4DA6
4F23
4C20
7820
5020
4020
4020
4020
ENDCHAR
STARTCHAR char35996
ENCODING 38451
SWIDTH 640 0
DWIDTH 16 0
BBX 16 16 0 -1
BITMAP
0000
7D02
4DFE
4902
4902
5102
5102
49FE
4502
4502
4502
4502
5902
41FE
4102
4000
ENDCHAR
STARTCHAR char35997
ENCODING 38452
SWIDTH 640 0
DWIDTH 16 0
BBX 16 16 0 -1
BITMAP
0000
7CFE
4C82
4882
4882
50FE
5082
4882
4482
44FE
4482
4582
5902
4102
421E
440C
ENDCHAR
STARTCHAR char35998
ENCODING 38441
SWIDTH 640 0
DWIDTH 16 0
BBX 16 16 0 -1
BITMAP
0004
7C6C
4CCC
4BCC
48CC
50CC
50CC
4FFF
4CCC
4CCC
4CCC
788C
508C
410C
430C
420C
ENDCHAR
STARTCHAR char35999
ENCODING 20029
SWIDTH 640 0
DWIDTH 16 0
BBX 16 16 0 -1
BITMAP
0000
0202
7F7F
0000
7E7E
7E7E
4242
4242
5252
4A4A
4E4E
4E4E
4242
4242
4E4E
0404
ENDCHAR
STARTCHAR char36000
ENCODING 20125
SWIDTH 640 0
DWIDTH 16 0
BBX 16 16 0 -1
BITMAP
0100
0320
0610
1FF8
0800
1818
3034
2226
7E7B
0000
0FF0
0FF0
0000
0000
3FFE
3FFE
ENDCHAR
STARTCHAR char36224
ENCODING 20371
SWIDTH 640 0
DWIDTH 16 0
BBX 16 16 0 -1
BITMAP
0000
1840
13FC
13FC
304C
37FF
304C
77FC
3040
3042
37FE
3040
3FFF
3FFF
3040
3040
ENDCHAR
STARTCHAR char36225
ENCODING 20362
SWIDTH 640 0
DWIDTH 16 0
BBX 16 16 0 -1
BITMAP
0000
1840
1042
1246
3344
3148
3FFF
7FFF
30B0
30B0
30B0
3130
3333
3333
323F
341F
ENDCHAR
STARTCHAR char36226
ENCODING 20333
SWIDTH 640 0
DWIDTH 16 0
BBX 16 16 0 -1
BITMAP
0000
1880
11FC
1398
3670
3C70
339F
7727
33FE
33FE
3220
3220
37FF
3020
3020
3020
ENDCHAR
STARTCHAR char36227
ENCODING 20366
SWIDTH 640 0
DWIDTH 16 0
BBX 16 16 0 -1
BITMAP
0020
1820
1422
1226
332C
3128
3132
77FF
3020
31A8
3124
3322
3223
3423
3021
3020
ENDCHAR
STARTCHAR char36228
ENCODING 20384
SWIDTH 640 0
DWIDTH 16 0
BBX 16 16 0 -1
BITMAP
0000
1840
1040
17FE
3040
324C
334C
7148
3FFF
3FFF
30E0
30E0
3090
3108
3207
3C03
ENDCHAR
STARTCHAR char36229
ENCODING 20386
SWIDTH 640 0
DWIDTH 16 0
BBX 16 16 0 -1
BITMAP
0000
1808
17FC
1040
33FC
33FC
324C
7FFF
324C
324C
3FFF
3FFF
320C
320C
323C
3238
ENDCHAR
STARTCHAR char36230
ENCODING 20385
SWIDTH 640 0
DWIDTH 16 0
BBX 16 16 0 -1
BITMAP
0000
1802
17FF
10D0
30D0
34D0
37FF
74D3
34D3
34D3
34D3
34D3
34D3
34D3
37FF
3403
ENDCHAR
STARTCHAR char36231
ENCODING 20383
SWIDTH 640 0
DWIDTH 16 0
BBX 16 16 0 -1
BITMAP
0000
18C0
10C2
17FF
3080
3102
337E
7304
3708
3B08
33FF
3308
3308
3308
3338
3330
ENDCHAR
STARTCHAR char36232
ENCODING 20387
SWIDTH 640 0
DWIDTH 16 0
BBX 16 16 0 -1
BITMAP
0000
0804
0BFE
1B04
1304
1304
33FE
5000
1000
13FF
1203
1203
1203
1203
13FF
1000
ENDCHAR
STARTCHAR char36233
ENCODING 20338
SWIDTH 640 0
DWIDTH 16 0
BBX 16 16 0 -1
BITMAP
0000
1840
10FE
11FE
330C
3798
30F0
7060
30C0
31FE
3E82
3C82
3082
3082
30FE
30FE
ENDCHAR
STARTCHAR char36234
ENCODING 20364
SWIDTH 640 0
DWIDTH 16 0
BBX 16 16 0 -1
BITMAP
0000
0180
0260
0438
3BCF
73C3
0FF8
0FF8
0020
1FFC
0002
7FFF
0600
0C08
1FFC
1F02
ENDCHAR
STARTCHAR char36235
ENCODING 20822
SWIDTH 640 0
DWIDTH 16 0
BBX 16 16 0 -1
BITMAP
0000
0080
7FFF
7FFF
0C18
198E
3303
6608
0C3C
1FFC
1244
0240
0643
0443
387F
703F
ENDCHAR
STARTCHAR char36236
ENCODING 20880
SWIDTH 640 0
DWIDTH 16 0
BBX 16 16 0 -1
BITMAP
0000
3FFE
2002
3FFE
2002
3FFE
2002
0800
0FFC
080C
0FFC
080C
0FFC
180C
103C
2038
ENDCHAR
STARTCHAR char36237
ENCODING 20973
SWIDTH 640 0
DWIDTH 16 0
BBX 16 16 0 -1
BITMAP
0000
0804
0BFE
1020
37FF
37FF
5020
1022
17FE
0420
07E0
0420
0C21
0C21
383F
703F
ENDCHAR
STARTCHAR char36238
ENCODING 20990
SWIDTH 640 0
DWIDTH 16 0
BBX 16 16 0 -1
BITMAP
0000
07F0
0020
0040
0082
4082
5EFE
5EAE
52BA
5292
5EBA
4EAE
41C2
4002
7FFE
7FFE
ENDCHAR
STARTCHAR char36239
ENCODING 21039
SWIDTH 640 0
DWIDTH 16 0
BBX 16 16 0 -1
BITMAP
0001
0003
7FC3
7FD3
0013
3F93
2093
2093
3F93
2093
2093
3F93
2083
01E3
7F0F
700E
ENDCHAR
STARTCHAR char36240
ENCODING 21052
SWIDTH 640 0
DWIDTH 16 0
BBX 16 16 0 -1
BITMAP
0800
0800
08FE
09FE
7F32
08B2
08F2
0972
7FF2
1022
3472
325A
2FCE
7FC7
409E
010C
ENDCHAR
STARTCHAR char36241
ENCODING 21044
SWIDTH 640 0
DWIDTH 16 0
BBX 16 16 0 -1
BITMAP
0001
7F03
0B1B
0B53
1BF3
1053
23D3
4793
0413
7FF3
0413
1513
2483
44C3
044F
040E
ENDCHAR
STARTCHAR char36242
ENCODING 21049
SWIDTH 640 0
DWIDTH 16 0
BBX 16 16 0 -1
BITMAP
0101
0303
3A1B
0E13
0B13
1193
6C13
0C13
7F93
7F93
3F13
3F13
2F13
6FC3
4D8F
0C0E
ENDCHAR
STARTCHAR char36243
ENCODING 21177
SWIDTH 640 0
DWIDTH 16 0
BBX 16 16 0 -1
BITMAP
0000
0810
0C90
7FD0
1010
337F
2193
6293
5213
0C33
0C33
0C23
1E63
33C3
619E
030C
ENDCHAR
STARTCHAR char36244
ENCODING 21173
SWIDTH 640 0
DWIDTH 16 0
BBX 16 16 0 -1
BITMAP
0080
1088
0998
0D30
1FFC
1FFC
0602
7FFF
0810
1108
6FF7
4313
0210
0410
19F0
7060
ENDCHAR
STARTCHAR char36245
ENCODING 21183
SWIDTH 640 0
DWIDTH 16 0
BBX 16 16 0 -1
BITMAP
0820
0820
0820
7EFC
0A2C
0E6C
787D
08DD
3B87
1383
0100
7FFE
0204
0404
387C
7018
ENDCHAR
STARTCHAR char36246
ENCODING 21333
SWIDTH 640 0
DWIDTH 16 0
BBX 16 16 0 -1
BITMAP
0000
0818
0430
0260
3FFC
3FFC
3FFC
3FFC
3FFC
3FFC
0100
7FFF
0100
0100
0100
0100
ENDCHAR
STARTCHAR char36247
ENCODING 21366
SWIDTH 640 0
DWIDTH 16 0
BBX 16 16 0 -1
BITMAP
0400
0C00
0F3F
1F33
3333
4E33
0E33
1A33
37F3
0FF3
18B3
7DB3
073F
063E
3C30
7030
ENDCHAR
STARTCHAR char36248
ENCODING 21370
SWIDTH 640 0
DWIDTH 16 0
BBX 16 16 0 -1
BITMAP
0000
3FF8
00E0
04C6
7EC8
0CB0
3B9F
6303
3FFE
1008
1FF8
1008
107B
1033
1FFF
0FFE
ENDCHAR
STARTCHAR char36249
ENCODING 21395
SWIDTH 640 0
DWIDTH 16 0
BBX 16 16 0 -1
BITMAP
0000
2002
3FFF
2040
20C0
2FFC
20C0
20C2
3FFE
2040
20C0
2FFE
20C0
40C0
5FFF
DFFF
ENDCHAR
STARTCHAR char36250
ENCODING 21441
SWIDTH 640 0
DWIDTH 16 0
BBX 16 16 0 -1
BITMAP
0100
0300
0610
0C78
1F84
0100
7FFF
7FFF
0C10
1808
3FF7
6FF3
0FF0
0FF0
3FFE
3FFE
ENDCHAR
STARTCHAR char36251
ENCODING 21442
SWIDTH 640 0
DWIDTH 16 0
BBX 16 16 0 -1
BITMAP
0000
01A0
0E10
1FF8
1100
0102
7FFF
0430
089C
33AF
5E60
11C0
0F3C
3C70
0780
3F00
ENDCHAR
STARTCHAR char36252
ENCODING 21461
SWIDTH 640 0
DWIDTH 16 0
BBX 16 16 0 -1
BITMAP
0000
7F7E
1364
0B34
0618
0718
0974
31C0
3EFE
3EFE
1246
0C64
0C38
1A38
60E7
4383
ENDCHAR
STARTCHAR char36253
ENCODING 21637
SWIDTH 640 0
DWIDTH 16 0
BBX 16 16 0 -1
BITMAP
0000
0080
3FFE
3FFE
0410
0630
0222
7FFF
0000
0800
0FFC
080C
080C
080C
0FFC
0FFC
ENDCHAR
STARTCHAR char36254
ENCODING 21599
SWIDTH 640 0
DWIDTH 16 0
BBX 16 16 0 -1
BITMAP
0000
0040
0022
FBFF
C820
C840
C884
C90C
CBF8
CBF0
F820
F840
0084
011E
03E1
0000
ENDCHAR
STARTCHAR char36255
ENCODING 21651
SWIDTH 640 0
DWIDTH 16 0
BBX 16 16 0 -1
BITMAP
0000
0002
03FF
F880
C880
C9F8
C908
C988
C948
C968
F928
FB08
0329
03E9
070F
000F
ENDCHAR
STARTCHAR char36256
ENCODING 21641
SWIDTH 640 0
DWIDTH 16 0
BBX 16 16 0 -1
BITMAP
0020
0020
F820
FBFE
CB24
CB24
CB24
CB24
CB24
CFFF
C840
F848
00C4
0186
0303
0C03
ENDCHAR
STARTCHAR char36416
ENCODING 32824
SWIDTH 640 0
DWIDTH 16 0
BBX 16 16 0 -1
BITMAP
0410
0C30
0C30
1E70
33CC
6184
7FFF
7FFF
0FF0
0FF0
0810
0FF0
0812
7FFF
0010
0010
ENDCHAR
STARTCHAR char36417
ENCODING 32897
SWIDTH 640 0
DWIDTH 16 0
BBX 16 16 0 -1
BITMAP
0000
21F8
3E00
3FFE
2004
3FFE
20C0
2FF8
2FFF
2FFF
2FFC
2FFC
2FFE
40C0
5FFF
C0C0
ENDCHAR
STARTCHAR char36418
ENCODING 33112
SWIDTH 640 0
DWIDTH 16 0
BBX 16 16 0 -1
BITMAP
0000
7C00
4FFF
4F03
6FFF
7F33
4F33
4F33
4FFF
7F33
4F33
4F33
4FFF
4FFF
5FFF
DBFF
ENDCHAR
STARTCHAR char36419
ENCODING 35364
SWIDTH 640 0
DWIDTH 16 0
BBX 16 16 0 -1
BITMAP
0000
2006
11CC
7E38
003C
0066
7D82
0184
7C84
00CC
7C48
7C38
4430
4478
7EC7
0303
ENDCHAR
STARTCHAR char36420
ENCODING 36291
SWIDTH 640 0
DWIDTH 16 0
BBX 16 16 0 -1
BITMAP
0000
7E06
44F8
44F0
4430
4430
7E32
51FF
5E30
5E30
5038
5048
50CC
5D84
7307
4603
ENDCHAR
STARTCHAR char36421
ENCODING 20978
SWIDTH 640 0
DWIDTH 16 0
BBX 16 16 0 -1
BITMAP
0000
3FFC
300C
324C
3FFC
3FFC
3FFC
3FFC
3FFC
3FFC
3FEC
27C5
2FE5
6BF3
53DB
43C1
ENDCHAR
STARTCHAR char36422
ENCODING 21942
SWIDTH 640 0
DWIDTH 16 0
BBX 16 16 0 -1
BITMAP
0000
090C
0D88
2000
3FFF
6002
5FF8
1008
1008
1FF8
0300
3FFE
2004
2004
3FFC
3FFC
ENDCHAR
STARTCHAR char36423
ENCODING 24259
SWIDTH 640 0
DWIDTH 16 0
BBX 16 16 0 -1
BITMAP
0080
20C2
3FFF
2088
2FAC
29B6
271C
260E
2FFB
23F8
2FFE
2FFE
6130
4333
C63F
1C1E
ENDCHAR
STARTCHAR char36424
ENCODING 30817
SWIDTH 640 0
DWIDTH 16 0
BBX 16 16 0 -1
BITMAP
0000
0420
7FFF
31FF
3322
3020
21FF
3DFF
6CD0
6CD0
2CB0
2D60
2E44
2C8E
3DFB
3C00
ENDCHAR
STARTCHAR char36425
ENCODING 31233
SWIDTH 640 0
DWIDTH 16 0
BBX 16 16 0 -1
BITMAP
0000
0080
7FFF
0810
0FF8
0810
0FF8
7FFE
40E2
4FE2
4086
5FFC
00A0
0EB8
7886
4082
ENDCHAR
STARTCHAR char36426
ENCODING 34889
SWIDTH 640 0
DWIDTH 16 0
BBX 16 16 0 -1
BITMAP
0820
0820
083C
7F7C
5FCC
5FCC
5F78
5F38
5F6F
5FC3
5FFC
5FFC
5FC4
5FC4
70FC
00FC
ENDCHAR
STARTCHAR char36427
ENCODING 35225
SWIDTH 640 0
DWIDTH 16 0
BBX 16 16 0 -1
BITMAP
2000
20FE
20C2
7FC2
48FE
48C2
C8C2
2AFE
2AC2
2BFE
6BFA
4938
4928
C849
388F
310F
ENDCHAR
STARTCHAR char36428
ENCODING 37407
SWIDTH 640 0
DWIDTH 16 0
BBX 16 16 0 -1
BITMAP
0800
0802
1CFE
3632
2232
7EFE
10B0
10B0
7EFF
12FF
5233
7433
323E
1E3C
7030
0030
ENDCHAR
STARTCHAR char36429
ENCODING 21267
SWIDTH 640 0
DWIDTH 16 0
BBX 16 16 0 -1
BITMAP
0800
0800
1800
1FFF
2803
4873
3EF3
32F3
3E9F
3EFB
0093
30D3
3E72
307A
1F8E
000C
ENDCHAR
STARTCHAR char36430
ENCODING 21984
SWIDTH 640 0
DWIDTH 16 0
BBX 16 16 0 -1
BITMAP
0020
0720
783E
497E
6FC6
2EAC
3F18
3F3C
0CE7
08C3
0EFE
7CC2
48C2
08C2
38FE
30FE
ENDCHAR
STARTCHAR char36431
ENCODING 24889
SWIDTH 640 0
DWIDTH 16 0
BBX 16 16 0 -1
BITMAP
1000
3020
33FF
33FF
72CE
7C86
7123
F260
30D8
318E
37FF
35FC
3104
3104
31FC
31FC
ENDCHAR
STARTCHAR char36432
ENCODING 28375
SWIDTH 640 0
DWIDTH 16 0
BBX 16 16 0 -1
BITMAP
0200
2210
13DF
0FFF
0DA6
6098
33F0
33C0
03FE
0BFE
1042
1FFF
2040
4043
407F
003F
ENDCHAR
STARTCHAR char36433
ENCODING 29501
SWIDTH 640 0
DWIDTH 16 0
BBX 16 16 0 -1
BITMAP
0000
4D00
3BFF
3302
39FC
490C
0DFC
0DFC
1DFC
3CFC
4FFF
0FFF
0CD8
0DCC
3B06
3E03
ENDCHAR
STARTCHAR char36434
ENCODING 38773
SWIDTH 640 0
DWIDTH 16 0
BBX 16 16 0 -1
BITMAP
2000
2402
7FFE
7F22
2422
3E22
3C22
7E22
4BFF
7E44
4844
0844
7F44
0844
0BFF
0BFF
ENDCHAR
STARTCHAR char36435
ENCODING 32740
SWIDTH 640 0
DWIDTH 16 0
BBX 16 16 0 -1
BITMAP
0000
3E00
22FF
2233
3EBB
00FF
7F77
7F33
5533
5577
7FFF
55FB
553B
5533
5777
4366
ENDCHAR
STARTCHAR char36436
ENCODING 32904
SWIDTH 640 0
DWIDTH 16 0
BBX 16 16 0 -1
BITMAP
0028
072C
383F
3F7F
2336
3F1D
20F7
40CB
DFF8
7FFF
0088
1FF8
3FFC
3FFC
7FFF
0080
ENDCHAR
STARTCHAR char36437
ENCODING 22101
SWIDTH 640 0
DWIDTH 16 0
BBX 16 16 0 -1
BITMAP
0000
00F8
3F30
0920
3FF0
3010
3FFC
3FFE
2012
7A56
504C
000C
3FFC
300C
3FFC
3FFC
ENDCHAR
STARTCHAR char36438
ENCODING 24959
SWIDTH 640 0
DWIDTH 16 0
BBX 16 16 0 -1
BITMAP
0000
47FE
2440
37FC
17FC
07FC
0FFE
13FE
7FFA
4FFA
033E
048C
3C44
3C0A
6FFD
47F8
ENDCHAR
STARTCHAR char36439
ENCODING 29143
SWIDTH 640 0
DWIDTH 16 0
BBX 16 16 0 -1
BITMAP
1000
33FF
3253
33DF
3E53
F3DF
7253
720B
72FB
32FB
32CB
3AFB
2ECB
62DB
4293
0202
ENDCHAR
STARTCHAR char36440
ENCODING 34406
SWIDTH 640 0
DWIDTH 16 0
BBX 16 16 0 -1
BITMAP
1000
3C10
371E
7F9E
16FF
1CB3
6FBC
67B0
2C9F
2E8E
70AC
34AC
1AAC
1BAF
676F
41C7
ENDCHAR
STARTCHAR char36441
ENCODING 36666
SWIDTH 640 0
DWIDTH 16 0
BBX 16 16 0 -1
BITMAP
0042
10D2
7ED2
7EB4
13FF
7EB4
52D6
7ED2
5210
52FF
7E93
1293
7EFF
1093
10FF
10FF
ENDCHAR
STARTCHAR char36442
ENCODING 37693
SWIDTH 640 0
DWIDTH 16 0
BBX 16 16 0 -1
BITMAP
0000
13FF
3830
3D36
24B8
7CF0
103C
104E
7FA2
7EC4
56FE
54CC
71F8
1E38
70EF
0783
ENDCHAR
STARTCHAR char36443
ENCODING 25845
SWIDTH 640 0
DWIDTH 16 0
BBX 16 16 0 -1
BITMAP
1000
3020
33FF
3ACC
7BFF
33FE
33FE
3BFF
320C
73FC
72FE
36FE
35FF
35FF
7C70
6860
ENDCHAR
STARTCHAR char36444
ENCODING 32640
SWIDTH 640 0
DWIDTH 16 0
BBX 16 16 0 -1
BITMAP
0000
3FFE
235A
2E72
2B5A
7FFF
0240
3E7E
2244
3E7E
1FFC
3FFC
3FFC
3FFC
3FFC
3FFC
ENDCHAR
STARTCHAR char36445
ENCODING 36097
SWIDTH 640 0
DWIDTH 16 0
BBX 16 16 0 -1
BITMAP
0010
7FB0
7FB0
7FB0
7FBF
7FBF
53C2
73E2
7F26
7F34
7F1C
411C
7F08
7F1C
3327
6143
ENDCHAR
STARTCHAR char36446
ENCODING 22753
SWIDTH 640 0
DWIDTH 16 0
BBX 16 16 0 -1
BITMAP
0000
0D02
0FFE
3FA6
20B4
5F1C
131C
3DB7
5A4A
3F88
73FE
3F7E
3308
3F08
3FFF
3FFF
ENDCHAR
STARTCHAR char36447
ENCODING 31977
SWIDTH 640 0
DWIDTH 16 0
BBX 16 16 0 -1
BITMAP
0020
1020
D670
54C8
7DFF
3373
7DFE
7D32
117A
5DFE
54FC
55FC
D5FC
11FC
11FC
11FC
ENDCHAR
STARTCHAR char36448
ENCODING 33227
SWIDTH 640 0
DWIDTH 16 0
BBX 16 16 0 -1
BITMAP
0000
3F3C
3F2C
3F4F
3FFC
3F3C
3F9C
5B3E
71E3
3FFE
3144
37A4
3C94
31E4
3E3C
3C0C
ENDCHAR
STARTCHAR char36449
ENCODING 38361
SWIDTH 640 0
DWIDTH 16 0
BBX 16 16 0 -1
BITMAP
0000
7E7F
4243
7E7F
4243
7E7F
4303
4F4B
4F7B
4FCB
4FCB
4F33
5F3B
596F
4FC7
4006
ENDCHAR
STARTCHAR char36450
ENCODING 26375
SWIDTH 640 0
DWIDTH 16 0
BBX 16 16 0 -1
BITMAP
0800
0810
1EFF
33FF
7DCB
1EFF
7FCB
6FCB
4FFF
7F3C
3E6C
3FFF
3F0C
3F0C
3F0C
3F0C
ENDCHAR
STARTCHAR char36451
ENCODING 39495
SWIDTH 640 0
DWIDTH 16 0
BBX 16 16 0 -1
BITMAP
0000
0C30
7F3C
7FBC
3374
6F35
3F7F
7FC3
4FFC
1FFC
1FFC
1FFC
1FFF
2FFF
249E
400C
ENDCHAR
STARTCHAR char36452
ENCODING 30324
SWIDTH 640 0
DWIDTH 16 0
BBX 16 16 0 -1
BITMAP
0000
0082
3FFF
35E0
FCEC
FCFC
7FEF
3EEE
33FF
7CE0
33F8
33C2
27FE
7FFF
40C0
C0C0
ENDCHAR
STARTCHAR char36453
ENCODING 21249
SWIDTH 640 0
DWIDTH 16 0
BBX 16 16 0 -1
BITMAP
0000
0C00
0C00
0FFE
08C4
10C4
3C84
2584
4704
0384
02C4
0664
0C3C
080F
103C
2038
ENDCHAR
STARTCHAR char36454
ENCODING 21498
SWIDTH 640 0
DWIDTH 16 0
BBX 16 16 0 -1
BITMAP
0000
00E0
7C40
7C40
4C40
4C40
4C40
4CE0
4CF0
4CB0
7D90
7908
420C
0406
0803
1003
ENDCHAR
STARTCHAR char36455
ENCODING 40857
SWIDTH 640 0
DWIDTH 16 0
BBX 16 16 0 -1
BITMAP
0100
0308
030C
0302
7FFF
0300
038C
038C
0288
0690
04B0
0CE0
08C3
1183
26FF
447E
ENDCHAR
STARTCHAR char36456
ENCODING 27721
SWIDTH 640 0
DWIDTH 16 0
BBX 16 16 0 -1
BITMAP
0000
2004
13FE
0B04
030C
430C
6108
3198
0090
08F0
1060
1060
2090
6108
4E07
0803
ENDCHAR
STARTCHAR char36457
ENCODING 36791
SWIDTH 640 0
DWIDTH 16 0
BBX 16 16 0 -1
BITMAP
0000
2000
1000
1000
0000
7800
1002
33FF
3C00
0C00
0800
1800
3000
7800
47FF
03FE
ENDCHAR
STARTCHAR char36458
ENCODING 20265
SWIDTH 640 0
DWIDTH 16 0
BBX 16 16 0 -1
BITMAP
0800
0880
0840
17FF
100C
300C
330C
7108
7108
3090
30F0
3060
3070
30D8
3387
3603
ENDCHAR
STARTCHAR char36459
ENCODING 21326
SWIDTH 640 0
DWIDTH 16 0
BBX 16 16 0 -1
BITMAP
0040
06C0
0CC0
18FE
38C0
68C0
08C3
08FF
087E
0080
0082
7FFF
0080
0080
0080
0080
ENDCHAR
STARTCHAR char36460
ENCODING 23681
SWIDTH 640 0
DWIDTH 16 0
BBX 16 16 0 -1
BITMAP
0080
1086
3084
3084
3084
3FFC
0104
0300
07FC
0C0C
1C18
7230
01E0
01C0
0E00
7800
ENDCHAR
STARTCHAR char36461
ENCODING 24336
SWIDTH 640 0
DWIDTH 16 0
BBX 16 16 0 -1
BITMAP
0000
0028
3F24
3F20
7FFF
7FFF
0020
01A0
7FA0
0020
0030
0191
7E19
7809
0007
0003
ENDCHAR
STARTCHAR char36462
ENCODING 25192
SWIDTH 640 0
DWIDTH 16 0
BBX 16 16 0 -1
BITMAP
1000
3002
37FE
3042
7C42
3242
3342
3542
39C2
70C2
30E2
30BC
318F
3307
727C
6418
ENDCHAR
STARTCHAR char36463
ENCODING 26434
SWIDTH 640 0
DWIDTH 16 0
BBX 16 16 0 -1
BITMAP
0200
0200
3FF0
3FF0
0230
0433
083F
309F
4080
7FFF
0080
0080
0C98
108C
2086
0080
ENDCHAR
STARTCHAR char36464
ENCODING 26432
SWIDTH 640 0
DWIDTH 16 0
BBX 16 16 0 -1
BITMAP
0000
1018
0F20
03C0
03F0
071C
3884
3080
7FFF
7FFF
0480
04B0
0898
108C
6086
4080
ENDCHAR
STARTCHAR char36465
ENCODING 20970
SWIDTH 640 0
DWIDTH 16 0
BBX 16 16 0 -1
BITMAP
0000
3FFC
300C
308C
308C
308C
368C
348C
34FC
34FC
348C
2485
2485
648B
5FFB
C001
ENDCHAR
STARTCHAR char36466
ENCODING 27746
SWIDTH 640 0
DWIDTH 16 0
BBX 16 16 0 -1
BITMAP
0000
2060
1040
0840
0040
0040
6040
37FE
0040
0840
1040
1040
2040
6040
4FFF
0FFF
ENDCHAR
STARTCHAR char36467
ENCODING 29585
SWIDTH 640 0
DWIDTH 16 0
BBX 16 16 0 -1
BITMAP
0000
0408
7EF8
1088
1088
1088
7C88
7C88
1088
1088
1088
1D08
7309
4309
060F
0C0F
ENDCHAR
STARTCHAR char36468
ENCODING 36795
SWIDTH 640 0
DWIDTH 16 0
BBX 16 16 0 -1
BITMAP
0000
2020
1020
1020
0020
7820
13FF
37FF
3C20
0C20
0820
1820
3020
7800
47FF
03FE
ENDCHAR
STARTCHAR char36469
ENCODING 36796
SWIDTH 640 0
DWIDTH 16 0
BBX 16 16 0 -1
BITMAP
0000
2020
10E0
1020
0020
7870
1070
30F0
3C90
0D88
090C
1B06
3603
7800
4FFF
03FE
ENDCHAR
STARTCHAR char36470
ENCODING 22248
SWIDTH 640 0
DWIDTH 16 0
BBX 16 16 0 -1
BITMAP
0000
7FFE
4002
5FFA
40C2
4082
41E2
43B2
469A
4C8E
5082
4082
4082
4082
7FFE
7FFE
ENDCHAR
STARTCHAR char36471
ENCODING 22363
SWIDTH 640 0
DWIDTH 16 0
BBX 16 16 0 -1
BITMAP
1000
3004
31FE
3000
3000
7C00
33FF
33FF
30C0
30C0
3C88
390C
630C
027E
03C3
0000
ENDCHAR
STARTCHAR char36472
ENCODING 23703
SWIDTH 640 0
DWIDTH 16 0
BBX 16 16 0 -1
BITMAP
0000
2106
2104
2104
3FFC
4002
7FFE
4832
4722
43C2
40C2
41E2
4632
5C12
400E
400C
ENDCHAR
STARTCHAR char36473
ENCODING 26466
SWIDTH 640 0
DWIDTH 16 0
BBX 16 16 0 -1
BITMAP
0080
0080
0082
7FFF
03C0
06F8
0C8E
3083
4080
3FFE
0080
0080
0080
0080
7FFF
7FFF
ENDCHAR
STARTCHAR char36474
ENCODING 25252
SWIDTH 640 0
DWIDTH 16 0
BBX 16 16 0 -1
BITMAP
0000
100E
11F8
15C0
7F00
11FF
1103
1103
1F03
79FF
5100
1100
1300
1300
7200
3400
ENDCHAR
STARTCHAR char36475
ENCODING 26470
SWIDTH 640 0
DWIDTH 16 0
BBX 16 16 0 -1
BITMAP
0040
10C0
10C0
10F8
7E88
7F88
3908
3410
3610
7038
5028
1068
10CC
1186
1303
1603
ENDCHAR
STARTCHAR char36476
ENCODING 27811
SWIDTH 640 0
DWIDTH 16 0
BBX 16 16 0 -1
BITMAP
0000
2040
104C
087C
07C0
4040
63FE
33FE
0040
0840
17FF
1040
2040
6040
4040
0040
ENDCHAR
STARTCHAR char36477
ENCODING 28799
SWIDTH 640 0
DWIDTH 16 0
BBX 16 16 0 -1
BITMAP
0010
1030
1030
1430
1E31
D933
5133
3133
3133
1133
1133
3933
2533
6533
41FF
C0FF
ENDCHAR
STARTCHAR char36478
ENCODING 30710
SWIDTH 640 0
DWIDTH 16 0
BBX 16 16 0 -1
BITMAP
0000
0480
7EFC
308C
308C
308C
208C
3C8C
6C8C
6C8C
2C8C
2C8D
2C8D
2D0D
3F0F
3E07
ENDCHAR
STARTCHAR char36480
ENCODING 21625
SWIDTH 640 0
DWIDTH 16 0
BBX 16 16 0 -1
BITMAP
0020
0120
F9A0
F920
C9FE
CBFE
CA20
C820
CBFF
CBFF
FC70
FCD0
0098
010C
0207
0403
ENDCHAR
STARTCHAR char36481
ENCODING 40702
SWIDTH 640 0
DWIDTH 16 0
BBX 16 16 0 -1
BITMAP
0000
3FF8
3008
3008
3FF8
3FF8
0100
7FFC
410C
7FFC
410C
7FFC
4103
0103
01FF
00FE
ENDCHAR
STARTCHAR char36482
ENCODING 21647
SWIDTH 640 0
DWIDTH 16 0
BBX 16 16 0 -1
BITMAP
00C0
00E0
F810
F820
C9E0
C823
CBE6
CBEC
C8B0
C9B0
F938
032C
0227
0423
08E0
00C0
ENDCHAR
STARTCHAR char36483
ENCODING 21609
SWIDTH 640 0
DWIDTH 16 0
BBX 16 16 0 -1
BITMAP
0000
0004
F9FE
F800
C800
C802
CFFF
C830
C930
C934
FB36
FB33
0231
0431
0030
0030
ENDCHAR
STARTCHAR char36484
ENCODING 21613
SWIDTH 640 0
DWIDTH 16 0
BBX 16 16 0 -1
BITMAP
0124
032C
7B2C
7B2C
4B2C
4FFF
4B2C
4B2C
4B2C
4B2C
4B3C
7B3C
4300
0300
03FF
01FF
ENDCHAR
STARTCHAR char36485
ENCODING 21652
SWIDTH 640 0
DWIDTH 16 0
BBX 16 16 0 -1
BITMAP
0000
0040
F840
F840
C87E
C840
C842
CFFF
C840
C860
F858
F84C
0046
0040
0040
0040
ENDCHAR
STARTCHAR char36486
ENCODING 21610
SWIDTH 640 0
DWIDTH 16 0
BBX 16 16 0 -1
BITMAP
0000
03FE
7F04
7F04
4F04
4F04
4FFC
4FFC
4C50
4C50
4CD0
7C91
4191
0311
0E1F
1C0F
ENDCHAR
STARTCHAR char36487
ENCODING 21642
SWIDTH 640 0
DWIDTH 16 0
BBX 16 16 0 -1
BITMAP
0000
000E
03F8
FBE0
C820
C822
CFFF
C860
C870
C8F8
F8A8
F9AC
0327
0623
0020
0020
ENDCHAR
STARTCHAR char36488
ENCODING 22269
SWIDTH 640 0
DWIDTH 16 0
BBX 16 16 0 -1
BITMAP
0000
7FFE
4002
400A
5FFA
4102
4102
4112
4FFA
4122
4112
4102
5FFA
4002
7FFE
4002
ENDCHAR
STARTCHAR char36489
ENCODING 22267
SWIDTH 640 0
DWIDTH 16 0
BBX 16 16 0 -1
BITMAP
0000
4002
7FFE
4FF2
4812
4812
4FFA
48C2
4FFA
4FFA
4842
49A2
4F1E
4C0A
7FFE
7FFE
ENDCHAR
STARTCHAR char36490
ENCODING 22264
SWIDTH 640 0
DWIDTH 16 0
BBX 16 16 0 -1
BITMAP
0000
7FFE
4002
4FFA
4082
4082
4C82
4C92
4CFA
4C82
4C82
4C82
4FFA
4FFA
7FFE
7FFE
ENDCHAR
STARTCHAR char36491
ENCODING 22268
SWIDTH 640 0
DWIDTH 16 0
BBX 16 16 0 -1
BITMAP
0000
7FFE
4002
4182
4312
460A
4FFE
4F8E
4FF2
4FF2
4C12
4C12
4FF2
4FF2
7FFE
7FFE
ENDCHAR
STARTCHAR char36492
ENCODING 22262
SWIDTH 640 0
DWIDTH 16 0
BBX 16 16 0 -1
BITMAP
0000
2002
3FFE
2222
2222
2422
283A
2082
2082
2FFA
2082
2082
2FFA
2FFA
3FFE
2002
ENDCHAR
STARTCHAR char36493
ENCODING 22373
SWIDTH 640 0
DWIDTH 16 0
BBX 16 16 0 -1
BITMAP
0000
1900
11FC
110C
110C
7FFC
110C
110C
110C
110C
15FC
1D0C
710C
010C
03FF
03FF
ENDCHAR
STARTCHAR char36494
ENCODING 22401
SWIDTH 640 0
DWIDTH 16 0
BBX 16 16 0 -1
BITMAP
0000
10C0
10C0
1084
10FE
7F30
1230
1030
13FF
13FF
1420
1C48
60C4
0182
0603
0401
ENDCHAR
STARTCHAR char36495
ENCODING 22371
SWIDTH 640 0
DWIDTH 16 0
BBX 16 16 0 -1
BITMAP
0080
1088
0898
0C90
3FFF
7FFF
4082
4080
0080
0084
3FFE
0080
0080
0080
7FFF
7FFF
ENDCHAR
STARTCHAR char36496
ENCODING 22375
SWIDTH 640 0
DWIDTH 16 0
BBX 16 16 0 -1
BITMAP
1000
3002
37FF
30C0
30C0
7C80
3180
31FE
3382
3382
3E82
7482
4882
0082
00FE
0000
ENDCHAR
STARTCHAR char36497
ENCODING 22382
SWIDTH 640 0
DWIDTH 16 0
BBX 16 16 0 -1
BITMAP
0000
1020
3060
3040
30C4
7C82
31FF
33E1
3000
31FE
3D02
3D02
E102
0102
01FE
01FE
ENDCHAR
STARTCHAR char36498
ENCODING 22392
SWIDTH 640 0
DWIDTH 16 0
BBX 16 16 0 -1
BITMAP
0000
18C0
10C0
1080
11FF
7D03
13F3
11F3
1113
1113
15F3
1DF3
7003
0002
003E
000C
ENDCHAR
STARTCHAR char36499
ENCODING 22399
SWIDTH 640 0
DWIDTH 16 0
BBX 16 16 0 -1
BITMAP
1004
308C
308C
310C
7D0C
7F7F
330C
374C
332C
332C
3F0C
7B0C
430C
030C
031C
0318
ENDCHAR
STARTCHAR char36500
ENCODING 22771
SWIDTH 640 0
DWIDTH 16 0
BBX 16 16 0 -1
BITMAP
0080
0082
7FFF
0080
3FFC
3FFC
3FFF
3FFF
6FF4
0FF0
0FF0
0C30
0C33
0833
183F
701F
ENDCHAR
STARTCHAR char36501
ENCODING 22859
SWIDTH 640 0
DWIDTH 16 0
BBX 16 16 0 -1
BITMAP
0000
0100
7FFF
7FFF
0630
0C18
3807
6003
3FFC
3084
3084
3FFC
3084
3084
3FFC
3FFC
ENDCHAR
STARTCHAR char36502
ENCODING 22860
SWIDTH 640 0
DWIDTH 16 0
BBX 16 16 0 -1
BITMAP
0000
0100
01FE
01FE
1FFC
1FFC
100C
100C
1FFC
0080
7FFF
7FFF
0330
0638
1C06
7003
ENDCHAR
STARTCHAR char36503
ENCODING 22957
SWIDTH 640 0
DWIDTH 16 0
BBX 16 16 0 -1
BITMAP
0000
1048
104C
1044
36FF
3EFF
6444
2444
6CEC
4CEC
78B8
18B8
1598
313C
6267
41C3
ENDCHAR
STARTCHAR char36504
ENCODING 22980
SWIDTH 640 0
DWIDTH 16 0
BBX 16 16 0 -1
BITMAP
0000
11FE
1102
1102
37FE
3FFE
6510
2510
6DFF
4DFF
7918
1908
150D
332D
21C7
4183
ENDCHAR
STARTCHAR char36505
ENCODING 22978
SWIDTH 640 0
DWIDTH 16 0
BBX 16 16 0 -1
BITMAP
0000
1006
11F8
11E0
3620
3E30
65FC
25FC
6C08
4C18
7830
1860
14C0
3180
237F
403F
ENDCHAR
STARTCHAR char36506
ENCODING 22960
SWIDTH 640 0
DWIDTH 16 0
BBX 16 16 0 -1
BITMAP
0040
10C0
10C0
10FF
34A0
3F20
6720
243E
6C20
4C20
783E
183E
1420
3220
2020
4020
ENDCHAR
STARTCHAR char36507
ENCODING 22975
SWIDTH 640 0
DWIDTH 16 0
BBX 16 16 0 -1
BITMAP
0800
0842
7F7E
7F42
0B42
1342
337E
6F7E
0700
0302
7FFF
0630
0E20
0FC0
077C
3E0E
ENDCHAR
STARTCHAR char36508
ENCODING 22985
SWIDTH 640 0
DWIDTH 16 0
BBX 16 16 0 -1
BITMAP
0000
1020
1030
11FF
3430
3E30
65FE
25FE
6D32
4D32
7932
1932
153E
313C
2030
4030
ENDCHAR
STARTCHAR char36509
ENCODING 22968
SWIDTH 640 0
DWIDTH 16 0
BBX 16 16 0 -1
BITMAP
1000
3000
33FF
3004
3C04
3FF4
6D34
2D34
6D34
4934
79F4
1804
3404
3004
201C
401C
ENDCHAR
STARTCHAR char36510
ENCODING 22956
SWIDTH 640 0
DWIDTH 16 0
BBX 16 16 0 -1
BITMAP
0000
1000
11FF
11FF
3420
3E40
6440
24C2
6CFE
4DC2
79C2
1AC2
14C2
30C2
20FE
40FE
ENDCHAR
STARTCHAR char36511
ENCODING 22967
SWIDTH 640 0
DWIDTH 16 0
BBX 16 16 0 -1
BITMAP
0010
10B0
10B0
10B0
34FE
3FFE
6730
2430
2DFF
6DFF
1830
1858
14C8
358C
2307
4603
ENDCHAR
STARTCHAR char36512
ENCODING 22999
SWIDTH 640 0
DWIDTH 16 0
BBX 16 16 0 -1
BITMAP
1000
3052
33FE
3352
3F52
3F52
6F52
2F52
6FFF
4B52
3B52
1B52
3F52
3752
23D6
43D4
ENDCHAR
STARTCHAR char36513
ENCODING 36808
SWIDTH 640 0
DWIDTH 16 0
BBX 16 16 0 -1
BITMAP
0000
2002
13FF
10C0
00C0
78C2
10FE
30C2
3C82
0D86
0904
1B04
3238
7800
4FFF
03FE
ENDCHAR
STARTCHAR char36514
ENCODING 20395
SWIDTH 640 0
DWIDTH 16 0
BBX 16 16 0 -1
BITMAP
0000
1060
17FF
17FF
3200
3200
33FE
7040
30CC
3FFF
3088
3110
31F0
3078
318C
3702
ENDCHAR
STARTCHAR char36515
ENCODING 23597
SWIDTH 640 0
DWIDTH 16 0
BBX 16 16 0 -1
BITMAP
0080
0080
0FFC
0FFC
0480
0C10
3FFF
3FFF
0C10
0002
7FFF
0240
0640
0443
187F
703F
ENDCHAR
STARTCHAR char36516
ENCODING 21660
SWIDTH 640 0
DWIDTH 16 0
BBX 16 16 0 -1
BITMAP
0000
0020
F830
FBFF
CA02
CA02
CB80
C900
C93C
C9F0
F900
0102
0102
0102
01FE
00FC
ENDCHAR
STARTCHAR char36517
ENCODING 22408
SWIDTH 640 0
DWIDTH 16 0
BBX 16 16 0 -1
BITMAP
0440
0CD8
08CC
10FF
37C0
7060
5020
1031
101F
108F
0088
1FFC
0080
0080
7FFF
7FFF
ENDCHAR
STARTCHAR char36518
ENCODING 25283
SWIDTH 640 0
DWIDTH 16 0
BBX 16 16 0 -1
BITMAP
0080
1080
1080
1500
7FFF
1340
1240
107E
1E40
7840
507E
107E
1040
1040
7040
7040
ENDCHAR
STARTCHAR char36519
ENCODING 26137
SWIDTH 640 0
DWIDTH 16 0
BBX 16 16 0 -1
BITMAP
0000
3FFE
3004
3FFC
3004
3004
3FFC
0004
1FFC
0000
7FFF
7FFF
0610
0C08
1FFC
1F02
ENDCHAR
STARTCHAR char36520
ENCODING 26529
SWIDTH 640 0
DWIDTH 16 0
BBX 16 16 0 -1
BITMAP
1004
306C
33CC
33CC
7CCC
7CCC
30CC
3BFF
7CCC
70CC
70CC
F08C
318C
310C
320C
340C
ENDCHAR
STARTCHAR char36521
ENCODING 26534
SWIDTH 640 0
DWIDTH 16 0
BBX 16 16 0 -1
BITMAP
0000
101E
10F0
1080
7EFF
7EFF
3883
3483
36FF
70FF
5080
1100
1100
1300
1200
1400
ENDCHAR
STARTCHAR char36522
ENCODING 30718
SWIDTH 640 0
DWIDTH 16 0
BBX 16 16 0 -1
BITMAP
0000
0500
7FFC
310C
310C
310C
21CC
3D6C
6D3C
6D0C
2D0C
2D0D
2F0D
2F0D
3E0F
040F
ENDCHAR
STARTCHAR char36523
ENCODING 32599
SWIDTH 640 0
DWIDTH 16 0
BBX 16 16 0 -1
BITMAP
0000
3FFE
2222
2222
3FFE
3FFE
0600
07FC
0C0C
1C18
3330
61E0
00C0
0180
0700
1C00
ENDCHAR
STARTCHAR char36524
ENCODING 33477
SWIDTH 640 0
DWIDTH 16 0
BBX 16 16 0 -1
BITMAP
0410
0C30
7F7F
7F7F
0C30
0102
0332
2332
1232
0C32
0632
0F32
1982
3002
600E
000C
ENDCHAR
STARTCHAR char36525
ENCODING 36831
SWIDTH 640 0
DWIDTH 16 0
BBX 16 16 0 -1
BITMAP
0000
20FE
1084
1084
0084
7884
10FC
30C0
3CB0
0C98
088C
1906
3303
7A00
4FFF
03FE
ENDCHAR
STARTCHAR char36526
ENCODING 36828
SWIDTH 640 0
DWIDTH 16 0
BBX 16 16 0 -1
BITMAP
0000
2004
11FE
1000
0000
7BFF
10D0
30D0
3CD0
0CD3
0893
1993
331F
780E
4FFF
03FE
ENDCHAR
STARTCHAR char36527
ENCODING 20452
SWIDTH 640 0
DWIDTH 16 0
BBX 16 16 0 -1
BITMAP
0000
1108
1198
17FE
3042
3042
37FE
77FE
3440
37FF
30C3
31C3
334E
364C
3840
3040
ENDCHAR
STARTCHAR char36528
ENCODING 21787
SWIDTH 640 0
DWIDTH 16 0
BBX 16 16 0 -1
BITMAP
0000
0040
FBFF
FBFF
C9FE
C9FE
CBFF
CBFF
C880
C9FE
FBC6
024C
0478
0870
00DF
0707
ENDCHAR
STARTCHAR char36529
ENCODING 22442
SWIDTH 640 0
DWIDTH 16 0
BBX 16 16 0 -1
BITMAP
0000
110C
3088
30D2
33FE
7CC8
30C8
30C8
33FF
33FF
34C8
3C88
6188
0108
0208
0408
ENDCHAR
STARTCHAR char36530
ENCODING 22443
SWIDTH 640 0
DWIDTH 16 0
BBX 16 16 0 -1
BITMAP
0820
0820
7E20
7FFE
0824
0FA4
7864
6875
0897
7B03
1080
0084
3FFE
0080
0082
7FFF
ENDCHAR
STARTCHAR char36531
ENCODING 23465
SWIDTH 640 0
DWIDTH 16 0
BBX 16 16 0 -1
BITMAP
0000
0180
3FFF
3FFF
6082
1088
0898
0CB0
3FFE
3FFE
04C0
04B0
0898
108C
6084
0080
ENDCHAR
STARTCHAR char36532
ENCODING 26641
SWIDTH 640 0
DWIDTH 16 0
BBX 16 16 0 -1
BITMAP
1000
3004
37E4
3224
7E64
7F5F
3144
38C4
3CD4
70DC
70CC
F144
3344
3344
360C
340C
ENDCHAR
STARTCHAR char36533
ENCODING 30033
SWIDTH 640 0
DWIDTH 16 0
BBX 16 16 0 -1
BITMAP
0000
1102
11FE
1532
D732
5D32
5932
3132
31FE
1132
3932
3D32
2532
6132
41FE
4102
ENDCHAR
STARTCHAR char36534
ENCODING 30035
SWIDTH 640 0
DWIDTH 16 0
BBX 16 16 0 -1
BITMAP
0080
0080
3E8C
3E9C
06E0
0CB0
189C
338F
4100
3FFC
308C
308C
3FFC
308C
3FFC
3FFC
ENDCHAR
STARTCHAR char36535
ENCODING 30744
SWIDTH 640 0
DWIDTH 16 0
BBX 16 16 0 -1
BITMAP
0020
0420
7E20
33FE
3020
3020
21A2
3D22
6D22
6D22
2DFE
2CFC
2C21
2C21
3C3F
3C3F
ENDCHAR
STARTCHAR char36536
ENCODING 31447
SWIDTH 640 0
DWIDTH 16 0
BBX 16 16 0 -1
BITMAP
0010
2030
1030
1230
7EB4
44B2
44B3
2533
2D32
2F36
2C3C
2E0C
3C18
7030
00E0
0380
ENDCHAR
STARTCHAR char36537
ENCODING 31870
SWIDTH 640 0
DWIDTH 16 0
BBX 16 16 0 -1
BITMAP
0000
1000
D3FF
5633
7433
1533
7EB3
7EF3
3463
3623
7262
5242
D0C2
1186
133C
120C
ENDCHAR
STARTCHAR char36538
ENCODING 34430
SWIDTH 640 0
DWIDTH 16 0
BBX 16 16 0 -1
BITMAP
0000
1002
13FF
1230
FE30
D230
D238
D23C
D236
FE33
1030
1430
1230
1E30
7030
0030
ENDCHAR
STARTCHAR char36539
ENCODING 21094
SWIDTH 640 0
DWIDTH 16 0
BBX 16 16 0 -1
BITMAP
0001
0403
7FEB
7FEB
088B
16CB
246B
7FCB
34CB
3FCB
3FCB
3FCB
0403
04C3
0707
0006
ENDCHAR
STARTCHAR char36540
ENCODING 21792
SWIDTH 640 0
DWIDTH 16 0
BBX 16 16 0 -1
BITMAP
0084
008C
F3DF
F3DF
D088
D200
D3FF
D442
D440
D3FE
F844
C044
00C4
0184
0338
0600
ENDCHAR
STARTCHAR char36541
ENCODING 21793
SWIDTH 640 0
DWIDTH 16 0
BBX 16 16 0 -1
BITMAP
0000
0002
07FF
10C8
FFFF
D7FF
D4CB
D4CB
D4CB
D4FB
D5B7
FD37
0623
0403
0407
0406
ENDCHAR
STARTCHAR char36542
ENCODING 22487
SWIDTH 640 0
DWIDTH 16 0
BBX 16 16 0 -1
BITMAP
1010
3030
3030
313E
3530
7F30
3130
33FF
30B0
32B2
3DB6
333C
E418
0030
00E0
0780
ENDCHAR
STARTCHAR char36543
ENCODING 23486
SWIDTH 640 0
DWIDTH 16 0
BBX 16 16 0 -1
BITMAP
0000
0180
3FFF
3FFF
6072
4FF0
0800
0FFE
0820
0820
0822
7FFF
0220
0638
3806
6003
ENDCHAR
STARTCHAR char36544
ENCODING 26711
SWIDTH 640 0
DWIDTH 16 0
BBX 16 16 0 -1
BITMAP
0000
11F8
10C8
10C8
7CCE
7CCE
3882
3D1E
3624
7022
57FF
10A8
11A4
1322
1623
1020
ENDCHAR
STARTCHAR char36545
ENCODING 32572
SWIDTH 640 0
DWIDTH 16 0
BBX 16 16 0 -1
BITMAP
1020
3020
3020
2220
3F7F
485B
0852
7FD4
0810
6910
4B38
4B28
4B6C
7F46
0083
0103
ENDCHAR
STARTCHAR char36546
ENCODING 33395
SWIDTH 640 0
DWIDTH 16 0
BBX 16 16 0 -1
BITMAP
0820
0824
0B7E
0F44
788C
098A
3EFE
3ED2
08D2
08D2
7FFE
08C0
08C3
08C3
08FF
087F
ENDCHAR
STARTCHAR char36547
ENCODING 38590
SWIDTH 640 0
DWIDTH 16 0
BBX 16 16 0 -1
BITMAP
0040
00D0
7CD8
7C88
24FF
2590
1490
1CFE
0C90
0C90
0CFE
1EFE
1290
3090
60FF
4080
ENDCHAR
STARTCHAR char36548
ENCODING 26362
SWIDTH 640 0
DWIDTH 16 0
BBX 16 16 0 -1
BITMAP
0000
0180
7FFF
7FFF
3FFC
3084
3FFC
3084
3FFC
0000
0FF8
0808
0FF8
0808
0FF8
0FF8
ENDCHAR
STARTCHAR char36549
ENCODING 23154
SWIDTH 640 0
DWIDTH 16 0
BBX 16 16 0 -1
BITMAP
1084
308C
33CF
37CF
3C88
7C40
24D8
24D0
6C90
4D9F
7B90
3090
3891
3C91
649F
408F
ENDCHAR
STARTCHAR char36550
ENCODING 26813
SWIDTH 640 0
DWIDTH 16 0
BBX 16 16 0 -1
BITMAP
0010
1030
1030
1032
7FFF
7C30
3830
3DFE
3600
5050
50D8
D1C2
11C5
13C5
12FE
107C
ENDCHAR
STARTCHAR char36551
ENCODING 28181
SWIDTH 640 0
DWIDTH 16 0
BBX 16 16 0 -1
BITMAP
0001
2463
16CB
128B
07CB
47CB
610B
312B
0FEB
090B
110B
118B
2343
4663
4C27
0806
ENDCHAR
STARTCHAR char36552
ENCODING 29715
SWIDTH 640 0
DWIDTH 16 0
BBX 16 16 0 -1
BITMAP
0000
0020
7FFF
7FFF
3202
3004
7DFE
7C00
33FF
33FF
3CD0
3CD0
6091
0191
031F
060F
ENDCHAR
STARTCHAR char36553
ENCODING 29944
SWIDTH 640 0
DWIDTH 16 0
BBX 16 16 0 -1
BITMAP
0000
0202
7EFE
3010
30FC
32FC
3EC4
22C4
32FC
2AC4
22C4
22C5
26FD
3E01
E3FF
03FF
ENDCHAR
STARTCHAR char36554
ENCODING 31549
SWIDTH 640 0
DWIDTH 16 0
BBX 16 16 0 -1
BITMAP
0020
1020
1F3F
3FFF
2890
4D08
0400
3FF8
324C
324C
324C
324C
324C
324C
7FFF
7FFF
ENDCHAR
STARTCHAR char36555
ENCODING 30424
SWIDTH 640 0
DWIDTH 16 0
BBX 16 16 0 -1
BITMAP
0100
0308
0FF8
0908
08C8
7FFF
0908
1988
1078
3030
7FFC
3FFC
3244
3244
7FFF
7FFF
ENDCHAR
STARTCHAR char36556
ENCODING 31228
SWIDTH 640 0
DWIDTH 16 0
BBX 16 16 0 -1
BITMAP
0010
1EB0
70B0
1132
11FE
7F30
1230
3832
37FF
7470
50F8
51BC
1337
1433
1030
1030
ENDCHAR
STARTCHAR char36557
ENCODING 31545
SWIDTH 640 0
DWIDTH 16 0
BBX 16 16 0 -1
BITMAP
0020
1120
3FFF
6850
448C
1910
1110
1110
7FFF
7FFF
1110
1110
11F8
1000
1FFE
0FFE
ENDCHAR
STARTCHAR char36558
ENCODING 32075
SWIDTH 640 0
DWIDTH 16 0
BBX 16 16 0 -1
BITMAP
0000
1820
30FF
31FF
2D00
4918
7910
1930
2D30
5D20
6564
0D42
D7C3
5BDF
6AF3
0400
ENDCHAR
STARTCHAR char36559
ENCODING 33721
SWIDTH 640 0
DWIDTH 16 0
BBX 16 16 0 -1
BITMAP
0400
0C10
7F7F
7F7F
0C30
2000
3FFF
4002
7FFC
3FFC
0080
1FFC
0080
0098
7FFF
7FFF
ENDCHAR
STARTCHAR char36560
ENCODING 34511
SWIDTH 640 0
DWIDTH 16 0
BBX 16 16 0 -1
BITMAP
0000
1002
11FE
1084
FCCC
FC78
D438
D44F
D5B2
FE30
10FE
14FE
1430
1E30
73FF
03FF
ENDCHAR
STARTCHAR char36561
ENCODING 36526
SWIDTH 640 0
DWIDTH 16 0
BBX 16 16 0 -1
BITMAP
1000
301C
7C6C
7CCC
4C84
7D86
4D03
7C05
4FFE
5C44
7C44
5C44
2CC4
4CC4
1D9C
1B18
ENDCHAR
STARTCHAR char36562
ENCODING 38635
SWIDTH 640 0
DWIDTH 16 0
BBX 16 16 0 -1
BITMAP
0000
3FFE
0080
3FFF
6C8A
4EF8
0C9C
1C8C
3FFF
3FFF
01C0
01E0
0110
0100
0100
0100
ENDCHAR
STARTCHAR char36563
ENCODING 21936
SWIDTH 640 0
DWIDTH 16 0
BBX 16 16 0 -1
BITMAP
0020
0060
F850
F8C8
C9FE
CB73
CFFC
CB0C
CBFC
CB0C
FBFC
FB26
031C
030C
03E6
0182
ENDCHAR
STARTCHAR char36564
ENCODING 22592
SWIDTH 640 0
DWIDTH 16 0
BBX 16 16 0 -1
BITMAP
1000
31FE
3302
3302
33FE
7F44
3368
33FE
334C
374C
3BFF
33FF
664C
04CC
098C
030C
ENDCHAR
STARTCHAR char36565
ENCODING 22594
SWIDTH 640 0
DWIDTH 16 0
BBX 16 16 0 -1
BITMAP
1080
3090
3090
33FE
3090
7C90
37FF
37FF
318C
33FE
3F0B
7108
41FA
0102
01FF
00FE
ENDCHAR
STARTCHAR char36566
ENCODING 26923
SWIDTH 640 0
DWIDTH 16 0
BBX 16 16 0 -1
BITMAP
0000
1086
104C
1048
7DFE
7DFE
39FE
3DFE
3532
51FE
5032
13FF
1030
1030
1030
1030
ENDCHAR
STARTCHAR char36567
ENCODING 26902
SWIDTH 640 0
DWIDTH 16 0
BBX 16 16 0 -1
BITMAP
0000
101E
11F0
11FE
7D02
7D02
39FE
3D30
35FF
51FF
513E
133E
1362
1242
169E
150C
ENDCHAR
STARTCHAR char36568
ENCODING 26907
SWIDTH 640 0
DWIDTH 16 0
BBX 16 16 0 -1
BITMAP
1004
310C
33DF
37DF
7C88
3000
3098
7990
7110
731F
3710
3110
3111
3111
311F
310F
ENDCHAR
STARTCHAR char36569
ENCODING 26919
SWIDTH 640 0
DWIDTH 16 0
BBX 16 16 0 -1
BITMAP
0020
1020
1070
1058
7C8C
7F07
12FA
3852
37DE
5352
5352
1352
11F6
1010
1010
1010
ENDCHAR
STARTCHAR char36570
ENCODING 27637
SWIDTH 640 0
DWIDTH 16 0
BBX 16 16 0 -1
BITMAP
0000
1806
3278
2770
7912
081F
7FF0
7F10
3312
6D1F
3A70
2610
1911
7311
0E1F
780F
ENDCHAR
STARTCHAR char36571
ENCODING 28290
SWIDTH 640 0
DWIDTH 16 0
BBX 16 16 0 -1
BITMAP
0002
2102
17EA
07EA
010A
47EA
652A
352A
052A
0FEA
110A
33CA
2762
4D02
510E
010C
ENDCHAR
STARTCHAR char36572
ENCODING 28282
SWIDTH 640 0
DWIDTH 16 0
BBX 16 16 0 -1
BITMAP
0100
23FE
13C2
0AC2
02C2
46C2
667E
3A10
12FF
0AFF
1254
1256
22D3
4293
4311
0210
ENDCHAR
STARTCHAR char36573
ENCODING 28969
SWIDTH 640 0
DWIDTH 16 0
BBX 16 16 0 -1
BITMAP
1000
33FF
3253
3253
FA53
F3DF
7253
7253
33DF
33DF
3253
2A53
2673
4473
45EF
CCCE
ENDCHAR
STARTCHAR char36574
ENCODING 31915
SWIDTH 640 0
DWIDTH 16 0
BBX 16 16 0 -1
BITMAP
0000
1002
D7FF
D430
5C20
5DFF
7D4B
7D4B
7D4B
554B
554B
554B
D14B
114B
114B
1102
ENDCHAR
STARTCHAR char36575
ENCODING 31916
SWIDTH 640 0
DWIDTH 16 0
BBX 16 16 0 -1
BITMAP
0008
1048
5248
5448
75FF
3DFF
7D4B
7D4B
554B
55FF
554B
534B
D14B
114B
11FF
11FF
ENDCHAR
STARTCHAR char36576
ENCODING 33783
SWIDTH 640 0
DWIDTH 16 0
BBX 16 16 0 -1
BITMAP
0410
0C30
7F7F
0C30
1FF8
7FFF
0008
1FF8
3FFF
3FFF
4FF2
5FF8
1088
1088
10B8
0090
ENDCHAR
STARTCHAR char36577
ENCODING 38294
SWIDTH 640 0
DWIDTH 16 0
BBX 16 16 0 -1
BITMAP
0000
7E7F
4243
7E7F
4243
7E7F
4083
4083
408B
5E9B
42E3
44B3
489B
538F
4107
4006
ENDCHAR
STARTCHAR char36578
ENCODING 22001
SWIDTH 640 0
DWIDTH 16 0
BBX 16 16 0 -1
BITMAP
0020
0060
F8D0
F98C
CB77
C9FB
C90C
C9FC
C93C
CBFC
FBFC
FBFC
03FF
03FF
00E0
00C0
ENDCHAR
STARTCHAR char36579
ENCODING 24385
SWIDTH 640 0
DWIDTH 16 0
BBX 16 16 0 -1
BITMAP
0000
7FFF
0404
0514
05FC
7F14
41F4
4004
7DFF
3D12
05FA
0512
05F2
0DF2
780E
300C
ENDCHAR
STARTCHAR char36580
ENCODING 27018
SWIDTH 640 0
DWIDTH 16 0
BBX 16 16 0 -1
BITMAP
1104
330C
330C
37AC
78FF
78AF
31AF
393F
7BAF
7FEF
F33F
333F
332C
330C
330C
330C
ENDCHAR
STARTCHAR char36581
ENCODING 27020
SWIDTH 640 0
DWIDTH 16 0
BBX 16 16 0 -1
BITMAP
0000
13F8
100B
10EE
7DAE
7EAB
30A5
3BFF
34A8
50AB
50AE
112E
112D
1327
1223
1221
ENDCHAR
STARTCHAR char36582
ENCODING 27008
SWIDTH 640 0
DWIDTH 16 0
BBX 16 16 0 -1
BITMAP
0000
1080
10FC
108C
7C8C
7C8C
30FC
38FC
3400
53FF
5253
D253
1253
1253
13DF
13DF
ENDCHAR
STARTCHAR char36583
ENCODING 27007
SWIDTH 640 0
DWIDTH 16 0
BBX 16 16 0 -1
BITMAP
0000
101E
11F0
1032
7FFF
7C78
18F6
3DB3
3631
70FE
5084
1084
10FC
1084
10FC
10FC
ENDCHAR
STARTCHAR char36584
ENCODING 30876
SWIDTH 640 0
DWIDTH 16 0
BBX 16 16 0 -1
BITMAP
0000
0420
7E6C
30CE
31F3
3060
23FF
3FFF
6CBC
6D76
2FCB
2C18
2DE6
2D9C
3CF0
01C0
ENDCHAR
STARTCHAR char36585
ENCODING 31611
SWIDTH 640 0
DWIDTH 16 0
BBX 16 16 0 -1
BITMAP
0020
1122
3FFF
6CD8
450A
7FFF
0080
3FFC
308C
3FFC
3FFC
3FFC
0580
0380
0EFF
783F
ENDCHAR
STARTCHAR char36586
ENCODING 37074
SWIDTH 640 0
DWIDTH 16 0
BBX 16 16 0 -1
BITMAP
0000
10FE
18C4
7EC4
42FC
427C
7EFF
42FF
7E93
7E93
40FF
4880
4483
5E83
62FF
00FF
ENDCHAR
STARTCHAR char36587
ENCODING 38304
SWIDTH 640 0
DWIDTH 16 0
BBX 16 16 0 -1
BITMAP
0000
7E7F
4243
7E7F
4243
7E7F
4003
4FFB
4083
4083
47F3
40A3
4083
5FFB
4007
4006
ENDCHAR
STARTCHAR char36588
ENCODING 20905
SWIDTH 640 0
DWIDTH 16 0
BBX 16 16 0 -1
BITMAP
0000
2000
3FFF
4702
5C7C
100C
1F7C
100C
1FF8
0402
0FFE
3212
524A
1342
203E
000C
ENDCHAR
STARTCHAR char36589
ENCODING 29077
SWIDTH 640 0
DWIDTH 16 0
BBX 16 16 0 -1
BITMAP
0000
1002
11FE
1030
15FF
DD02
51FE
5102
51FE
1102
31FE
3902
25FE
6448
4186
4703
ENDCHAR
STARTCHAR char36590
ENCODING 29080
SWIDTH 640 0
DWIDTH 16 0
BBX 16 16 0 -1
BITMAP
1000
30C0
339F
320B
3ECB
FA53
73F3
732E
7044
33FE
3332
3B32
2FFE
6F32
43FE
C3FE
ENDCHAR
STARTCHAR char36591
ENCODING 29816
SWIDTH 640 0
DWIDTH 16 0
BBX 16 16 0 -1
BITMAP
0000
0020
7FFF
7FFF
323A
31F8
7D00
7DFE
3108
3108
3D08
3D08
67FF
0188
0306
0603
ENDCHAR
STARTCHAR char36592
ENCODING 30905
SWIDTH 640 0
DWIDTH 16 0
BBX 16 16 0 -1
BITMAP
0000
0020
7FFF
33FF
3202
31FC
2000
7DFE
6D04
ED04
2DFC
2D04
2DFC
2DFC
3FFF
03FF
ENDCHAR
STARTCHAR char36593
ENCODING 31283
SWIDTH 640 0
DWIDTH 16 0
BBX 16 16 0 -1
BITMAP
0000
1C48
70F8
1098
11FC
7EFC
1004
3BFF
3C04
75FC
5004
D092
1393
138D
16FD
10FC
ENDCHAR
STARTCHAR char36594
ENCODING 31936
SWIDTH 640 0
DWIDTH 16 0
BBX 16 16 0 -1
BITMAP
1084
308C
F7CF
77CF
788C
7800
7CD8
7CD0
7890
799F
7E90
F490
F091
3091
309F
308F
ENDCHAR
STARTCHAR char36595
ENCODING 31937
SWIDTH 640 0
DWIDTH 16 0
BBX 16 16 0 -1
BITMAP
1000
3020
F464
74C6
7DFF
3020
7CFF
7CFF
78DC
7CB6
756B
73D9
F064
31DC
3070
31C0
ENDCHAR
STARTCHAR char36596
ENCODING 34628
SWIDTH 640 0
DWIDTH 16 0
BBX 16 16 0 -1
BITMAP
0000
11FF
1107
114F
7D6B
5533
55FF
5533
55FF
7F43
1143
1543
1D3F
3F03
610F
010E
ENDCHAR
STARTCHAR char36597
ENCODING 36964
SWIDTH 640 0
DWIDTH 16 0
BBX 16 16 0 -1
BITMAP
0000
21FE
1130
1134
01FE
7934
11FE
3130
3DFF
0DFF
08EB
197E
3352
7A1C
4FFF
03FF
ENDCHAR
STARTCHAR char36598
ENCODING 37495
SWIDTH 640 0
DWIDTH 16 0
BBX 16 16 0 -1
BITMAP
0004
104C
3C4C
364C
22FE
40FE
3C4C
104C
7C4C
7C4C
55FF
5448
3C64
16C6
7982
6103
ENDCHAR
STARTCHAR char36599
ENCODING 37551
SWIDTH 640 0
DWIDTH 16 0
BBX 16 16 0 -1
BITMAP
0000
1030
3C20
3646
2288
41F0
3CA0
1042
7CFF
7CF1
5450
54D2
3C93
1713
7831
6030
ENDCHAR
STARTCHAR char36600
ENCODING 24164
SWIDTH 640 0
DWIDTH 16 0
BBX 16 16 0 -1
BITMAP
0400
2D18
3F30
0E3F
7FA2
5EF4
7E9C
5C9C
41A7
00C3
3FFC
3FFC
3084
309C
0088
0080
ENDCHAR
STARTCHAR char36601
ENCODING 27179
SWIDTH 640 0
DWIDTH 16 0
BBX 16 16 0 -1
BITMAP
1000
3440
37FF
350B
7FCB
37CE
37C6
3FC6
7D1B
77F1
F040
3046
37FE
3040
37FF
37FF
ENDCHAR
STARTCHAR char36602
ENCODING 28486
SWIDTH 640 0
DWIDTH 16 0
BBX 16 16 0 -1
BITMAP
0004
210C
13CF
13CF
03FF
63FF
34E2
0498
03F0
0860
13FC
13FE
20B8
61B6
4673
0460
ENDCHAR
STARTCHAR char36603
ENCODING 28570
SWIDTH 640 0
DWIDTH 16 0
BBX 16 16 0 -1
BITMAP
0000
2042
13FE
0BFA
02AA
43FE
6272
32FA
0326
0800
17FF
3104
21FE
4004
403C
0038
ENDCHAR
STARTCHAR char36604
ENCODING 37618
SWIDTH 640 0
DWIDTH 16 0
BBX 16 16 0 -1
BITMAP
0000
100E
3CF8
36C0
2280
4482
3EFF
108C
7C8C
7C8C
548C
37FF
3C40
16C4
7986
6303
ENDCHAR
STARTCHAR char36605
ENCODING 39801
SWIDTH 640 0
DWIDTH 16 0
BBX 16 16 0 -1
BITMAP
1000
340C
3E38
25F0
7C20
7E26
4BF8
7E20
4A23
4A3F
7FE0
0021
7E21
5721
D43F
C03F
ENDCHAR
STARTCHAR char36606
ENCODING 22138
SWIDTH 640 0
DWIDTH 16 0
BBX 16 16 0 -1
BITMAP
0000
0106
7FDC
7FF0
4AF0
4BB0
4FFF
4934
4BF4
4BF4
79B4
77F4
0574
0D24
0964
0144
ENDCHAR
STARTCHAR char36672
ENCODING 24412
SWIDTH 640 0
DWIDTH 16 0
BBX 16 16 0 -1
BITMAP
0000
0400
0FF0
0FE0
7FFF
7FFF
3A6C
7F43
287C
2B24
49DC
02B8
7FFF
7FFF
0830
7030
ENDCHAR
STARTCHAR char36673
ENCODING 26073
SWIDTH 640 0
DWIDTH 16 0
BBX 16 16 0 -1
BITMAP
0000
201E
31F0
7EB4
20F8
23FF
3C70
3CFE
2FB3
2FFE
2F32
6F32
4FFE
4F32
FBFE
33FE
ENDCHAR
STARTCHAR char36674
ENCODING 27250
SWIDTH 640 0
DWIDTH 16 0
BBX 16 16 0 -1
BITMAP
0010
1030
13FF
13FF
7DFE
7DFE
11FC
3904
35FC
708C
53FF
53FF
11FE
11FE
11FE
11FE
ENDCHAR
STARTCHAR char36675
ENCODING 27256
SWIDTH 640 0
DWIDTH 16 0
BBX 16 16 0 -1
BITMAP
0000
11FE
1104
1104
7DFC
7D04
11FC
3800
3FDF
7FDF
5253
53DF
1253
1253
13DF
13DF
ENDCHAR
STARTCHAR char36676
ENCODING 27482
SWIDTH 640 0
DWIDTH 16 0
BBX 16 16 0 -1
BITMAP
0010
2230
1630
7FB0
0C3F
7FCB
0C4A
7F88
3308
1208
7F9C
211C
3FB4
2126
3F63
3FC3
ENDCHAR
STARTCHAR char36677
ENCODING 36542
SWIDTH 640 0
DWIDTH 16 0
BBX 16 16 0 -1
BITMAP
1000
308C
30C8
7DFF
4C20
7DFE
4C20
4C20
7FFF
4E20
7FFF
4FFF
3C68
6CC4
1D86
1B03
ENDCHAR
STARTCHAR char36678
ENCODING 37691
SWIDTH 640 0
DWIDTH 16 0
BBX 16 16 0 -1
BITMAP
0008
100C
39EA
3DEB
240A
43FF
7C08
1048
7D48
7D78
554C
754D
314D
1577
7B83
6001
ENDCHAR
STARTCHAR char36679
ENCODING 37696
SWIDTH 640 0
DWIDTH 16 0
BBX 16 16 0 -1
BITMAP
0000
11FE
3D02
37FE
2302
41FE
7D02
1000
7DFF
7C0C
55FF
748C
30CC
16CC
783C
6038
ENDCHAR
STARTCHAR char36680
ENCODING 37690
SWIDTH 640 0
DWIDTH 16 0
BBX 16 16 0 -1
BITMAP
0084
108C
3BCF
3FCF
248C
4020
7DFF
11FF
7C40
7C7E
5442
54C2
7086
1784
7B1C
6208
ENDCHAR
STARTCHAR char36681
ENCODING 39830
SWIDTH 640 0
DWIDTH 16 0
BBX 16 16 0 -1
BITMAP
1000
3402
3EFF
2430
6830
7E20
4A60
4A7E
7EC2
4B42
7E42
7E42
3E42
5742
547E
C07E
ENDCHAR
STARTCHAR char36682
ENCODING 29173
SWIDTH 640 0
DWIDTH 16 0
BBX 16 16 0 -1
BITMAP
0000
3410
327E
337E
FC10
78FF
7344
737E
3210
337E
3910
2D7F
2310
4310
C7FF
047E
ENDCHAR
STARTCHAR char36683
ENCODING 31312
SWIDTH 640 0
DWIDTH 16 0
BBX 16 16 0 -1
BITMAP
0080
1C88
71F8
31FC
3324
7FFC
3324
3BFC
3FFC
73FE
73FE
F3FE
33FE
33FF
303F
303F
ENDCHAR
STARTCHAR char36684
ENCODING 37767
SWIDTH 640 0
DWIDTH 16 0
BBX 16 16 0 -1
BITMAP
0000
1100
39FF
3513
27FF
45FF
7F00
117F
7F43
7F7F
5743
7543
317F
1743
7A7F
6400
ENDCHAR
STARTCHAR char36685
ENCODING 37765
SWIDTH 640 0
DWIDTH 16 0
BBX 16 16 0 -1
BITMAP
0000
11FE
3D32
3732
23FE
4132
3DFE
11FE
7CC4
7CCE
57CB
76C9
30C8
1688
7988
7308
ENDCHAR
STARTCHAR char36686
ENCODING 39857
SWIDTH 640 0
DWIDTH 16 0
BBX 16 16 0 -1
BITMAP
1020
3022
3C22
3C24
69FC
7E2C
4A38
4BFF
7E20
4A40
7FC0
047E
7A40
7F43
D07F
003F
ENDCHAR
STARTCHAR char36687
ENCODING 40263
SWIDTH 640 0
DWIDTH 16 0
BBX 16 16 0 -1
BITMAP
1000
3010
30FE
3FFE
2CFE
4CC2
3FFE
3FC0
2CFF
2CC0
7FFF
7F13
0CF7
0CFB
0C9E
0C0C
ENDCHAR
STARTCHAR char36688
ENCODING 37817
SWIDTH 640 0
DWIDTH 16 0
BBX 16 16 0 -1
BITMAP
0000
1322
3912
3D14
243F
43BF
3C8C
110C
7DBF
7C98
5494
5DB2
3521
1FC0
767F
003E
ENDCHAR
STARTCHAR char36689
ENCODING 37823
SWIDTH 640 0
DWIDTH 16 0
BBX 16 16 0 -1
BITMAP
0030
1030
3878
3CCC
25FF
7DFB
108C
14FC
7E9C
15FC
54FE
3CFE
37FF
1FFF
7070
0060
ENDCHAR
STARTCHAR char36690
ENCODING 39887
SWIDTH 640 0
DWIDTH 16 0
BBX 16 16 0 -1
BITMAP
1001
3063
3DC7
3DCF
68CF
7FFF
54CF
54CF
7CEF
55FF
7FCF
06CF
7CC3
7EC3
D0C7
00C6
ENDCHAR
STARTCHAR char36691
ENCODING 40292
SWIDTH 640 0
DWIDTH 16 0
BBX 16 16 0 -1
BITMAP
0010
1230
3EFE
26FE
44FE
3FC2
2BFE
2BC0
3FFF
2BC0
3F7F
3F03
23F7
43EB
4FAE
CE0C
ENDCHAR
STARTCHAR char36692
ENCODING 40639
SWIDTH 640 0
DWIDTH 16 0
BBX 16 16 0 -1
BITMAP
0000
0082
7FFF
4412
5FFE
4F3C
4FBE
5516
47F8
4FF8
4FF8
47F8
5FFE
5FFE
DFFE
1FFC
ENDCHAR
STARTCHAR char36693
ENCODING 35256
SWIDTH 640 0
DWIDTH 16 0
BBX 16 16 0 -1
BITMAP
0000
7FBE
4CA2
7FA2
4CBE
7FA2
4CBE
5EBE
52A2
52BE
5EBE
529C
5E9C
40BD
43AF
4147
ENDCHAR
STARTCHAR char36694
ENCODING 39923
SWIDTH 640 0
DWIDTH 16 0
BBX 16 16 0 -1
BITMAP
1000
3030
3DFF
3DFF
490E
7D7C
554C
554C
7D7F
554C
7D4C
054D
7D7D
7B63
DF05
02FE
ENDCHAR
STARTCHAR char36695
ENCODING 31823
SWIDTH 640 0
DWIDTH 16 0
BBX 16 16 0 -1
BITMAP
1000
3040
3FFF
4D98
3488
15FF
7F00
30CC
3FFF
3CFC
34CC
34FC
25FF
65FF
5CEE
1F03
ENDCHAR
STARTCHAR char36696
ENCODING 37925
SWIDTH 640 0
DWIDTH 16 0
BBX 16 16 0 -1
BITMAP
0004
108C
39FF
3DFF
2430
41FE
7C30
11FF
7CC4
7C4C
55FF
5482
70FE
1682
78FE
70FE
ENDCHAR
STARTCHAR char36697
ENCODING 38374
SWIDTH 640 0
DWIDTH 16 0
BBX 16 16 0 -1
BITMAP
0000
7E7F
4243
7E7F
7E7F
7E7F
4FFB
4FFB
4FFB
4FF3
5FFF
47E3
4FF3
47E3
5FFF
4006
ENDCHAR
STARTCHAR char36698
ENCODING 39983
SWIDTH 640 0
DWIDTH 16 0
BBX 16 16 0 -1
BITMAP
1000
31FF
3C23
2C23
48EF
7DCF
5508
55EF
7C23
55AB
7CA3
0427
7DBB
7D33
F8EE
00CC
ENDCHAR
STARTCHAR char36699
ENCODING 27404
SWIDTH 640 0
DWIDTH 16 0
BBX 16 16 0 -1
BITMAP
1004
310C
33DF
33DF
790B
7FFF
3708
3FFA
7FCA
73EE
F7BC
37FC
37CC
3FF7
3223
3441
ENDCHAR
STARTCHAR char36700
ENCODING 40007
SWIDTH 640 0
DWIDTH 16 0
BBX 16 16 0 -1
BITMAP
1000
3030
3DFF
3DFF
497C
7D7E
5512
55FF
7D12
557E
7D52
0176
7F34
5FF6
D2B0
0430
ENDCHAR
STARTCHAR char36701
ENCODING 31030
SWIDTH 640 0
DWIDTH 16 0
BBX 16 16 0 -1
BITMAP
0000
0050
7DDF
3000
33FF
3333
21FE
3CD0
6CFF
6D90
2EFE
2C90
2CFE
2C90
3CFF
3CFF
ENDCHAR
STARTCHAR char36702
ENCODING 27413
SWIDTH 640 0
DWIDTH 16 0
BBX 16 16 0 -1
BITMAP
1000
33DE
3374
33FE
7800
7BFF
32C8
3AC8
73EF
732A
F3FA
332C
37EC
35EC
3F3F
3C33
ENDCHAR
STARTCHAR char36703
ENCODING 21429
SWIDTH 640 0
DWIDTH 16 0
BBX 16 16 0 -1
BITMAP
0000
1FFE
37F8
3FFC
3FFC
3FFC
22D8
4CCC
7F7F
7FFF
7FFE
7FFE
7FFE
5EFC
7EFE
ED08
ENDCHAR
STARTCHAR char36704
ENCODING 20326
SWIDTH 640 0
DWIDTH 16 0
BBX 16 16 0 -1
BITMAP
0800
0802
0BFF
1040
3040
30C0
3080
7182
31FE
3382
3282
3482
3082
3082
30FE
3080
ENDCHAR
STARTCHAR char36705
ENCODING 20328
SWIDTH 640 0
DWIDTH 16 0
BBX 16 16 0 -1
BITMAP
0880
0880
0980
11FE
3302
3202
37F2
7332
3336
33F4
3304
331C
330B
3303
31FF
30FE
ENDCHAR
STARTCHAR char36706
ENCODING 20455
SWIDTH 640 0
DWIDTH 16 0
BBX 16 16 0 -1
BITMAP
0820
0820
0820
1FFF
3020
3020
3020
77FE
3000
31B0
3110
3302
370D
350D
31FC
30F8
ENDCHAR
STARTCHAR char36707
ENCODING 20543
SWIDTH 640 0
DWIDTH 16 0
BBX 16 16 0 -1
BITMAP
0800
0860
0BFE
13FE
1088
38D0
37FF
5040
10C8
17FF
1088
1110
11F0
10F0
11DC
1704
ENDCHAR
STARTCHAR char36708
ENCODING 20646
SWIDTH 640 0
DWIDTH 16 0
BBX 16 16 0 -1
BITMAP
0800
0BFC
0B0C
137C
334C
374C
37FF
7402
33FC
33CC
337C
330C
33FC
33CC
331C
3218
ENDCHAR
STARTCHAR char36709
ENCODING 20751
SWIDTH 640 0
DWIDTH 16 0
BBX 16 16 0 -1
BITMAP
0880
0882
0AFE
12DE
17EC
364C
3BBF
7323
366C
31CC
3FFF
3FFF
314C
3346
3E43
3840
ENDCHAR
STARTCHAR char36710
ENCODING 21054
SWIDTH 640 0
DWIDTH 16 0
BBX 16 16 0 -1
BITMAP
0402
0C02
0C02
7F92
0C12
2C92
3D92
1D12
7FD2
7FD2
0C12
0D12
0982
18C2
304E
604C
ENDCHAR
STARTCHAR char36711
ENCODING 21284
SWIDTH 640 0
DWIDTH 16 0
BBX 16 16 0 -1
BITMAP
0000
4006
7FFE
4000
4FFC
4FFC
4080
4088
4FF8
40A0
4090
4080
5FFC
4000
7FFF
3FFF
ENDCHAR
STARTCHAR char36712
ENCODING 21349
SWIDTH 640 0
DWIDTH 16 0
BBX 16 16 0 -1
BITMAP
0000
0100
01FF
01FF
3FFE
3FFE
2182
2332
2632
3E62
21C2
21C2
227A
2C1A
3FFE
3FFE
ENDCHAR
STARTCHAR char36713
ENCODING 21403
SWIDTH 640 0
DWIDTH 16 0
BBX 16 16 0 -1
BITMAP
0000
2002
3FFF
2004
201E
28F0
2FC0
2BC2
2BFF
2BC8
2BC8
2FC8
28C8
4088
4088
C008
ENDCHAR
STARTCHAR char36714
ENCODING 20863
SWIDTH 640 0
DWIDTH 16 0
BBX 16 16 0 -1
BITMAP
0000
0C30
7FFF
7FFF
1820
7EFE
1CE4
7CE5
50D5
7183
1FF9
0FF8
7FFF
7FFF
1FFC
3FFC
ENDCHAR
STARTCHAR char36715
ENCODING 21707
SWIDTH 640 0
DWIDTH 16 0
BBX 16 16 0 -1
BITMAP
0008
0108
7B08
7B48
4B4B
4FCF
4BFB
4BCB
4B4A
4B4A
7BCA
7B48
0643
0443
007F
003E
ENDCHAR
STARTCHAR char36716
ENCODING 21875
SWIDTH 640 0
DWIDTH 16 0
BBX 16 16 0 -1
BITMAP
0020
0020
012C
78D8
4BFE
4BFE
48C2
4FFF
4984
4BFF
4C8C
788C
40B8
0082
00FF
00FE
ENDCHAR
STARTCHAR char36717
ENCODING 21873
SWIDTH 640 0
DWIDTH 16 0
BBX 16 16 0 -1
BITMAP
0020
0126
7B24
7B24
4BFC
49FC
4BFF
4BFF
4880
4982
79FE
7B02
4702
0102
01FE
01FE
ENDCHAR
STARTCHAR char36718
ENCODING 21867
SWIDTH 640 0
DWIDTH 16 0
BBX 16 16 0 -1
BITMAP
0000
0042
7842
79FC
484C
4858
4FFF
4860
48FC
49FC
4E84
78FC
4084
0084
00FC
00FC
ENDCHAR
STARTCHAR char36719
ENCODING 22004
SWIDTH 640 0
DWIDTH 16 0
BBX 16 16 0 -1
BITMAP
0000
0088
7818
7BFE
4820
4BFE
4820
4822
4FFE
48F0
78FC
78BA
01BE
0131
021F
0C0F
ENDCHAR
STARTCHAR char36720
ENCODING 22050
SWIDTH 640 0
DWIDTH 16 0
BBX 16 16 0 -1
BITMAP
0000
07FF
F542
F554
D7CC
D544
D55F
D7DF
D54E
D14C
F7EC
F10C
01EC
078C
061C
0018
ENDCHAR
STARTCHAR char36721
ENCODING 22048
SWIDTH 640 0
DWIDTH 16 0
BBX 16 16 0 -1
BITMAP
0000
07FE
7860
7BFE
4BFC
4BFC
4BFC
4F04
4FFF
4CB2
78FC
47FC
00CE
007B
07FF
071F
ENDCHAR
STARTCHAR char36722
ENCODING 22162
SWIDTH 640 0
DWIDTH 16 0
BBX 16 16 0 -1
BITMAP
0000
0020
7BFF
7BFF
4A8C
4BFF
4A8C
4BDE
4AEF
4A40
7A68
04D8
05F0
0464
0CFE
08E0
ENDCHAR
STARTCHAR char36723
ENCODING 22202
SWIDTH 640 0
DWIDTH 16 0
BBX 16 16 0 -1
BITMAP
0000
00FF
7EFF
7BFF
487E
4F24
4BFF
4B32
4BFE
4B3C
795E
7B3F
02DC
0718
01FF
00FF
ENDCHAR
STARTCHAR char36724
ENCODING 22161
SWIDTH 640 0
DWIDTH 16 0
BBX 16 16 0 -1
BITMAP
0004
003C
7BE0
7FFF
4820
4BFE
4BAA
4BFA
4BFE
4820
7BFE
7820
07FF
0392
0259
0400
ENDCHAR
STARTCHAR char36725
ENCODING 22192
SWIDTH 640 0
DWIDTH 16 0
BBX 16 16 0 -1
BITMAP
0000
0020
F7FF
F4CC
D7FF
D5FE
D5FE
D7FF
D600
D5FF
F440
F4C2
05FE
0FC2
08FE
107E
ENDCHAR
STARTCHAR char36726
ENCODING 22361
SWIDTH 640 0
DWIDTH 16 0
BBX 16 16 0 -1
BITMAP
0000
0006
7FFE
08CC
1998
3330
1198
08CC
00C4
0080
0080
1FFC
0080
0080
7FFF
7FFF
ENDCHAR
STARTCHAR char36727
ENCODING 22410
SWIDTH 640 0
DWIDTH 16 0
BBX 16 16 0 -1
BITMAP
1000
33FE
3302
3302
33FE
7FFE
3330
3330
33FF
33FF
3F30
3F10
6319
03CD
0387
0103
ENDCHAR
STARTCHAR char36728
ENCODING 22543
SWIDTH 640 0
DWIDTH 16 0
BBX 16 16 0 -1
BITMAP
0000
1030
7CFF
7CFF
1C3E
367E
7242
10C2
118E
178C
0080
0088
1FFC
0080
7FFF
7FFF
ENDCHAR
STARTCHAR char36729
ENCODING 22546
SWIDTH 640 0
DWIDTH 16 0
BBX 16 16 0 -1
BITMAP
1000
31FF
3103
3103
31FF
7D03
31FF
3000
3318
3310
3FDF
3BD0
6313
0373
039F
010E
ENDCHAR
STARTCHAR char36730
ENCODING 22547
SWIDTH 640 0
DWIDTH 16 0
BBX 16 16 0 -1
BITMAP
1010
31B2
3132
3132
7DFE
7C02
33FF
3300
33FE
33FE
3F10
73FF
4310
0210
0610
0410
ENDCHAR
STARTCHAR char36731
ENCODING 22599
SWIDTH 640 0
DWIDTH 16 0
BBX 16 16 0 -1
BITMAP
1000
3020
33FF
33FF
3202
7DFE
3000
31FC
310C
310C
3DFC
3D0C
61FC
01FC
07FF
07FF
ENDCHAR
STARTCHAR char36732
ENCODING 22683
SWIDTH 640 0
DWIDTH 16 0
BBX 16 16 0 -1
BITMAP
1002
37E2
3422
3422
37E2
7FFF
35C2
35D2
340A
37EE
3C82
6FA2
4EB2
0CB2
088E
008C
ENDCHAR
STARTCHAR char36733
ENCODING 22784
SWIDTH 640 0
DWIDTH 16 0
BBX 16 16 0 -1
BITMAP
0080
0082
7FFE
0080
1FFC
7FFF
0FFA
1FFC
1FFC
0FFC
7FFF
3FFF
22C8
3E48
2038
0030
ENDCHAR
STARTCHAR char36734
ENCODING 22861
SWIDTH 640 0
DWIDTH 16 0
BBX 16 16 0 -1
BITMAP
0080
1088
0D98
0530
3FFC
3FFC
0602
7FFF
0818
162C
6427
4422
0420
0C20
0820
3020
ENDCHAR
STARTCHAR char36736
ENCODING 23392
SWIDTH 640 0
DWIDTH 16 0
BBX 16 16 0 -1
BITMAP
0000
7FFE
0004
7FE4
1F84
3FC4
30C4
3FC4
000C
1FFC
0020
00C0
7FFF
7FFF
0780
0700
ENDCHAR
STARTCHAR char36737
ENCODING 23446
SWIDTH 640 0
DWIDTH 16 0
BBX 16 16 0 -1
BITMAP
0000
0080
3FFF
3FFF
6002
7E10
0210
2230
3E30
2020
3E64
3E42
0283
031F
3FF1
0C01
ENDCHAR
STARTCHAR char36738
ENCODING 23454
SWIDTH 640 0
DWIDTH 16 0
BBX 16 16 0 -1
BITMAP
0000
0080
3FFF
3FFF
6082
4C80
0680
1880
0C80
0082
7FFF
0180
0260
0430
381F
7007
ENDCHAR
STARTCHAR char36739
ENCODING 23444
SWIDTH 640 0
DWIDTH 16 0
BBX 16 16 0 -1
BITMAP
0000
0100
0180
3FFF
2002
4080
3FFC
3FFC
0080
0080
0FFC
0FFC
0080
0080
7FFF
7FFF
ENDCHAR
STARTCHAR char36740
ENCODING 23455
SWIDTH 640 0
DWIDTH 16 0
BBX 16 16 0 -1
BITMAP
0000
0080
3FFF
3FFF
6082
4080
3FFC
0080
1FFC
0080
7FFF
01C0
0260
0430
381F
7007
ENDCHAR
STARTCHAR char36741
ENCODING 23453
SWIDTH 640 0
DWIDTH 16 0
BBX 16 16 0 -1
BITMAP
0000
0100
0180
3FFF
2002
4000
3FFC
3FFC
0080
0088
1FFC
0080
0090
0088
7FFF
7FFF
ENDCHAR
STARTCHAR char36742
ENCODING 23552
SWIDTH 640 0
DWIDTH 16 0
BBX 16 16 0 -1
BITMAP
0000
4184
7F84
4004
40FF
5EFF
5204
5204
5244
5224
5E34
4004
4004
4004
7FBC
3F8C
ENDCHAR
STARTCHAR char36743
ENCODING 23577
SWIDTH 640 0
DWIDTH 16 0
BBX 16 16 0 -1
BITMAP
0040
04C0
0ED8
18CC
30C6
20C3
7FFF
3FFE
3002
33E2
3222
3222
33E2
3002
300E
300C
ENDCHAR
STARTCHAR char36744
ENCODING 23625
SWIDTH 640 0
DWIDTH 16 0
BBX 16 16 0 -1
BITMAP
0000
3FFE
2004
2004
3FFE
2498
2C90
2C90
2FFC
2FFC
2C90
2C90
2CF8
6C00
4FFC
47FC
ENDCHAR
STARTCHAR char36745
ENCODING 23626
SWIDTH 640 0
DWIDTH 16 0
BBX 16 16 0 -1
BITMAP
0000
1FFE
1002
1002
1FFE
1FFE
1060
1044
1FFE
1C44
1FFC
3FFC
3C44
3C44
2FFC
4C04
ENDCHAR
STARTCHAR char36746
ENCODING 23739
SWIDTH 640 0
DWIDTH 16 0
BBX 16 16 0 -1
BITMAP
0000
180E
11F8
11D0
5510
5510
55FF
55FF
5508
5508
5508
7D0C
0535
01E7
01FF
00FD
ENDCHAR
STARTCHAR char36747
ENCODING 23745
SWIDTH 640 0
DWIDTH 16 0
BBX 16 16 0 -1
BITMAP
0080
1086
3084
3084
1FFC
0000
0F3F
7C3F
4323
4323
4723
5E23
722F
042E
0C20
1020
ENDCHAR
STARTCHAR char36748
ENCODING 23737
SWIDTH 640 0
DWIDTH 16 0
BBX 16 16 0 -1
BITMAP
0000
19FF
1023
1423
D463
D443
D48E
D50C
D400
D5FE
D502
D502
7D02
0102
01FE
01FE
ENDCHAR
STARTCHAR char36749
ENCODING 23710
SWIDTH 640 0
DWIDTH 16 0
BBX 16 16 0 -1
BITMAP
0000
10C0
10C2
54FF
54A0
5520
5520
543E
5420
5420
543E
543E
7C20
0020
0020
0020
ENDCHAR
STARTCHAR char36750
ENCODING 23732
SWIDTH 640 0
DWIDTH 16 0
BBX 16 16 0 -1
BITMAP
0000
1006
11F8
55E0
5500
5500
5502
55FF
5508
5508
5508
5508
7D08
0508
03FF
03FF
ENDCHAR
STARTCHAR char36751
ENCODING 23738
SWIDTH 640 0
DWIDTH 16 0
BBX 16 16 0 -1
BITMAP
0080
1086
3084
3084
1FFC
0180
0340
0620
0FFC
3BCF
6FFC
0FFC
0018
0170
00C0
0060
ENDCHAR
ENDFONT
